<svg width="49" height="48" viewBox="0 0 49 48" fill="none" xmlns="http://www.w3.org/2000/svg">
<path d="M24.5 42C34.4411 42 42.5 33.9411 42.5 24C42.5 14.0589 34.4411 6 24.5 6C14.5589 6 6.5 14.0589 6.5 24C6.5 33.9411 14.5589 42 24.5 42Z" stroke="white" stroke-width="2" stroke-linecap="round" stroke-linejoin="round"/>
<path d="M32.5 26.5778C32.5 23.6089 29.726 23.2711 25.2517 22.9511V19.3422C28.2942 19.4844 29.5112 20.1422 29.5112 21.5822H31.9631C31.9452 18.9333 29.4038 17.5644 25.2517 17.3867V16H23.7662V17.3689C19.632 17.4578 17.0011 18.3822 17.0011 20.9778C17.0011 23.5911 18.9877 24.48 23.7662 24.8178V28.6044C20.1152 28.4444 18.9698 27.5733 18.9698 26.1689H16.5C16.6611 29.2267 19.3635 30.3822 23.7662 30.56V32H25.2517V30.5778C29.2964 30.5422 32.5 29.7778 32.5 26.5778ZM19.453 21.0844C19.453 19.9644 20.33 19.36 23.7662 19.3244V22.8444C20.2584 22.56 19.453 22.2044 19.453 21.0844ZM25.2517 24.9244C29.2785 25.1911 30.0481 25.44 30.0481 26.7022C30.0481 27.9111 28.7416 28.5867 25.2517 28.6222V24.9244Z" fill="white"/>
</svg>
