<svg width="24" height="24" viewBox="0 0 24 24" fill="none" xmlns="http://www.w3.org/2000/svg">
<path d="M12 21C16.9706 21 21 16.9706 21 12C21 7.02944 16.9706 3 12 3C7.02944 3 3 7.02944 3 12C3 16.9706 7.02944 21 12 21Z" stroke="#327140" stroke-width="1.5" stroke-miterlimit="10" stroke-linecap="round" stroke-linejoin="round"/>
<path d="M15.5303 10.5303C15.8232 10.2374 15.8232 9.76256 15.5303 9.46967C15.2374 9.17678 14.7626 9.17678 14.4697 9.46967L15.5303 10.5303ZM11 14L10.4697 14.5303C10.7626 14.8232 11.2374 14.8232 11.5303 14.5303L11 14ZM9.53033 11.4697C9.23744 11.1768 8.76256 11.1768 8.46967 11.4697C8.17678 11.7626 8.17678 12.2374 8.46967 12.5303L9.53033 11.4697ZM14.4697 9.46967L10.4697 13.4697L11.5303 14.5303L15.5303 10.5303L14.4697 9.46967ZM11.5303 13.4697L9.53033 11.4697L8.46967 12.5303L10.4697 14.5303L11.5303 13.4697Z" fill="#327140"/>
</svg>
