<svg width="32" height="32" viewBox="0 0 32 32" fill="none" xmlns="http://www.w3.org/2000/svg">
<path d="M26.9347 6.06138C24.8764 5.09838 22.6756 4.39851 20.3748 4C20.0922 4.51088 19.7621 5.19802 19.5345 5.74464C17.0886 5.37681 14.6653 5.37681 12.2644 5.74464C12.0368 5.19802 11.6992 4.51088 11.4141 4C9.11077 4.39851 6.90747 5.10095 4.84922 6.06648C0.697725 12.3399 -0.427678 18.4576 0.135025 24.4883C2.88852 26.5446 5.55698 27.7937 8.18041 28.6111C8.82815 27.7196 9.40585 26.7719 9.90352 25.7732C8.95569 25.413 8.04786 24.9686 7.19008 24.4526C7.41765 24.284 7.64024 24.1077 7.8553 23.9264C13.0872 26.3735 18.7717 26.3735 23.9411 23.9264C24.1587 24.1077 24.3812 24.284 24.6063 24.4526C23.746 24.9711 22.8357 25.4156 21.8879 25.7758C22.3855 26.7719 22.9607 27.7222 23.611 28.6136C26.2369 27.7962 28.9079 26.5471 31.6614 24.4883C32.3216 17.4971 30.5335 11.4357 26.9347 6.06138ZM10.6163 20.7795C9.04574 20.7795 7.75775 19.3133 7.75775 17.5278C7.75775 15.7423 9.01823 14.2736 10.6163 14.2736C12.2144 14.2736 13.5023 15.7397 13.4748 17.5278C13.4773 19.3133 12.2144 20.7795 10.6163 20.7795ZM21.1801 20.7795C19.6095 20.7795 18.3216 19.3133 18.3216 17.5278C18.3216 15.7423 19.582 14.2736 21.1801 14.2736C22.7782 14.2736 24.0661 15.7397 24.0386 17.5278C24.0386 19.3133 22.7782 20.7795 21.1801 20.7795Z" fill="#171716"/>
</svg>
