<svg width="48" height="48" viewBox="0 0 48 48" fill="none" xmlns="http://www.w3.org/2000/svg">
<path d="M24 42C33.9411 42 42 33.9411 42 24C42 14.0589 33.9411 6 24 6C14.0589 6 6 14.0589 6 24C6 33.9411 14.0589 42 24 42Z" stroke="white" stroke-width="2" stroke-linecap="round" stroke-linejoin="round"/>
<path d="M42 25C42.5523 25 43 24.5523 43 24C43 23.4477 42.5523 23 42 23V25ZM26 23C25.4477 23 25 23.4477 25 24C25 24.5523 25.4477 25 26 25V23ZM42 23H26V25H42V23Z" fill="white"/>
<path d="M29.2929 28.7071C29.6834 29.0976 30.3166 29.0976 30.7071 28.7071C31.0976 28.3166 31.0976 27.6834 30.7071 27.2929L29.2929 28.7071ZM26 24L25.2929 23.2929C24.9024 23.6834 24.9024 24.3166 25.2929 24.7071L26 24ZM30.7071 20.7071C31.0976 20.3166 31.0976 19.6834 30.7071 19.2929C30.3166 18.9024 29.6834 18.9024 29.2929 19.2929L30.7071 20.7071ZM30.7071 27.2929L26.7071 23.2929L25.2929 24.7071L29.2929 28.7071L30.7071 27.2929ZM26.7071 24.7071L30.7071 20.7071L29.2929 19.2929L25.2929 23.2929L26.7071 24.7071Z" fill="white"/>
<path d="M6 23C5.44771 23 5 23.4477 5 24C5 24.5523 5.44772 25 6 25L6 23ZM22 25C22.5523 25 23 24.5523 23 24C23 23.4477 22.5523 23 22 23L22 25ZM6 25L22 25L22 23L6 23L6 25Z" fill="white"/>
<path d="M18.7071 19.2929C18.3166 18.9024 17.6834 18.9024 17.2929 19.2929C16.9024 19.6834 16.9024 20.3166 17.2929 20.7071L18.7071 19.2929ZM22 24L22.7071 24.7071C23.0976 24.3166 23.0976 23.6834 22.7071 23.2929L22 24ZM17.2929 27.2929C16.9024 27.6834 16.9024 28.3166 17.2929 28.7071C17.6834 29.0976 18.3166 29.0976 18.7071 28.7071L17.2929 27.2929ZM17.2929 20.7071L21.2929 24.7071L22.7071 23.2929L18.7071 19.2929L17.2929 20.7071ZM21.2929 23.2929L17.2929 27.2929L18.7071 28.7071L22.7071 24.7071L21.2929 23.2929Z" fill="white"/>
</svg>
