<svg width="49" height="48" viewBox="0 0 49 48" fill="none" xmlns="http://www.w3.org/2000/svg">
<path d="M24.5 42C34.4411 42 42.5 33.9411 42.5 24C42.5 14.0589 34.4411 6 24.5 6C14.5589 6 6.5 14.0589 6.5 24C6.5 33.9411 14.5589 42 24.5 42Z" stroke="white" stroke-width="2" stroke-miterlimit="10" stroke-linecap="round" stroke-linejoin="round"/>
<path d="M24.5 16.3333L28.1923 18.4167L31.8846 20.5V28.8333L28.1923 30.9167L24.5 33L20.8077 30.9167L17.1154 28.8333V20.5L20.8077 18.4167L24.5 16.3333ZM24.5 16.3333V6.5M31.8846 28.2381L39.5 32.5M17.1154 28.2381L9 32.5" stroke="white" stroke-width="2" stroke-linecap="round" stroke-linejoin="round"/>
<path d="M24.5 33V24.5L32 20.5" stroke="white" stroke-width="2"/>
<path d="M24.5 24.5L17.5 20.5" stroke="white" stroke-width="2"/>
</svg>
