<svg width="32" height="32" viewBox="0 0 32 32" fill="none" xmlns="http://www.w3.org/2000/svg">
<path d="M10.1035 29.1192C22.0992 29.1192 28.6592 19.189 28.6592 10.5779C28.6592 10.2959 28.6535 10.0151 28.6408 9.73559C29.9142 8.81575 31.021 7.66787 31.8939 6.36116C30.7254 6.88015 29.4679 7.22953 28.1487 7.38708C29.4952 6.58031 30.5289 5.30411 31.0166 3.78273C29.7565 4.52915 28.3611 5.07165 26.8754 5.36454C25.6853 4.0979 23.991 3.30566 22.1149 3.30566C18.5134 3.30566 15.5929 6.22403 15.5929 9.82134C15.5929 10.3327 15.6501 10.8301 15.762 11.3072C10.3417 11.0347 5.53546 8.44161 2.31882 4.49865C1.75873 5.46168 1.43578 6.58034 1.43578 7.77397C1.43578 10.0348 2.58714 12.0307 4.33796 13.1983C3.26799 13.1653 2.26287 12.8718 1.38436 12.3833C1.3834 12.4106 1.3834 12.4373 1.3834 12.4665C1.3834 15.6225 3.6314 18.2574 6.61551 18.8545C6.0675 19.0038 5.49092 19.0838 4.89583 19.0838C4.47624 19.0838 4.06745 19.0426 3.67012 18.9663C4.50039 21.5556 6.90798 23.4397 9.76238 23.4924C7.53028 25.2406 4.71844 26.2818 1.66244 26.2818C1.13668 26.2818 0.617286 26.2519 0.106812 26.1916C2.9931 28.0402 6.42031 29.1188 10.1038 29.1188" fill="#171716"/>
</svg>
