<svg width="136" height="48" viewBox="0 0 136 48" fill="none" xmlns="http://www.w3.org/2000/svg">
<g clip-path="url(#clip0_948_937)">
<path d="M47.8565 24C47.8865 24 47.9154 24.0115 47.9373 24.0321C47.9591 24.0527 47.9722 24.0809 47.9739 24.1109C48.0652 24.9981 48.3523 30.9802 39.2259 30.9802C33.3547 30.9802 28.5599 27.9076 26.0158 25.8462C25.9922 25.8287 25.9632 25.8201 25.9339 25.822C25.9047 25.8239 25.877 25.836 25.8559 25.8564C25.8347 25.8768 25.8215 25.9039 25.8185 25.9331C25.8155 25.9623 25.823 25.9916 25.8396 26.0158C27.9076 28.56 30.9802 33.3352 30.9802 39.2325C30.9802 48.3654 24.9916 48.0718 24.1109 47.9739C24.0809 47.9722 24.0527 47.9592 24.0321 47.9374C24.0114 47.9155 24 47.8866 24 47.8565V24H47.8565Z" fill="#D4EEE9"/>
<path d="M8.77383 17.0197C14.645 17.0197 19.4398 20.0923 21.9905 22.1603C22.013 22.1828 22.0435 22.1954 22.0753 22.1954C22.1071 22.1954 22.1376 22.1828 22.1601 22.1603C22.1826 22.1378 22.1952 22.1073 22.1952 22.0755C22.1952 22.0436 22.1826 22.0131 22.1601 21.9906C20.0921 19.44 17.0195 14.6647 17.0195 8.774C17.0195 -0.358912 23.0081 -0.065376 23.8888 0.0259532C23.9194 0.0291878 23.9476 0.0436625 23.9681 0.0665659C23.9886 0.0894692 23.9999 0.119209 23.9997 0.149941V23.9999H0.169314C0.140305 24 0.112259 23.9895 0.090577 23.9702C0.0688953 23.951 0.0551181 23.9244 0.0518954 23.8955C-0.0655278 23.0083 -0.352565 17.0197 8.77383 17.0197Z" fill="#D4EEE9"/>
<path d="M78.2754 16.4393H71.2756V36.0098H66.9832V16.4393H59.9639V12.7144H78.2297L78.2754 16.4393Z" fill="#D4EEE9"/>
<path d="M93.5147 36.0031L89.6006 28.7816C89.3138 28.7986 89.0263 28.7986 88.7395 28.7816H84.0165V35.9574H79.6914V12.6685H88.7395C94.3954 12.6685 97.9181 15.7607 97.9181 20.7185C97.9181 24.0455 96.3199 26.544 93.5604 27.8031L98.2182 35.9574L93.5147 36.0031ZM84.0361 25.0892H88.7591C91.6164 25.0892 93.3256 23.6606 93.3256 20.7642C93.3256 17.8677 91.6294 16.4391 88.7591 16.4391H84.0361V25.0892Z" fill="#D4EEE9"/>
<path d="M119.55 12.7144L111.128 36.0033H106.738L98.3223 12.7144H102.947L108.936 30.4779L114.925 12.7144H119.55Z" fill="#D4EEE9"/>
<path d="M135.963 32.2784V36.0033H120.991V12.7144H125.284V32.2849L135.963 32.2784Z" fill="#D4EEE9"/>
</g>
<defs>
<clipPath id="clip0_948_937">
<rect width="135.963" height="48" fill="white"/>
</clipPath>
</defs>
</svg>
