<svg width="175" height="37" viewBox="0 0 175 37" fill="none" xmlns="http://www.w3.org/2000/svg">
<g clip-path="url(#clip0_2508_6610)">
<path d="M7.46083 24.2695H3.3775V16.2319H7.46083C10.8558 16.2319 11.4917 18.5752 11.4917 20.2507C11.4917 21.9262 10.8558 24.2695 7.46083 24.2695ZM7.30917 13.0918H0V35.9394H3.395V27.3627H7.30333C13.16 27.3627 15.1667 23.9942 15.1667 20.2507C15.1667 16.5072 13.16 13.0918 7.30917 13.0918Z" fill="white"/>
<path d="M24.8621 20.3327C23.4241 20.3244 22.0114 20.7136 20.7788 21.4575V13.0918L17.3838 14.0643V35.9335H20.7788V24.1172C21.8464 23.5152 23.0546 23.2099 24.2788 23.2326C25.883 23.2326 26.6705 23.9356 26.6705 25.4822V35.9335H30.0655V25.1834C30.0655 22.2542 28.7005 20.3444 24.8505 20.3444" fill="white"/>
<path d="M39.1887 33.4323C36.307 33.4323 35.8812 31.5752 35.8812 28.3179C35.8812 25.0607 36.307 23.2036 39.1887 23.2036C42.0704 23.2036 42.4904 25.0607 42.4904 28.3179C42.4904 31.5752 42.0645 33.4323 39.1887 33.4323ZM39.1887 20.3389C33.7929 20.3389 32.457 23.6254 32.457 28.3179C32.457 33.0105 33.7929 36.297 39.1887 36.297C44.5845 36.297 45.9204 33.0105 45.9204 28.3179C45.9204 23.6254 44.5845 20.333 39.1887 20.333" fill="white"/>
<path d="M48.2305 28.3175C48.2305 33.0686 49.8696 36.2966 55.2305 36.2966C56.6618 36.3317 58.0851 36.0726 59.413 35.535V32.6058C58.1486 33.1027 56.7977 33.3398 55.4405 33.303C52.5238 33.303 51.6488 31.2935 51.6488 28.3409C51.6488 25.3883 52.5005 23.3789 55.4405 23.3789C56.7982 23.3437 58.1491 23.5827 59.413 24.0819V21.1527C58.0908 20.597 56.6696 20.3179 55.2363 20.3326C49.8696 20.3326 48.2363 23.5605 48.2363 28.3116" fill="white"/>
<path d="M71.6275 32.5184C70.56 33.1209 69.3517 33.4263 68.1275 33.403C66.5175 33.403 65.73 32.7058 65.73 31.1475V20.333L62.335 21.3055V31.4639C62.335 34.393 63.7 36.3029 67.55 36.3029C69.3082 36.2832 71.0199 35.732 72.4616 34.7211L73.01 35.9396H75.0108V20.333L71.6158 21.3055L71.6275 32.5184Z" fill="white"/>
<path d="M83.481 26.7764C81.5093 26.5948 80.9668 26.1378 80.9668 25.0716C80.9668 23.7007 82.0868 23.1852 83.8835 23.1852C85.4784 23.1711 87.0616 23.4593 88.5502 24.0347V21.1055C87.0523 20.5275 85.4513 20.2682 83.8485 20.3439C79.3918 20.3439 77.6943 22.5642 77.6943 25.1829C77.6943 27.8016 78.8143 29.231 83.3935 29.6294C85.4235 29.811 85.9077 30.391 85.9077 31.5158C85.9077 32.8573 84.741 33.4022 82.3027 33.4022C80.7577 33.3833 79.2278 33.0939 77.7818 32.5468V35.476C79.3883 36.0464 81.0832 36.3241 82.7868 36.2962C87.6402 36.2962 89.2443 34.0114 89.2443 31.3928C89.2443 28.5573 88.0777 27.1923 83.516 26.7939" fill="white"/>
<path d="M127.931 21.9261L127.383 20.7076H125.382V35.9393H128.777V24.1758C129.964 23.5203 131.308 23.2042 132.662 23.2618C133.224 23.2424 133.785 23.3035 134.33 23.4435V20.5143C133.223 20.2683 132.077 20.2661 130.969 20.5078C129.861 20.7495 128.819 21.2294 127.914 21.9144" fill="#F04A2C"/>
<path d="M121.182 32.1551V20.333L117.787 21.3055V32.1844C117.787 34.8031 119.03 36.1447 121.789 36.1447C122.014 36.1451 122.238 36.1255 122.46 36.0861V33.3151C121.491 33.3151 121.188 33.0105 121.188 32.1434" fill="#F04A2C"/>
<path d="M119.484 18.3118C119.899 18.3118 120.305 18.1881 120.65 17.9563C120.996 17.7246 121.265 17.3952 121.424 17.0098C121.583 16.6245 121.624 16.2004 121.543 15.7913C121.462 15.3822 121.262 15.0064 120.969 14.7115C120.675 14.4165 120.301 14.2157 119.893 14.1343C119.486 14.0529 119.064 14.0947 118.68 14.2543C118.296 14.4139 117.968 14.6842 117.738 15.0311C117.507 15.3779 117.384 15.7856 117.384 16.2028C117.387 16.7612 117.609 17.2958 118.002 17.6906C118.395 18.0855 118.928 18.3087 119.484 18.3118Z" fill="#F04A2C"/>
<path d="M149.83 10.1798C149.83 5.82121 154.467 3.0795 160.744 3.02678C165.994 2.97991 171.74 5.58688 171.745 10.215C171.745 15.3176 165.755 16.7177 161.35 16.7119C160.341 16.7119 159.425 16.6357 159.017 16.6006C158.961 16.5931 158.903 16.5978 158.848 16.6144C158.794 16.6309 158.743 16.659 158.7 16.6966C158.657 16.7343 158.623 16.7808 158.599 16.8329C158.575 16.885 158.562 16.9416 158.562 16.9989C157.833 21.5216 156.719 24.439 152.729 29.2487C152.704 29.2894 152.69 29.3358 152.688 29.3835C152.684 29.4521 152.704 29.5199 152.745 29.5754C152.785 29.6309 152.843 29.6707 152.91 29.6881C153.018 29.6838 153.125 29.6681 153.23 29.6412C160.009 26.8234 161.181 19.2485 161.181 19.2485C170.013 19.2954 174.639 15.962 174.983 10.5548C175.362 4.55581 168.584 0.882625 160.802 0.999792C153.02 1.11696 148.552 4.94246 148.587 9.8869C148.612 11.0554 148.921 12.2 149.488 13.221C150.054 14.2421 150.86 15.1086 151.836 15.7452C152.46 16.1436 153.003 16.3311 153.289 16.2198C154.187 15.8624 149.835 15.1301 149.83 10.1857" fill="#F04A2C"/>
<path d="M138.898 27.1814H144.941C144.941 25.1193 144.819 23.2973 142.194 23.2973C139.714 23.2973 139.02 24.9025 138.904 27.1814H138.898ZM142.188 20.333C147.502 20.333 148.348 23.848 148.348 28.0367C148.348 28.5523 148.319 29.0385 148.29 29.5248H138.898C138.956 31.7978 139.773 33.2858 142.853 33.2858C144.498 33.3186 146.133 33.0095 147.654 32.3778V35.3069C145.958 35.9652 144.151 36.2856 142.334 36.2501C137.288 36.2501 135.479 33.2155 135.479 28.3004C135.479 23.3852 137.27 20.333 142.188 20.333Z" fill="#F04A2C"/>
<path d="M101.325 12.9922H105.537L109.363 30.8777L112.315 13.0156H115.897L111.65 35.9335H107.526L103.442 17.0462L99.3592 35.9335H95.235L91 12.9922H94.5817L97.5042 30.8777L101.325 12.9922Z" fill="#F04A2C"/>
</g>
<defs>
<clipPath id="clip0_2508_6610">
<rect width="175" height="37" fill="white"/>
</clipPath>
</defs>
</svg>
