<svg width="205" height="56" viewBox="0 0 205 56" fill="none" xmlns="http://www.w3.org/2000/svg">
<g clip-path="url(#clip0_2437_6532)">
<path d="M84.1036 0C84.7409 5.276 84.0681 10.5933 84.4931 16.3119C86.9422 14.1284 89.5389 12.9717 92.5369 12.9126C97.6536 12.8182 101.932 16.0169 102.829 21.0922C104.122 28.3925 103.172 35.7989 103.408 43.1582C103.449 44.4742 102.522 44.4388 101.614 44.4388C99.1644 44.4388 96.7152 44.3562 94.272 44.4683C92.714 44.5392 92.2654 43.9962 92.2949 42.4854C92.3835 38.1241 92.3303 33.757 92.3244 29.3957C92.3244 28.5223 92.3244 27.6489 92.2359 26.7813C92.0117 24.6036 90.9612 23.0043 88.5946 22.9925C86.175 22.9866 84.735 24.462 84.6465 26.8167C84.4813 30.8829 84.5167 34.9609 84.5049 39.033C84.4872 44.4447 84.5049 44.4447 78.9161 44.4447C73.3273 44.4447 73.4453 44.4447 73.4512 38.9858C73.4689 25.9905 73.4925 12.9953 73.5161 0H84.1036Z" fill="#6001D1"/>
<path d="M0 13.9864C3.58225 13.1838 7.20582 13.8211 10.8058 13.6323C12.3225 13.5497 12.4405 14.8244 12.8123 15.745C14.8779 20.8676 16.8844 26.0079 19.1447 31.7265C21.3283 26.2911 23.4528 21.381 25.2469 16.3588C26.0436 14.128 27.2003 13.231 29.5197 13.5969C30.3813 13.7326 31.2783 13.6205 32.1577 13.6205C36.1078 13.6205 37.3432 15.3831 35.8638 18.9083C30.9773 30.5226 26.0436 42.1192 21.2457 53.7748C20.5316 55.5098 19.6581 56.0941 17.8168 55.9938C14.8897 55.8344 11.9507 55.9524 8.60449 55.9524C9.97365 52.7007 11.1835 49.6732 12.5172 46.6988C13.0602 45.4831 13.2608 44.4444 12.6884 43.1342C8.70482 33.9809 4.78617 24.7981 0.82622 15.6329C0.649173 15.2257 0.631468 14.6533 0 14.5706V13.9864Z" fill="#6001D1"/>
<path d="M204.672 0C201.078 8.57498 197.431 17.1323 193.925 25.7426C193.229 27.4482 192.356 28.0856 190.491 28.0029C187.08 27.8436 183.657 27.9557 179.762 27.9557C183.828 18.4542 187.782 9.22415 191.73 0C196.044 0 200.358 0 204.666 0H204.672Z" fill="#6001D1"/>
<path d="M69.7274 21.5935C69.692 19.0264 70.9195 15.7215 69.1314 14.0749C67.5143 12.5877 64.2626 13.8153 61.7485 13.6028C59.9721 13.4494 58.6915 13.774 58.8154 15.987C52.0994 11.4546 44.9703 12.2041 39.9363 17.8165C34.3829 24.0073 34.377 34.3999 39.9245 40.5022C44.9585 46.0378 52.2057 46.7637 58.8272 42.2313C58.6502 44.3677 59.9072 44.5743 61.536 44.468C63.1944 44.3618 64.8822 44.2969 66.5229 44.4798C69.0015 44.7572 69.9281 44.0726 69.8337 41.3697C69.6094 34.7835 69.8337 28.1856 69.7274 21.5935ZM52.9552 35.4681C49.3139 35.533 46.4162 32.6944 46.4339 29.0767C46.4516 25.4768 49.3847 22.6735 53.0319 22.7739C56.5138 22.8742 59.3407 25.7364 59.3171 29.1535C59.2876 32.5705 56.4312 35.4091 52.9552 35.4681Z" fill="#6001D1"/>
<path d="M157.743 12.8945C148.307 12.8886 141.054 19.9705 141.077 29.177C141.095 38.348 148.454 45.424 157.879 45.3414C167.139 45.2528 174.427 38.171 174.492 29.1947C174.557 20.1417 167.121 12.9063 157.743 12.8945ZM157.543 35.3205C154.09 35.2084 151.552 32.535 151.576 29.0589C151.606 25.6065 154.244 22.9272 157.655 22.88C161.125 22.8328 164.034 25.7245 163.993 29.1652C163.952 32.6707 161.054 35.4385 157.543 35.3205Z" fill="#6001D1"/>
<path d="M122.534 12.9011C113.103 12.8185 105.774 19.8768 105.75 29.0596C105.726 38.2484 113.003 45.3538 122.422 45.3361C131.811 45.3243 139.212 38.1008 139.129 29.0242C139.053 19.983 131.847 12.9778 122.534 12.9011ZM122.204 35.3212C118.769 35.2031 116.208 32.5179 116.237 29.0478C116.267 25.6013 118.916 22.922 122.328 22.8807C125.798 22.8335 128.701 25.7193 128.666 29.1717C128.63 32.6596 125.703 35.4451 122.204 35.3212Z" fill="#6001D1"/>
<path d="M183.403 30.741C187.41 30.8001 190.485 33.8571 190.455 37.758C190.426 41.8301 187.068 45.0228 182.883 44.9638C178.864 44.9048 175.843 41.8891 175.86 37.9528C175.878 33.8571 179.201 30.682 183.403 30.741Z" fill="#6002D1"/>
</g>
<defs>
<clipPath id="clip0_2437_6532">
<rect width="204.672" height="56" fill="white"/>
</clipPath>
</defs>
</svg>
