<svg width="240" height="18" viewBox="0 0 240 18" fill="none" xmlns="http://www.w3.org/2000/svg">
<path d="M5.71891 17.4267C5.55528 17.4267 5.41619 17.3694 5.30165 17.2549C5.18711 17.1404 5.12984 17.0013 5.12984 16.8376V3.26444H0.589072C0.425441 3.26444 0.286354 3.20717 0.171813 3.09263C0.0572709 2.97809 0 2.839 0 2.67537V0.859064C0 0.679069 0.0572709 0.531801 0.171813 0.41726C0.286354 0.302718 0.425441 0.245446 0.589072 0.245446H13.1069C13.2868 0.245446 13.4341 0.302718 13.5487 0.41726C13.6632 0.531801 13.7205 0.679069 13.7205 0.859064V2.67537C13.7205 2.839 13.6632 2.97809 13.5487 3.09263C13.4341 3.20717 13.2868 3.26444 13.1069 3.26444H8.59063V16.8376C8.59063 17.0013 8.53336 17.1404 8.41882 17.2549C8.30428 17.3694 8.15701 17.4267 7.97702 17.4267H5.71891Z" fill="#020202"/>
<path d="M17.7818 17.4267C17.6182 17.4267 17.4791 17.3694 17.3646 17.2549C17.25 17.1404 17.1928 17.0013 17.1928 16.8376V0.859064C17.1928 0.679069 17.25 0.531801 17.3646 0.41726C17.4791 0.302718 17.6182 0.245446 17.7818 0.245446H28.5815C28.7615 0.245446 28.9088 0.302718 29.0233 0.41726C29.1378 0.531801 29.1951 0.679069 29.1951 0.859064V2.47901C29.1951 2.64264 29.1378 2.78173 29.0233 2.89627C28.9088 3.01081 28.7615 3.06808 28.5815 3.06808H20.5063V7.41249H28.0415C28.2215 7.41249 28.3688 7.46976 28.4833 7.5843C28.5979 7.68248 28.6551 7.82157 28.6551 8.00156V9.52333C28.6551 9.70333 28.5979 9.85059 28.4833 9.96513C28.3688 10.0633 28.2215 10.1124 28.0415 10.1124H20.5063V14.6041H28.7779C28.9578 14.6041 29.1051 14.6613 29.2197 14.7759C29.3342 14.8904 29.3915 15.0377 29.3915 15.2177V16.8376C29.3915 17.0013 29.3342 17.1404 29.2197 17.2549C29.1051 17.3694 28.9578 17.4267 28.7779 17.4267H17.7818Z" fill="#020202"/>
<path d="M37.812 17.4267C37.6484 17.4267 37.5093 17.3694 37.3948 17.2549C37.2802 17.1404 37.2229 17.0013 37.2229 16.8376V3.26444H32.6822C32.5186 3.26444 32.3795 3.20717 32.2649 3.09263C32.1504 2.97809 32.0931 2.839 32.0931 2.67537V0.859064C32.0931 0.679069 32.1504 0.531801 32.2649 0.41726C32.3795 0.302718 32.5186 0.245446 32.6822 0.245446H45.2C45.38 0.245446 45.5272 0.302718 45.6418 0.41726C45.7563 0.531801 45.8136 0.679069 45.8136 0.859064V2.67537C45.8136 2.839 45.7563 2.97809 45.6418 3.09263C45.5272 3.20717 45.38 3.26444 45.2 3.26444H40.6837V16.8376C40.6837 17.0013 40.6265 17.1404 40.5119 17.2549C40.3974 17.3694 40.2501 17.4267 40.0701 17.4267H37.812Z" fill="#020202"/>
<path d="M49.8749 17.4267C49.7113 17.4267 49.5722 17.3694 49.4577 17.2549C49.3431 17.1404 49.2859 17.0013 49.2859 16.8376V0.859064C49.2859 0.679069 49.3431 0.531801 49.4577 0.41726C49.5722 0.302718 49.7113 0.245446 49.8749 0.245446H56.232C58.212 0.245446 59.7746 0.703613 60.9201 1.61995C62.0655 2.53628 62.6382 3.86988 62.6382 5.62073C62.6382 6.8316 62.3355 7.83793 61.73 8.63972C61.141 9.44151 60.3473 10.0224 59.3492 10.3824L62.9327 16.6413C62.9818 16.7395 63.0063 16.8295 63.0063 16.9113C63.0063 17.0585 62.9491 17.1813 62.8345 17.2794C62.7364 17.3776 62.6218 17.4267 62.4909 17.4267H60.2573C59.9792 17.4267 59.7665 17.3531 59.6192 17.2058C59.4719 17.0585 59.3574 16.9113 59.2756 16.764L56.1093 10.9469H52.6976V16.8376C52.6976 17.0013 52.6403 17.1404 52.5258 17.2549C52.4276 17.3694 52.2885 17.4267 52.1085 17.4267H49.8749ZM52.6976 8.17338H56.1584C57.1565 8.17338 57.9011 7.95247 58.3919 7.51067C58.8828 7.0525 59.1283 6.41434 59.1283 5.59618C59.1283 4.77803 58.8828 4.13987 58.3919 3.6817C57.9174 3.20717 57.1729 2.9699 56.1584 2.9699H52.6976V8.17338Z" fill="#020202"/>
<path d="M65.7272 17.4267C65.5963 17.4267 65.4735 17.3776 65.359 17.2794C65.2608 17.1813 65.2117 17.0585 65.2117 16.9113C65.2117 16.8458 65.2281 16.7722 65.2608 16.6904L71.1761 0.859064C71.2252 0.695432 71.3152 0.556345 71.4461 0.441804C71.5933 0.310899 71.7897 0.245446 72.0351 0.245446H74.7105C74.956 0.245446 75.1441 0.310899 75.275 0.441804C75.4059 0.556345 75.5041 0.695432 75.5696 0.859064L81.4848 16.6904C81.5012 16.7722 81.5094 16.8458 81.5094 16.9113C81.5094 17.0585 81.4603 17.1813 81.3621 17.2794C81.2639 17.3776 81.1494 17.4267 81.0185 17.4267H78.8831C78.654 17.4267 78.4822 17.3776 78.3677 17.2794C78.2695 17.1649 78.204 17.0585 78.1713 16.9604L77.0177 13.9659H69.7279L68.5743 16.9604C68.5416 17.0585 68.468 17.1649 68.3534 17.2794C68.2553 17.3776 68.0916 17.4267 67.8625 17.4267H65.7272ZM70.587 11.1433H76.1586L73.3606 3.55898L70.587 11.1433Z" fill="#020202"/>
<path d="M91.0741 17.6722C89.5524 17.6722 88.2597 17.4104 87.1961 16.8867C86.1488 16.3467 85.347 15.5859 84.7907 14.6041C84.2343 13.6059 83.9234 12.4114 83.858 11.0206C83.8416 10.3497 83.8335 9.62969 83.8335 8.86063C83.8335 8.09156 83.8416 7.35522 83.858 6.65161C83.9234 5.2771 84.2343 4.09078 84.7907 3.09263C85.3634 2.09448 86.1734 1.33359 87.2206 0.809974C88.2842 0.269991 89.5687 0 91.0741 0C92.1868 0 93.185 0.147268 94.0686 0.441804C94.9522 0.73634 95.7049 1.14542 96.3267 1.66904C96.9485 2.17629 97.4312 2.77355 97.7748 3.4608C98.1184 4.14805 98.2984 4.89257 98.3148 5.69436C98.3312 5.84163 98.2821 5.96435 98.1675 6.06253C98.0694 6.16071 97.9466 6.2098 97.7994 6.2098H95.4676C95.2876 6.2098 95.1404 6.16889 95.0258 6.08708C94.9113 5.9889 94.8295 5.83345 94.7804 5.62073C94.5186 4.54076 94.0686 3.80442 93.4304 3.41171C92.7923 3.01899 91.9986 2.82264 91.0496 2.82264C89.9533 2.82264 89.0778 3.13354 88.4233 3.75533C87.7688 4.36077 87.417 5.3671 87.3679 6.77433C87.3188 8.1161 87.3188 9.4906 87.3679 10.8978C87.417 12.3051 87.7688 13.3196 88.4233 13.9414C89.0778 14.5468 89.9533 14.8495 91.0496 14.8495C91.9986 14.8495 92.7923 14.6532 93.4304 14.2605C94.0686 13.8514 94.5186 13.115 94.7804 12.0514C94.8295 11.8223 94.9113 11.6669 95.0258 11.5851C95.1404 11.5033 95.2876 11.4624 95.4676 11.4624H97.7994C97.9466 11.4624 98.0694 11.5114 98.1675 11.6096C98.2821 11.7078 98.3312 11.8305 98.3148 11.9778C98.2984 12.7796 98.1184 13.5241 97.7748 14.2114C97.4312 14.8986 96.9485 15.504 96.3267 16.0277C95.7049 16.5349 94.9522 16.9358 94.0686 17.2304C93.185 17.5249 92.1868 17.6722 91.0741 17.6722Z" fill="#020202"/>
<path d="M106.857 17.4267C106.694 17.4267 106.555 17.3694 106.44 17.2549C106.326 17.1404 106.268 17.0013 106.268 16.8376V11.2905L100.476 1.03088C100.459 0.99815 100.443 0.957243 100.427 0.908153C100.41 0.859063 100.402 0.809974 100.402 0.760885C100.402 0.613617 100.451 0.490894 100.549 0.392715C100.648 0.294536 100.762 0.245446 100.893 0.245446H103.077C103.274 0.245446 103.429 0.294536 103.544 0.392715C103.675 0.490894 103.765 0.597253 103.814 0.711795L107.986 7.85429L112.134 0.711795C112.2 0.597253 112.29 0.490894 112.404 0.392715C112.535 0.294536 112.699 0.245446 112.895 0.245446H115.055C115.202 0.245446 115.325 0.294536 115.423 0.392715C115.522 0.490894 115.571 0.613617 115.571 0.760885C115.571 0.809974 115.562 0.859063 115.546 0.908153C115.546 0.957243 115.53 0.99815 115.497 1.03088L109.704 11.2905V16.8376C109.704 17.0013 109.647 17.1404 109.533 17.2549C109.418 17.3694 109.271 17.4267 109.091 17.4267H106.857Z" fill="#020202"/>
<path d="M124.893 17.6722C123.371 17.6722 122.079 17.4104 121.015 16.8867C119.968 16.3467 119.166 15.5859 118.61 14.6041C118.053 13.6059 117.742 12.4114 117.677 11.0206C117.661 10.3497 117.652 9.62969 117.652 8.86063C117.652 8.09156 117.661 7.35522 117.677 6.65161C117.742 5.2771 118.053 4.09078 118.61 3.09263C119.182 2.09448 119.992 1.33359 121.04 0.809974C122.103 0.269991 123.388 0 124.893 0C126.006 0 127.004 0.147268 127.887 0.441804C128.771 0.73634 129.524 1.14542 130.146 1.66904C130.767 2.17629 131.25 2.77355 131.594 3.4608C131.937 4.14805 132.117 4.89257 132.134 5.69436C132.15 5.84163 132.101 5.96435 131.986 6.06253C131.888 6.16071 131.766 6.2098 131.618 6.2098H129.287C129.107 6.2098 128.959 6.16889 128.845 6.08708C128.73 5.9889 128.648 5.83345 128.599 5.62073C128.337 4.54076 127.887 3.80442 127.249 3.41171C126.611 3.01899 125.818 2.82264 124.868 2.82264C123.772 2.82264 122.897 3.13354 122.242 3.75533C121.588 4.36077 121.236 5.3671 121.187 6.77433C121.138 8.1161 121.138 9.4906 121.187 10.8978C121.236 12.3051 121.588 13.3196 122.242 13.9414C122.897 14.5468 123.772 14.8495 124.868 14.8495C125.818 14.8495 126.611 14.6532 127.249 14.2605C127.887 13.8514 128.337 13.115 128.599 12.0514C128.648 11.8223 128.73 11.6669 128.845 11.5851C128.959 11.5033 129.107 11.4624 129.287 11.4624H131.618C131.766 11.4624 131.888 11.5114 131.986 11.6096C132.101 11.7078 132.15 11.8305 132.134 11.9778C132.117 12.7796 131.937 13.5241 131.594 14.2114C131.25 14.8986 130.767 15.504 130.146 16.0277C129.524 16.5349 128.771 16.9358 127.887 17.2304C127.004 17.5249 126.006 17.6722 124.893 17.6722Z" fill="#020202"/>
<path d="M136.615 17.4267C136.452 17.4267 136.313 17.3694 136.198 17.2549C136.084 17.1404 136.026 17.0013 136.026 16.8376V0.834518C136.026 0.670887 136.084 0.531801 136.198 0.41726C136.313 0.302718 136.452 0.245446 136.615 0.245446H138.898C139.062 0.245446 139.201 0.302718 139.315 0.41726C139.43 0.531801 139.487 0.670887 139.487 0.834518V14.5059H147.268C147.448 14.5059 147.595 14.5632 147.71 14.6777C147.824 14.7923 147.881 14.9395 147.881 15.1195V16.8376C147.881 17.0013 147.824 17.1404 147.71 17.2549C147.595 17.3694 147.448 17.4267 147.268 17.4267H136.615Z" fill="#020202"/>
<path d="M151.835 17.4267C151.671 17.4267 151.532 17.3694 151.418 17.2549C151.303 17.1404 151.246 17.0013 151.246 16.8376V0.834518C151.246 0.670887 151.303 0.531801 151.418 0.41726C151.532 0.302718 151.671 0.245446 151.835 0.245446H154.142C154.322 0.245446 154.461 0.302718 154.559 0.41726C154.674 0.531801 154.731 0.670887 154.731 0.834518V16.8376C154.731 17.0013 154.674 17.1404 154.559 17.2549C154.461 17.3694 154.322 17.4267 154.142 17.4267H151.835Z" fill="#020202"/>
<path d="M160.151 17.4267C159.988 17.4267 159.849 17.3694 159.734 17.2549C159.62 17.1404 159.562 17.0013 159.562 16.8376V0.859064C159.562 0.679069 159.62 0.531801 159.734 0.41726C159.849 0.302718 159.988 0.245446 160.151 0.245446H162.041C162.27 0.245446 162.434 0.302718 162.532 0.41726C162.647 0.515438 162.72 0.589072 162.753 0.638162L169.822 11.6342V0.859064C169.822 0.679069 169.871 0.531801 169.969 0.41726C170.084 0.302718 170.231 0.245446 170.411 0.245446H172.473C172.653 0.245446 172.8 0.302718 172.915 0.41726C173.029 0.531801 173.086 0.679069 173.086 0.859064V16.8131C173.086 16.9931 173.029 17.1404 172.915 17.2549C172.8 17.3694 172.661 17.4267 172.497 17.4267H170.583C170.354 17.4267 170.19 17.3694 170.092 17.2549C169.994 17.1404 169.92 17.0667 169.871 17.034L162.827 6.28343V16.8376C162.827 17.0013 162.77 17.1404 162.655 17.2549C162.54 17.3694 162.393 17.4267 162.213 17.4267H160.151Z" fill="#020202"/>
<path d="M178.487 17.4267C178.323 17.4267 178.184 17.3694 178.07 17.2549C177.955 17.1404 177.898 17.0013 177.898 16.8376V0.859064C177.898 0.679069 177.955 0.531801 178.07 0.41726C178.184 0.302718 178.323 0.245446 178.487 0.245446H189.287C189.467 0.245446 189.614 0.302718 189.729 0.41726C189.843 0.531801 189.9 0.679069 189.9 0.859064V2.47901C189.9 2.64264 189.843 2.78173 189.729 2.89627C189.614 3.01081 189.467 3.06808 189.287 3.06808H181.212V7.41249H188.747C188.927 7.41249 189.074 7.46976 189.189 7.5843C189.303 7.68248 189.36 7.82157 189.36 8.00156V9.52333C189.36 9.70333 189.303 9.85059 189.189 9.96513C189.074 10.0633 188.927 10.1124 188.747 10.1124H181.212V14.6041H189.483C189.663 14.6041 189.81 14.6613 189.925 14.7759C190.039 14.8904 190.097 15.0377 190.097 15.2177V16.8376C190.097 17.0013 190.039 17.1404 189.925 17.2549C189.81 17.3694 189.663 17.4267 189.483 17.4267H178.487Z" fill="#020202"/>
<path d="M194.737 17.4267C194.574 17.4267 194.435 17.3694 194.32 17.2549C194.206 17.1404 194.148 17.0013 194.148 16.8376V0.859064C194.148 0.679069 194.206 0.531801 194.32 0.41726C194.435 0.302718 194.574 0.245446 194.737 0.245446H200.726C202.379 0.245446 203.737 0.499075 204.801 1.00633C205.881 1.51359 206.691 2.26629 207.231 3.26444C207.787 4.26259 208.073 5.48164 208.09 6.9216C208.122 7.64157 208.139 8.27973 208.139 8.83608C208.139 9.39243 208.122 10.0224 208.09 10.726C208.057 12.2478 207.779 13.5077 207.255 14.5059C206.732 15.4877 205.938 16.224 204.874 16.7149C203.827 17.1894 202.485 17.4267 200.849 17.4267H194.737ZM197.56 14.6041H200.726C201.643 14.6041 202.387 14.4732 202.96 14.2114C203.533 13.9496 203.95 13.5323 204.212 12.9596C204.49 12.3705 204.637 11.6014 204.653 10.6524C204.67 10.1615 204.678 9.73605 204.678 9.37606C204.694 8.99971 204.694 8.63154 204.678 8.27155C204.678 7.8952 204.67 7.46976 204.653 6.99523C204.621 5.65345 204.285 4.66349 203.647 4.02533C203.009 3.38716 201.994 3.06808 200.604 3.06808H197.56V14.6041Z" fill="#020202"/>
<path d="M214.033 17.4267C213.885 17.4267 213.763 17.3776 213.664 17.2794C213.566 17.1649 213.517 17.034 213.517 16.8867C213.517 16.8213 213.533 16.7476 213.566 16.6658L219.481 3.16626H211.774C211.594 3.16626 211.447 3.10899 211.333 2.99445C211.234 2.87991 211.185 2.74082 211.185 2.57719V0.859064C211.185 0.679069 211.234 0.531801 211.333 0.41726C211.447 0.302718 211.594 0.245446 211.774 0.245446H222.55C222.73 0.245446 222.869 0.302718 222.967 0.41726C223.081 0.531801 223.139 0.679069 223.139 0.859064V2.38083C223.139 2.60992 223.114 2.80627 223.065 2.9699C223.032 3.11717 222.983 3.27262 222.918 3.43625L217.052 16.8376C217.002 16.9522 216.912 17.0831 216.782 17.2304C216.667 17.3613 216.495 17.4267 216.266 17.4267H214.033Z" fill="#020202"/>
<path d="M227.286 17.4267C227.122 17.4267 226.983 17.3694 226.869 17.2549C226.754 17.1404 226.697 17.0013 226.697 16.8376V0.859064C226.697 0.679069 226.754 0.531801 226.869 0.41726C226.983 0.302718 227.122 0.245446 227.286 0.245446H229.446C229.626 0.245446 229.773 0.302718 229.888 0.41726C230.002 0.531801 230.059 0.679069 230.059 0.859064V6.60252L235.607 0.687251C235.672 0.605435 235.778 0.515438 235.926 0.41726C236.089 0.302718 236.302 0.245446 236.564 0.245446H238.994C239.125 0.245446 239.239 0.294536 239.337 0.392715C239.452 0.490894 239.509 0.613617 239.509 0.760885C239.509 0.875426 239.476 0.973605 239.411 1.05542L232.661 8.46791L239.877 16.5922C239.959 16.6904 240 16.7967 240 16.9113C240 17.0585 239.943 17.1813 239.828 17.2794C239.73 17.3776 239.615 17.4267 239.485 17.4267H236.956C236.678 17.4267 236.457 17.3694 236.294 17.2549C236.146 17.124 236.048 17.034 235.999 16.9849L230.059 10.4806V16.8376C230.059 17.0013 230.002 17.1404 229.888 17.2549C229.773 17.3694 229.626 17.4267 229.446 17.4267H227.286Z" fill="#020202"/>
</svg>
