<svg width="149" height="40" viewBox="0 0 149 40" fill="none" xmlns="http://www.w3.org/2000/svg">
<path d="M83.9259 13.4814C83.9259 9.18515 84 5.18515 84.2222 1.48145L72.8889 3.62959V4.66663L74 4.81478C74.8148 4.88885 75.3333 5.18515 75.6296 5.62959C75.9259 6.14811 76.1481 6.88885 76.2963 7.99996C76.4444 10.1481 76.5926 15.037 76.5185 22.7407C76.5185 30.3703 76.4444 35.1851 76.2963 37.037C80.3704 37.9259 83.5555 38.2963 85.9259 38.2963C90.3704 38.2963 93.8518 37.037 96.3704 34.4444C98.8889 31.9259 100.222 28.3703 100.222 24C100.222 20.5185 99.2592 17.6296 97.3333 15.3333C95.4074 13.037 92.963 11.9259 90.0741 11.9259C88.1481 11.9259 86.1481 12.4444 83.9259 13.4814ZM84.1481 36.2963C84 33.9259 83.8518 26.8148 83.8518 15.1851C84.5185 14.9629 85.4074 14.8148 86.5185 14.8148C88.2963 14.8148 89.7037 15.7037 90.7407 17.5555C91.7778 19.4074 92.2963 21.6296 92.2963 24.4444C92.2963 27.9259 91.7037 30.7407 90.5185 33.1111C89.3333 35.4074 87.8518 36.5926 86 36.5926C85.4074 36.4444 84.8148 36.3703 84.1481 36.2963ZM30.3704 2.22219H0.740723V3.70367L2.29628 3.85182C3.48146 4.07404 4.29628 4.51848 4.8148 5.18515C5.33332 5.92589 5.62961 7.11107 5.70369 8.7407C6.29628 16.7407 6.29628 24.2222 5.70369 31.1111C5.55554 32.7407 5.25924 33.9259 4.8148 34.6666C4.29628 35.4074 3.48146 35.8518 2.29628 36L0.740723 36.2222V37.7037H19.8518V36.2222L17.8518 36.074C16.6666 35.9259 15.8518 35.4074 15.3333 34.7407C14.8148 34 14.5185 32.8148 14.4444 31.1851C14.2222 28.2222 14.0741 24.8148 14.0741 21.037L18.0741 21.1111C20.2222 21.1851 21.7037 22.8148 22.4444 26.074H23.9259V14H22.4444C21.7037 17.1851 20.2963 18.8148 18.0741 18.8889L14.0741 18.9629C14.0741 12.2963 14.2222 7.55552 14.4444 4.66663H20.2963C24.4444 4.66663 27.2592 7.3333 28.8889 12.6666L30.6667 12.1481L30.3704 2.22219ZM26.8889 25.037C26.8889 28.8888 28 32.074 30.1481 34.5926C32.2963 37.1111 35.4815 38.2963 39.4815 38.2963C43.4815 38.2963 46.7407 37.037 49.1111 34.4444C51.4815 31.9259 52.5926 28.7407 52.5926 24.8888C52.5926 21.037 51.4815 17.8518 49.3333 15.3333C47.1852 12.8148 44 11.6296 40 11.6296C36 11.6296 32.7407 12.8889 30.3704 15.4814C28 18 26.8889 21.1851 26.8889 25.037ZM43.4074 16.5926C44.2963 18.7407 44.6666 21.5555 44.6666 24.9629C44.6666 32.8148 43.037 36.6666 39.8518 36.6666C38.2222 36.6666 36.9629 35.5555 36.0741 33.3333C35.1852 31.1111 34.8148 28.2963 34.8148 24.9629C34.8148 17.1851 36.4444 13.3333 39.6296 13.3333C41.2592 13.2592 42.5185 14.3703 43.4074 16.5926ZM106 34.5926C108.444 37.037 111.556 38.2963 115.259 38.2963C117.556 38.2963 119.556 37.8518 121.333 36.8888C123.111 36 124.519 34.8888 125.481 33.5555L124.741 32.6666C123.111 33.9259 121.259 34.5185 119.111 34.5185C116.148 34.5185 113.852 33.5555 112.296 31.5555C110.667 29.5555 109.926 27.037 110.074 23.7777H125.926C125.926 20.2222 125.037 17.3333 123.185 15.037C121.333 12.8148 118.741 11.7037 115.407 11.7037C111.259 11.7037 108.074 13.037 105.778 15.6296C103.481 18.2222 102.37 21.4074 102.37 25.1851C102.37 29.037 103.556 32.1481 106 34.5926ZM111.481 16C112.296 14.2222 113.333 13.3333 114.741 13.3333C116.963 13.3333 118.074 16.1481 118.074 21.8518L110.222 22C110.296 19.7777 110.667 17.7777 111.481 16ZM145.852 13.037C143.852 12.1481 141.333 11.6296 138.296 11.6296C135.185 11.6296 132.741 12.4444 130.889 14C129.037 15.5555 128.074 17.4814 128.074 19.7777C128.074 21.7777 128.667 23.3333 129.778 24.4444C130.889 25.5555 132.667 26.5185 134.963 27.3333C137.037 28.074 138.519 28.8148 139.259 29.4814C140 30.2222 140.444 31.037 140.444 32.1481C140.444 33.1851 140.074 34.1481 139.259 34.8888C138.519 35.7037 137.481 36.074 136.148 36.074C132.889 36.074 130.444 33.7037 128.741 28.9629L127.481 29.3333L127.778 36.7407C130.444 37.7777 133.407 38.2963 136.667 38.2963C140.074 38.2963 142.667 37.5555 144.593 36C146.519 34.5185 147.481 32.3703 147.481 29.7037C147.481 27.9259 147.037 26.4444 146.074 25.3333C145.111 24.2222 143.556 23.2592 141.333 22.3703C138.889 21.4814 137.185 20.6666 136.296 19.9259C135.407 19.1851 134.963 18.2963 134.963 17.1851C134.963 16.074 135.259 15.1851 135.926 14.4444C136.593 13.7037 137.407 13.4074 138.444 13.4074C141.407 13.4074 143.556 15.5555 144.889 19.7777L146.148 19.4074L145.852 13.037ZM74.5926 12.3703C73.5555 11.8518 72.4444 11.6296 71.1852 11.6296C69.9259 11.6296 68.6667 12.1481 67.2592 13.1851C65.8518 14.2222 64.8148 15.6296 64 17.5555L64.0741 11.6296L52.8148 13.8518V14.8889L53.9259 14.9629C55.3333 15.1111 56.1481 16.2222 56.2963 18.2222C56.7407 22.8148 56.7407 27.7037 56.2963 32.8889C56.1481 34.8889 55.3333 35.9259 53.9259 36.1481L52.8148 36.2963V37.7037H68.5185V36.2963L66.5185 36.1481C65.1111 36 64.2963 34.8889 64.1481 32.8889C63.7037 28.5926 63.6296 24 64 19.2592C64.4444 18.5185 65.4074 18.074 66.8889 17.9259C68.3704 17.7777 70.0741 18.2222 71.8518 19.2592L74.5926 12.3703Z" fill="white"/>
</svg>
