<svg width="175" height="47" viewBox="0 0 175 47" fill="none" xmlns="http://www.w3.org/2000/svg">
<g clip-path="url(#clip0_51_1367)">
<path d="M175 31.9244C174.817 31.9176 174.889 32.0604 174.878 32.1448C174.742 33.1513 174.619 34.1618 174.26 35.1193C173.913 35.9836 173.399 36.7718 172.747 37.4397C171.426 38.8891 169.629 39.8231 167.679 40.0742C165.159 40.421 162.894 39.7573 160.947 38.1184C160.051 37.3648 159.322 36.4349 158.806 35.3873C158.29 34.3397 157.997 33.197 157.947 32.0313C157.896 30.8656 158.089 29.7021 158.513 28.6142C158.937 27.5262 159.582 26.5375 160.409 25.7101C162.187 23.9637 164.33 23.0538 166.835 23.1925C169.843 23.3571 172.167 24.7553 173.817 27.2729C173.925 27.4374 173.915 27.5449 173.726 27.6428C172.796 28.1071 171.869 28.5754 170.944 29.0478C170.78 29.1321 170.702 29.0968 170.594 28.9458C169.422 27.2865 167.809 26.4976 165.791 26.7859C163.73 27.0797 162.314 28.2821 161.726 30.276C161.531 30.917 161.471 31.5911 161.549 32.2564C161.627 32.9217 161.841 33.5638 162.179 34.143C162.518 34.7222 162.972 35.2259 163.514 35.623C164.056 36.02 164.675 36.3018 165.331 36.4509C166.329 36.6799 167.374 36.6015 168.326 36.2262C169.279 35.8509 170.094 35.1964 170.663 34.3495C170.699 34.2965 170.771 34.2461 170.718 34.1741C170.665 34.102 170.574 34.1319 170.501 34.1319H166.823C166.44 34.1319 166.44 34.1319 166.44 33.7456C166.44 33.1458 166.44 32.546 166.44 31.9462C166.44 31.7259 166.507 31.6361 166.742 31.6375C169.379 31.6429 172.016 31.6429 174.653 31.6375C174.78 31.6375 174.876 31.7585 175.004 31.6932L175 31.9244Z" fill="white"/>
<path d="M28.5537 0.271973C28.4963 0.407983 28.5537 0.556235 28.5537 0.697687C28.5537 6.08553 28.5537 11.4729 28.5537 16.8599C28.5537 17.1387 28.4785 17.2339 28.1942 17.2189C27.758 17.1972 27.3192 17.204 26.8817 17.2189C26.6725 17.2189 26.6 17.1496 26.6178 16.9469C26.6287 16.8313 26.6178 16.7143 26.6178 16.5987V0.728969C26.6178 0.576637 26.6178 0.424305 26.6178 0.271973H28.5537Z" fill="#F4AA07"/>
<path d="M36.0855 0.271973V0.98875C36.0855 6.29045 36.0855 11.5949 36.0855 16.902C36.0855 17.1387 36.0268 17.2352 35.7766 17.2244C35.3582 17.208 34.9398 17.2162 34.5215 17.2244C34.3232 17.2244 34.2289 17.155 34.248 16.9523C34.2549 16.8558 34.248 16.7592 34.248 16.6626C34.248 11.3591 34.248 6.0547 34.248 0.749371C34.2457 0.586217 34.275 0.424144 34.3342 0.271973H36.0855Z" fill="#F4AA07"/>
<path d="M32.1152 0.272042C32.2027 0.37479 32.246 0.507726 32.2356 0.641991C32.2356 6.07064 32.2356 11.4988 32.2356 16.9266C32.2356 17.1401 32.1727 17.2231 31.9539 17.2176C31.5356 17.2067 31.1172 17.2081 30.6988 17.2176C30.5238 17.2176 30.4446 17.1564 30.4528 16.9823C30.4528 16.9143 30.4528 16.8463 30.4528 16.7797C30.4528 11.4762 30.4528 6.17174 30.4528 0.866409C30.4528 0.666473 30.4678 0.466537 30.476 0.266602L32.1152 0.272042Z" fill="#F4AA07"/>
<path d="M67.1453 31.6975C67.1453 29.0848 67.1453 26.472 67.1453 23.8579C67.1453 23.5859 67.2233 23.4961 67.5063 23.4961C70.1737 23.507 72.8383 23.4961 75.5057 23.5083C76.4313 23.4974 77.3479 23.6907 78.1895 24.0741C79.4487 24.6712 80.042 25.7063 80.1391 27.0501C80.1897 27.7451 80.1719 28.4455 79.8752 29.1025C79.5493 29.8013 79.0127 30.3817 78.3399 30.7632C78.262 30.8108 78.1321 30.8257 78.1362 30.9454C78.1403 31.0651 78.2729 31.061 78.359 31.0909C79.1025 31.3558 79.7474 31.8395 80.208 32.4777C80.6685 33.1159 80.923 33.8784 80.9375 34.6639C80.9567 35.4691 80.9471 36.2689 80.6026 37.0265C80.0885 38.1567 79.2122 38.8939 78.0774 39.3495C77.1633 39.7062 76.1881 39.8827 75.2063 39.8691C72.6948 39.8596 70.1846 39.8691 67.6744 39.8691C67.0879 39.8691 67.1535 39.9153 67.1549 39.3672C67.1531 36.8093 67.1499 34.2527 67.1453 31.6975ZM73.042 37.0537C73.4699 37.0537 73.8992 37.0537 74.3272 37.0537C74.786 37.0623 75.2445 37.0213 75.6944 36.9312C76.4969 36.7422 77.0739 36.311 77.2543 35.4746C77.3421 35.0371 77.3319 34.5857 77.2243 34.1525C77.1624 33.8635 77.0304 33.5939 76.8397 33.3673C76.6491 33.1406 76.4056 32.9638 76.1305 32.8523C75.5918 32.6075 75.0176 32.5898 74.4461 32.5803C73.3278 32.5639 72.208 32.5803 71.0883 32.5694C70.8367 32.5694 70.7752 32.6578 70.778 32.8917C70.7862 34.1797 70.7875 35.4664 70.778 36.7544C70.778 37.0088 70.8682 37.0632 71.1006 37.0591C71.7377 37.0455 72.3899 37.055 73.042 37.0537ZM70.7697 28.2129V29.437C70.7697 30.1253 70.7698 30.1321 71.4643 30.1239C72.6305 30.1103 73.7981 30.1797 74.9629 30.0613C75.4016 30.0184 75.8139 29.833 76.136 29.5336C76.594 29.1174 76.6309 28.5734 76.6159 28.0103C76.6177 27.7233 76.5384 27.4416 76.3871 27.1973C76.2358 26.953 76.0185 26.7559 75.76 26.6284C75.1803 26.3074 74.5295 26.336 73.9102 26.3129C72.9531 26.2775 72.0043 26.3129 71.05 26.2993C70.8272 26.2993 70.7629 26.3836 70.7656 26.5917C70.7752 27.1303 70.7697 27.673 70.7697 28.2143V28.2129Z" fill="white"/>
<path d="M34.2726 20.7593C31.7625 20.7593 29.2523 20.7593 26.7422 20.7661C26.4414 20.7661 26.3484 20.6791 26.3648 20.388C26.3867 19.9922 26.3826 19.5937 26.3648 19.1979C26.3525 18.9381 26.451 18.8701 26.7025 18.8701C30.3137 18.8765 33.924 18.8765 37.5334 18.8701C38.6517 18.8701 39.7701 18.8769 40.8898 18.8701C43.2851 18.8511 45.5383 19.3883 47.6178 20.5784C49.2423 21.5075 50.6523 22.7661 51.7562 24.2725C52.5042 25.2745 53.1127 26.3725 53.565 27.5367C54.4154 29.751 54.7517 32.0332 54.425 34.3971C54.0367 37.2248 52.8103 39.6594 50.9332 41.792C49.3879 43.5604 47.4291 44.9234 45.2293 45.7608C43.3292 46.4982 41.2835 46.7886 39.2519 46.6095C37.2401 46.455 35.28 45.9 33.4879 44.9774C32.0671 44.2468 30.7921 43.2646 29.7254 42.079C28.4706 40.6962 27.5421 39.0522 27.0074 37.2669C26.6365 35.9725 26.4609 34.6303 26.4865 33.2845C26.4865 32.1815 26.4934 31.0784 26.4865 29.9754C26.4865 29.7034 26.5453 29.5891 26.8447 29.6068C27.2819 29.6306 27.7201 29.6306 28.1572 29.6068C28.4307 29.5946 28.5045 29.702 28.5018 29.9618C28.4895 30.9873 28.5018 32.0142 28.4949 33.0397C28.484 34.4107 28.5988 35.7599 29.05 37.0711C29.966 39.7179 31.6723 41.7159 34.0949 43.1181C36.1758 44.3218 38.4371 44.8387 40.8283 44.7707C43.0101 44.7047 45.1262 44.0127 46.9219 42.7781C49.2034 41.2769 50.936 39.0823 51.8615 36.5216C52.2909 35.3682 52.522 34.1511 52.5451 32.9214C52.564 31.8858 52.4478 30.852 52.1992 29.8462C51.7279 27.891 50.7852 26.0793 49.4525 24.5676C48.2127 23.1392 46.6261 22.0501 44.8437 21.404C43.7687 20.9993 42.6311 20.7835 41.4818 20.7661C39.0783 20.7579 36.6748 20.7661 34.2713 20.7661L34.2726 20.7593Z" fill="#F4AA07"/>
<path d="M141.946 31.6634C141.946 29.0316 141.946 26.3985 141.946 23.7667C141.946 23.515 142.01 23.4334 142.272 23.4361C143.457 23.4497 144.642 23.4497 145.827 23.4361C145.927 23.4299 146.027 23.451 146.115 23.4973C146.204 23.5436 146.278 23.6132 146.33 23.6986C148.602 26.8722 150.878 30.0458 153.158 33.2194C153.207 33.2888 153.249 33.403 153.345 33.3785C153.471 33.3459 153.418 33.2153 153.418 33.1283C153.418 30.0209 153.418 26.9139 153.418 23.8075C153.418 23.4429 153.418 23.4429 153.794 23.4429C154.614 23.4429 155.434 23.4429 156.245 23.4429C156.465 23.4429 156.548 23.496 156.548 23.7367C156.542 29.0212 156.542 34.3052 156.548 39.5888C156.548 39.8431 156.456 39.8989 156.224 39.8962C155.404 39.8867 154.57 39.8839 153.744 39.8962C153.644 39.9047 153.544 39.8856 153.454 39.841C153.364 39.7964 153.288 39.7279 153.234 39.6432C151.776 37.6021 150.31 35.5647 148.838 33.5309L145.05 28.2686C145.001 28.2006 144.959 28.0932 144.858 28.1326C144.756 28.172 144.814 28.2686 144.814 28.3393C144.814 32.066 144.814 35.7923 144.814 39.5181C144.814 39.8975 144.814 39.8962 144.427 39.8962C143.706 39.8962 142.986 39.8853 142.267 39.903C142.004 39.903 141.937 39.8227 141.939 39.5711C141.948 36.9284 141.946 34.2966 141.946 31.6634Z" fill="white"/>
<path d="M125.824 11.697C125.642 7.31881 129.57 3.16233 134.379 3.17729C139.083 3.19225 143.006 7.05903 142.993 11.8072C142.978 16.4098 138.957 20.4833 133.98 20.2847C129.771 20.1201 125.605 16.3214 125.824 11.697ZM129.276 11.7337C129.196 14.4539 131.574 16.7661 134.233 16.8314C137.104 16.9008 139.549 14.5192 139.512 11.682C139.478 8.9523 137.175 6.6782 134.415 6.6374C131.575 6.5966 129.19 9.07879 129.276 11.7364V11.7337Z" fill="white"/>
<path d="M83.3984 31.7054C83.3984 29.0927 83.3984 26.4799 83.3984 23.8671C83.3984 23.5951 83.4682 23.4958 83.7566 23.4958C86.2764 23.5067 88.7974 23.4754 91.3158 23.5121C92.9933 23.5352 94.4603 24.1106 95.5377 25.4544C96.1187 26.1779 96.399 27.0307 96.5152 27.9338C96.6694 29.0028 96.5222 30.0933 96.09 31.0838C95.8235 31.7207 95.4148 32.2888 94.8948 32.7453C94.3749 33.2017 93.7574 33.5345 93.089 33.7184C92.7978 33.8041 92.8416 33.8884 92.9769 34.0802C94.2721 35.9163 95.5637 37.7552 96.8515 39.5968C96.9035 39.6729 97.0197 39.7328 96.9527 39.8429C96.9021 39.9245 96.7914 39.8865 96.708 39.8865C95.5404 39.8865 94.3728 39.8865 93.2053 39.8865C93.1144 39.8936 93.0234 39.8755 92.9423 39.8342C92.8612 39.7929 92.7932 39.73 92.7459 39.6525C91.5154 37.8844 90.2562 36.1162 89.0244 34.3481C88.8426 34.0842 88.6512 33.9714 88.3326 33.9999C88.014 34.0234 87.6942 34.0234 87.3756 33.9999C87.1199 33.9836 87.042 34.0679 87.0433 34.325C87.0543 36.0578 87.0434 37.7892 87.0557 39.522C87.0557 39.794 86.99 39.8946 86.6988 39.8905C85.7172 39.8742 84.7342 39.8756 83.7512 39.8905C83.4777 39.8905 83.4025 39.8103 83.4039 39.541C83.3984 36.931 83.3984 34.3182 83.3984 31.7054ZM87.0242 28.7431C87.0242 29.3824 87.0242 30.0202 87.0242 30.6595C87.0242 31.2987 86.9545 31.2144 87.5875 31.2035C88.6279 31.1927 89.6697 31.2607 90.7074 31.1655C91.4006 31.1029 92.065 30.9247 92.4984 30.3276C93.141 29.4436 93.1246 28.4697 92.7199 27.5163C92.3685 26.6934 91.6056 26.4282 90.7689 26.3629C89.615 26.2759 88.457 26.3044 87.3004 26.2935C87.0707 26.2935 87.0269 26.3942 87.0269 26.5928C87.0228 27.3123 87.0201 28.0277 87.0215 28.7431H87.0242Z" fill="white"/>
<path d="M75.7422 14.2034C75.6745 14.3087 75.65 14.4358 75.6738 14.5584C75.6738 16.3388 75.667 18.1192 75.6738 19.8996C75.6738 20.1716 75.6027 20.2668 75.3142 20.2614C74.3805 20.2437 73.4467 20.2464 72.5129 20.2614C72.249 20.2614 72.1848 20.1757 72.1848 19.9268C72.1902 14.461 72.1902 8.99377 72.1848 3.52523C72.1848 3.27905 72.2572 3.18248 72.5183 3.18384C74.4447 3.19201 76.3711 3.16344 78.2974 3.19473C79.6659 3.21636 80.9859 3.70154 82.0398 4.57017C83.0937 5.4388 83.8183 6.63896 84.0941 7.97252C84.3698 9.30609 84.1803 10.6933 83.5567 11.9053C82.9331 13.1172 81.9127 14.0814 80.6641 14.6387C80.4467 14.7366 80.4139 14.8291 80.556 15.0277C81.7182 16.6725 82.8762 18.3196 84.0301 19.9689C84.0779 20.0369 84.1818 20.0941 84.134 20.192C84.0861 20.2899 83.9603 20.2532 83.8701 20.2532C82.7025 20.2532 81.535 20.2532 80.3674 20.2614C80.2484 20.2717 80.1289 20.2483 80.0226 20.1939C79.9164 20.1395 79.8279 20.0563 79.7672 19.954C78.8019 18.5612 77.8258 17.1766 76.8523 15.7893L75.7422 14.2034ZM75.6724 9.19416C75.6724 9.94902 75.6724 10.7039 75.6724 11.4587C75.6724 11.6587 75.7299 11.7308 75.9377 11.7308C76.6669 11.7199 77.396 11.7199 78.1252 11.7308C78.4755 11.7425 78.8244 11.6797 79.1484 11.5465C79.4723 11.4132 79.764 11.2127 80.0037 10.9582C80.731 10.2115 80.9607 9.1996 80.5902 8.29105C80.4066 7.81398 80.0827 7.40306 79.6608 7.1119C79.2388 6.82075 78.7385 6.66289 78.225 6.65892C77.4662 6.65892 76.7074 6.65892 75.9486 6.65892C75.7258 6.65892 75.667 6.73509 75.6752 6.9459C75.6725 7.68444 75.6656 8.4393 75.6656 9.19416H75.6724Z" fill="white"/>
<path d="M106.382 31.6333C106.382 29.0205 106.382 26.4078 106.382 23.795C106.382 23.523 106.445 23.4346 106.735 23.4346C110.51 23.4455 114.285 23.4455 118.059 23.4346C118.362 23.4346 118.438 23.5148 118.431 23.8072C118.411 24.5907 118.418 25.3754 118.431 26.1589C118.431 26.3942 118.371 26.4758 118.121 26.4744C115.523 26.4649 112.926 26.4744 110.328 26.4676C109.953 26.4676 109.953 26.4676 109.953 26.8335C109.953 27.8209 109.953 28.8084 109.953 29.7944C109.953 30.0461 110.027 30.129 110.287 30.1277C112.554 30.1181 114.821 30.1277 117.087 30.1154C117.361 30.1154 117.446 30.1889 117.441 30.4595C117.426 31.3205 117.428 32.1828 117.441 33.0437C117.441 33.2858 117.363 33.3579 117.121 33.3566C114.845 33.3484 112.569 33.3566 110.292 33.3457C110.042 33.3457 109.949 33.4055 109.953 33.668C109.969 34.6065 109.969 35.545 109.953 36.4834C109.953 36.7419 110.033 36.8112 110.288 36.8112C113.148 36.8017 116.009 36.8112 118.869 36.7976C119.172 36.7976 119.247 36.8888 119.241 37.1771C119.221 37.9415 119.224 38.7059 119.241 39.4702C119.241 39.7423 119.179 39.8388 118.884 39.8388C114.828 39.8289 110.772 39.8289 106.716 39.8388C106.442 39.8388 106.396 39.7409 106.397 39.5015C106.392 36.8783 106.387 34.2556 106.382 31.6333Z" fill="white"/>
<path d="M100.097 11.7257V3.56502C100.097 3.18555 100.097 3.18555 100.486 3.18555C102.296 3.18555 104.105 3.18555 105.915 3.18555C107.449 3.18555 108.836 3.60446 110 4.61774C111.094 5.56982 111.837 6.73135 112.051 8.19074C112.357 10.3261 111.757 12.15 110.15 13.6162C109.186 14.5182 107.936 15.0582 106.615 15.1436C105.7 15.2103 104.787 15.1667 103.88 15.1735C103.648 15.1735 103.581 15.2429 103.582 15.4714C103.592 16.9526 103.582 18.4324 103.593 19.9135C103.593 20.1855 103.522 20.2644 103.247 20.2603C102.313 20.244 101.379 20.244 100.446 20.2603C100.172 20.2603 100.103 20.1719 100.103 19.9108C100.104 17.1833 100.102 14.4549 100.097 11.7257ZM103.577 9.1877C103.577 9.93168 103.586 10.6838 103.577 11.421C103.577 11.6685 103.655 11.7325 103.893 11.727C104.621 11.7134 105.351 11.7053 106.08 11.727C107.311 11.7637 108.384 10.7287 108.598 9.74399C108.935 8.19754 107.759 6.6715 106.165 6.65246C105.397 6.64294 104.628 6.65246 103.861 6.65246C103.644 6.65246 103.574 6.71639 103.577 6.93264C103.582 7.67934 103.577 8.43284 103.577 9.1877Z" fill="white"/>
<path d="M33.8352 24.1881C31.4699 24.1881 29.1061 24.1881 26.7408 24.1881C26.4578 24.1881 26.3662 24.1105 26.3813 23.8304C26.4031 23.406 26.3922 22.9789 26.3813 22.5532C26.3813 22.3669 26.4455 22.2812 26.6369 22.2962C26.6943 22.2962 26.7531 22.2962 26.8119 22.2962C31.1815 22.2962 35.551 22.2962 39.9205 22.2962C41.1686 22.2726 42.4131 22.4368 43.6119 22.7831C45.353 23.306 46.9207 24.285 48.151 25.6175C49.2482 26.7924 50.0515 28.208 50.4957 29.7496C51.0426 31.6129 51.1014 33.4844 50.5066 35.3518C49.6029 38.1877 47.8502 40.3842 45.3441 41.9715C43.8676 42.9072 42.2406 43.4458 40.4688 43.4458C38.8674 43.4515 37.2882 43.0741 35.8641 42.3455C33.3594 41.0752 31.582 39.1343 30.6387 36.4848C30.3226 35.5778 30.1699 34.6224 30.1875 33.6626C30.1984 32.4235 30.1875 31.1845 30.1875 29.9454C30.1875 29.6992 30.2531 29.5986 30.5184 29.6095C30.9641 29.6299 31.4139 29.6271 31.8609 29.6095C32.1111 29.5999 32.1781 29.6965 32.1754 29.9304C32.1672 31.0185 32.1891 32.1066 32.1754 33.1825C32.1344 35.1873 32.699 36.9908 34.0047 38.5236C35.4936 40.2768 37.3748 41.3214 39.6936 41.5363C42.0465 41.7539 43.9893 40.8562 45.6832 39.3247C46.9312 38.2039 47.8753 36.7885 48.4285 35.209C48.9538 33.7207 49.0186 32.1099 48.6145 30.5847C48.2274 28.9652 47.3639 27.4973 46.1344 26.3683C44.9572 25.2819 43.482 24.568 41.8961 24.3173C41.2417 24.2218 40.5804 24.1804 39.9191 24.1935L33.8352 24.1881Z" fill="#F4AA07"/>
<path d="M65.0029 20.2655C62.2344 20.29 60.1262 19.2387 58.4062 17.3372C57.4228 16.2801 56.7573 14.9696 56.4853 13.5548C56.1299 11.6506 56.2734 9.76551 57.1525 7.99057C57.4805 7.33093 57.8977 6.71909 58.3926 6.1721C59.5027 4.93577 60.8111 3.99593 62.4312 3.54437C63.864 3.12743 65.381 3.08806 66.8336 3.43013C68.2671 3.76577 69.5916 4.45738 70.6836 5.44037C70.9844 5.71239 70.9803 5.71239 70.7 5.98441C70.0396 6.64134 69.3752 7.29419 68.723 7.95793C68.5713 8.11162 68.4756 8.10618 68.3129 7.96609C67.0469 6.85488 65.5894 6.45637 63.9105 6.73247C61.9664 7.05209 60.0728 8.8556 59.8021 11.0848C59.4385 14.0771 61.6752 16.4776 64.2154 16.7714C65.7959 16.9537 67.174 16.5293 68.3498 15.463C68.4797 15.346 68.5658 15.3433 68.6889 15.463C69.3943 16.1703 70.1012 16.8775 70.8162 17.5753C70.9898 17.7453 70.8887 17.8269 70.7629 17.9438C69.2986 19.338 67.0824 20.3567 65.0029 20.2655Z" fill="white"/>
<path d="M121.354 31.6632C121.354 29.0409 121.354 26.4173 121.354 23.795C121.354 23.523 121.424 23.4346 121.711 23.4346C125.496 23.4455 129.282 23.4455 133.067 23.4346C133.34 23.4346 133.417 23.5094 133.413 23.776C133.396 24.5703 133.399 25.3632 133.413 26.1575C133.413 26.3928 133.351 26.4744 133.1 26.4731C130.502 26.4635 127.904 26.4731 125.307 26.4663C124.94 26.4663 124.94 26.4663 124.94 26.8416C124.94 27.8196 124.947 28.7961 124.94 29.774C124.94 30.0352 125.009 30.1277 125.286 30.1277C127.544 30.1168 129.798 30.1277 132.059 30.1141C132.345 30.1141 132.433 30.1984 132.427 30.4759C132.415 31.3173 132.415 32.1592 132.427 33.0016C132.427 33.2614 132.357 33.3579 132.081 33.3566C129.823 33.3457 127.57 33.3566 125.308 33.3443C125.035 33.3443 124.938 33.4028 124.939 33.6952C124.951 35.6402 124.939 37.5851 124.953 39.5314C124.953 39.813 124.86 39.8728 124.601 39.8688C123.644 39.8565 122.674 39.8538 121.711 39.8688C121.438 39.8688 121.363 39.8008 121.364 39.5301C121.358 36.9092 121.354 34.2869 121.354 31.6632Z" fill="white"/>
<path d="M17.984 22.6648H23.4705C23.8533 22.6648 23.8533 22.6648 23.8533 23.0579C23.8533 23.4836 23.8465 23.9107 23.8533 24.3364C23.8533 24.5622 23.7973 24.6628 23.5402 24.6628C20.0771 24.6547 16.6127 24.6628 13.1496 24.6547C10.943 24.6547 9.00292 23.8957 7.29941 22.522C5.54519 21.13 4.26715 19.2319 3.64082 17.0884C3.01345 15.0139 3.10493 12.7899 3.90058 10.7734C4.53423 9.08985 5.55929 7.57933 6.89199 6.36528C8.40683 4.97389 10.1637 4.05309 12.224 3.78107C12.6196 3.73436 13.0179 3.71346 13.4162 3.71851C16.7932 3.71851 20.1687 3.71851 23.5443 3.70898C23.8451 3.70898 23.9353 3.79603 23.9189 4.08845C23.8943 4.49649 23.9189 4.91948 23.9121 5.33567C23.9121 5.69746 23.8957 5.71378 23.5334 5.71378H14.257C13.8195 5.71378 13.382 5.71378 12.9445 5.72467C11.349 5.77091 9.95039 6.3612 8.70624 7.31735C6.96872 8.62705 5.76047 10.5128 5.30058 12.6327C4.95264 14.1646 5.0853 15.7658 5.68066 17.2203C6.50917 19.3054 7.90917 20.9008 9.93398 21.9181C10.9169 22.4162 12.0055 22.6727 13.1086 22.6662C14.7342 22.6621 16.3584 22.6662 17.984 22.6648Z" fill="#F4AA07"/>
<path d="M90.7389 16.4165C90.7389 15.391 90.7156 14.3654 90.7485 13.3413C90.7576 12.8689 90.6335 12.4033 90.3903 11.9975C89.1311 9.71115 87.8856 7.41801 86.6346 5.12758C86.3283 4.56722 86.0275 4.00549 85.7049 3.45465C85.5682 3.22887 85.6502 3.18263 85.8635 3.18263C86.9914 3.18263 88.1207 3.18263 89.2486 3.18263C89.33 3.17629 89.4113 3.19544 89.4812 3.23739C89.5511 3.27935 89.606 3.342 89.6383 3.41657C90.4586 4.93717 91.2967 6.45369 92.128 7.97021C92.1895 8.08038 92.2537 8.18783 92.3084 8.30208C92.3412 8.3728 92.3645 8.45713 92.4575 8.45849C92.5504 8.45985 92.5682 8.36056 92.6024 8.29664C93.0973 7.39715 93.5904 6.49767 94.0817 5.59818C94.4754 4.87279 94.8687 4.15012 95.2616 3.43017C95.2947 3.35079 95.3522 3.28386 95.4259 3.23892C95.4995 3.19398 95.5856 3.17333 95.6717 3.17991C96.7901 3.19215 97.9084 3.17991 99.0268 3.17991C99.3358 3.17991 99.3467 3.20439 99.2073 3.46009C97.995 5.67888 96.7814 7.89495 95.5664 10.1083C95.144 10.8808 94.727 11.6547 94.295 12.4205C94.2165 12.5642 94.1783 12.7263 94.1842 12.8897C94.1842 15.2318 94.1842 17.5726 94.191 19.9147C94.191 20.1785 94.1268 20.2642 93.852 20.2602C92.9177 20.2438 91.9839 20.2438 91.0506 20.2602C90.7854 20.2602 90.7252 20.1772 90.728 19.9283C90.7457 18.7586 90.7389 17.5875 90.7389 16.4165Z" fill="white"/>
<path d="M121.166 13.4856C121.166 15.6346 121.166 17.7822 121.166 19.9312C121.166 20.1855 121.099 20.2657 120.839 20.2617C119.906 20.2472 118.971 20.2472 118.036 20.2617C117.749 20.2617 117.651 20.1937 117.652 19.8904C117.661 15.6033 117.661 11.3158 117.652 7.02782C117.652 6.64699 117.652 6.64835 117.271 6.64835C116.084 6.64835 114.897 6.64835 113.709 6.64835C113.467 6.64835 113.389 6.57626 113.392 6.33416C113.404 5.38481 113.404 4.43636 113.392 3.48882C113.392 3.24128 113.477 3.17871 113.713 3.17871C117.498 3.18415 121.284 3.18415 125.069 3.17871C125.33 3.17871 125.427 3.24264 125.422 3.5201C125.404 4.4486 125.404 5.37801 125.422 6.30832C125.422 6.5885 125.325 6.64971 125.066 6.64835C123.88 6.63747 122.693 6.64835 121.512 6.63747C121.223 6.63747 121.151 6.73131 121.152 7.00469C121.17 9.16863 121.166 11.3271 121.166 13.4856Z" fill="white"/>
<path d="M33.5795 27.269H26.7203C26.3758 27.269 26.3649 27.2472 26.3731 26.9072C26.3813 26.5114 26.3731 26.1143 26.3731 25.7185C26.3662 25.4941 26.4291 25.3853 26.6848 25.3853C31.2184 25.3921 35.7533 25.3853 40.2869 25.3961C42.2803 25.4029 43.869 26.3088 45.1787 27.745C45.9913 28.625 46.5982 29.6728 46.9561 30.8134C47.3164 31.925 47.3439 33.1168 47.0354 34.2436C46.5663 36.0403 45.4639 37.6096 43.9291 38.6653C42.4594 39.7004 40.827 40.0037 39.0729 39.6786C37.6028 39.4329 36.2507 38.7251 35.2147 37.6589C34.1565 36.564 33.5508 35.2651 33.5385 33.7281C33.5289 32.432 33.5385 31.1344 33.5317 29.8382C33.5317 29.6247 33.5959 29.5458 33.816 29.5513C34.2727 29.5649 34.7307 29.5703 35.1832 29.5513C35.4567 29.539 35.5414 29.6274 35.5387 29.8967C35.5264 31.0664 35.5688 32.2388 35.525 33.4085C35.4416 35.65 37.0918 37.1991 38.861 37.6997C39.7565 37.954 40.6574 38.0465 41.5598 37.7595C43.0172 37.2943 44.0139 36.296 44.677 34.9631C45.7297 32.8468 45.2375 30.9236 43.8567 29.1446C43.2641 28.3545 42.4418 27.7648 41.501 27.4553C41.0929 27.3271 40.667 27.2637 40.2391 27.2676L33.5795 27.269Z" fill="#F4AA07"/>
<path d="M18.0728 21.166C16.4322 21.166 14.7875 21.166 13.1387 21.166C11.5459 21.166 10.2006 20.5717 9.07538 19.4782C7.71913 18.1575 6.96581 16.5485 6.88788 14.6525C6.78671 11.9948 7.82714 9.89212 10.0734 8.42728C10.9118 7.86751 11.8966 7.56398 12.9062 7.55409C16.4787 7.53233 20.0498 7.54185 23.6209 7.53369C23.8574 7.53369 23.923 7.6221 23.9162 7.8438C23.9039 8.28855 23.8984 8.73467 23.9162 9.17942C23.9299 9.46368 23.8219 9.54393 23.5443 9.54393C20.1264 9.53577 16.7084 9.54393 13.2904 9.53305C12.0764 9.53305 11.0318 9.91932 10.1883 10.7762C8.90038 12.105 8.51074 13.7004 8.88671 15.4835C9.15195 16.7294 9.78632 17.7644 10.8609 18.4975C11.4246 18.9034 12.0961 19.1347 12.7914 19.1626C13.8223 19.1844 14.8545 19.1776 15.8853 19.1789H23.476C23.8451 19.1789 23.852 19.1871 23.8533 19.5543C23.8533 19.9705 23.8396 20.3881 23.8533 20.8029C23.8643 21.0749 23.7959 21.1769 23.4978 21.1742C21.6932 21.1592 19.883 21.166 18.0728 21.166Z" fill="#F4AA07"/>
<path d="M103.678 31.6903C103.678 34.3126 103.678 36.9353 103.678 39.5585C103.678 39.7775 103.63 39.8714 103.389 39.8686C102.368 39.8587 101.346 39.8587 100.326 39.8686C100.095 39.8686 100.028 39.7911 100.028 39.564C100.035 34.3194 100.035 29.0744 100.028 23.8289C100.028 23.5746 100.108 23.493 100.364 23.4957C101.355 23.5066 102.348 23.5093 103.34 23.4957C103.623 23.4957 103.679 23.599 103.679 23.8547C103.675 26.4661 103.678 29.0789 103.678 31.6903Z" fill="white"/>
<path d="M139.136 31.6903C139.136 34.3126 139.136 36.9349 139.136 39.5572C139.136 39.8075 139.051 39.87 138.816 39.8687C137.804 39.8587 136.793 39.8587 135.781 39.8687C135.55 39.8687 135.483 39.7911 135.484 39.564C135.49 34.3194 135.49 29.0748 135.484 23.8303C135.484 23.5759 135.562 23.4929 135.818 23.4957C136.81 23.5079 137.803 23.5093 138.795 23.4957C139.078 23.4957 139.135 23.5977 139.135 23.8534C139.132 26.4661 139.136 29.0789 139.136 31.6903Z" fill="white"/>
<path d="M4.48575 3.8084C4.83439 3.65062 5.08048 3.3582 5.37306 3.12834C6.58838 2.16336 7.96979 1.426 9.45001 0.95217C10.8797 0.519912 12.3678 0.308897 13.8619 0.32652C17.0639 0.32652 20.2658 0.32652 23.4678 0.318359C23.7727 0.318359 23.852 0.402686 23.8328 0.692389C23.8082 1.0773 23.8328 1.46629 23.8328 1.85392C23.8328 2.19123 23.8151 2.20211 23.4883 2.15587C23.3916 2.14497 23.2943 2.14088 23.1971 2.14362C19.9569 2.14362 16.7166 2.12458 13.4764 2.15043C11.8139 2.16267 10.1951 2.46053 8.67892 3.17187C6.32082 4.29586 4.39934 6.1596 3.21017 8.47629C2.70761 9.44407 2.33528 10.4734 2.10275 11.5379C1.94503 12.2535 1.8535 12.9819 1.82931 13.7141C1.79571 14.5679 1.84148 15.4229 1.96603 16.2683C2.09646 17.1698 2.32616 18.0542 2.65099 18.9056C2.98688 19.7693 3.42325 20.591 3.95118 21.3538C4.91712 22.7759 6.19407 23.9621 7.68634 24.8234C8.67008 25.3922 9.74053 25.7974 10.8555 26.023C11.673 26.1894 12.5052 26.2732 13.3397 26.2733C16.6373 26.2806 19.9359 26.2806 23.2354 26.2733C23.7686 26.2733 23.7686 26.2733 23.7686 26.8173C23.7686 27.1275 23.7522 27.4376 23.7686 27.7463C23.7863 28.0183 23.6934 28.0931 23.4227 28.0918C21.3719 28.0822 19.3211 28.0918 17.2621 28.0918C16.1533 28.0918 15.0432 28.0918 13.9344 28.0918C12.3088 28.0918 10.6955 27.9694 9.13966 27.4552C8.07079 27.0991 7.05462 26.6024 6.11818 25.9782C3.4055 24.16 1.4501 21.4224 0.616612 18.2759C0.385713 17.4202 0.227924 16.5466 0.144932 15.6645C0.092979 15.0375 0.0164165 14.4172 0.0615337 13.7889C0.119147 12.9242 0.235625 12.0645 0.410167 11.2155C0.659926 10.0376 1.05675 8.89529 1.59142 7.81528C2.08227 6.80503 2.70068 5.8612 3.43165 5.00665C3.69825 4.69927 3.97169 4.39732 4.26564 4.11578C4.32169 4.06274 4.38458 4.01105 4.36818 3.91993L4.48575 3.8084Z" fill="#F4AA07"/>
</g>
<defs>
<clipPath id="clip0_51_1367">
<rect width="175" height="46.6667" fill="white"/>
</clipPath>
</defs>
</svg>
