<svg width="264" height="19" viewBox="0 0 264 19" fill="none" xmlns="http://www.w3.org/2000/svg">
<path d="M17.0055 4.7958L14.9135 5.67666C14.7503 5.14651 14.5301 4.66122 14.2528 4.22079C13.9837 3.78036 13.6574 3.40518 13.2741 3.09525C12.8989 2.77716 12.4707 2.53248 11.9895 2.3612C11.5083 2.18176 10.9822 2.09205 10.4113 2.09205C9.79958 2.09205 9.23681 2.194 8.72297 2.3979C8.21729 2.59365 7.76055 2.86688 7.35275 3.21759C6.95309 3.5683 6.60238 3.97611 6.30061 4.44101C5.99883 4.90591 5.74599 5.40343 5.54209 5.93358C5.33818 6.45557 5.18729 6.99795 5.08942 7.56073C4.99155 8.1235 4.94261 8.67404 4.94261 9.21234C4.94261 10.0687 5.04048 10.921 5.23623 11.7693C5.44013 12.6175 5.75822 13.3801 6.1905 14.0571C6.63093 14.734 7.19778 15.2846 7.89105 15.7087C8.58432 16.1247 9.4244 16.3326 10.4113 16.3326C10.9333 16.3326 11.4267 16.247 11.8916 16.0757C12.3565 15.8963 12.7766 15.6557 13.1517 15.3539C13.5351 15.044 13.8695 14.681 14.155 14.2651C14.4404 13.8491 14.6688 13.4005 14.8401 12.9193L16.9566 13.7635C16.6466 14.5383 16.2225 15.2193 15.6842 15.8066C15.1459 16.3857 14.5301 16.8669 13.8369 17.2502C13.1517 17.6335 12.4136 17.919 11.6225 18.1066C10.8395 18.3023 10.0483 18.4002 9.24904 18.4002C8.38449 18.4002 7.55257 18.2942 6.75327 18.0821C5.96213 17.8701 5.224 17.5683 4.53888 17.1768C3.85377 16.7853 3.22982 16.3122 2.66705 15.7576C2.11244 15.203 1.6353 14.5872 1.23565 13.9103C0.844159 13.2333 0.538304 12.4993 0.318089 11.7081C0.10603 10.9088 0 10.0769 0 9.21234C0 8.34779 0.10603 7.51995 0.318089 6.7288C0.538304 5.9295 0.844159 5.19137 1.23565 4.51441C1.6353 3.8293 2.11244 3.20943 2.66705 2.65482C3.22982 2.1002 3.85377 1.62715 4.53888 1.23565C5.224 0.844159 5.96213 0.542382 6.75327 0.330323C7.55257 0.118264 8.38449 0.0122342 9.24904 0.0122342C10.081 0.0122342 10.8925 0.110108 11.6836 0.305855C12.4829 0.501602 13.2252 0.7993 13.9103 1.19895C14.5954 1.59044 15.203 2.08797 15.7332 2.69152C16.2715 3.28692 16.6956 3.98834 17.0055 4.7958Z" fill="#FCBB44"/>
<path d="M25.703 18.0454H20.8461V0.428196H29.5079C30.3235 0.428196 31.1106 0.52607 31.8691 0.721817C32.6276 0.909408 33.2964 1.21118 33.8755 1.62715C34.4627 2.03495 34.9276 2.5651 35.2702 3.21759C35.6209 3.87008 35.7962 4.66122 35.7962 5.59102C35.7962 6.31692 35.6413 7.00203 35.3313 7.64637C35.0296 8.28254 34.6218 8.85347 34.1079 9.35915C33.6022 9.85668 33.0191 10.2726 32.3584 10.607C31.6978 10.9333 31.0127 11.1494 30.3031 11.2555C30.6212 11.7938 30.9515 12.3035 31.2941 12.7847C31.6448 13.2659 31.9955 13.7186 32.3462 14.1427C32.7051 14.5587 33.0599 14.9461 33.4106 15.305C33.7613 15.6557 34.0957 15.9778 34.4138 16.2715C35.1642 16.9566 35.9064 17.5479 36.6404 18.0454H30.5845C30.0951 17.5805 29.6302 17.0218 29.1898 16.3693C28.8146 15.8147 28.4353 15.1296 28.052 14.314C27.6768 13.4902 27.3873 12.54 27.1834 11.4634H25.703V18.0454ZM30.8659 5.59102C30.8659 4.40838 30.5763 3.53976 29.9972 2.98514C29.4263 2.43052 28.5658 2.15322 27.4158 2.15322H25.703V9.79958H27.4158C28.0275 9.79958 28.5495 9.6854 28.9818 9.45702C29.4222 9.2205 29.7811 8.91056 30.0584 8.52723C30.3357 8.13573 30.5396 7.68715 30.6701 7.18147C30.8006 6.67579 30.8659 6.14564 30.8659 5.59102Z" fill="#FCBB44"/>
<path d="M53.963 0.428196L48.2619 10.6437V18.0454H43.4049V10.9129L37.6426 0.428196H42.5975L46.4268 9.28575L50.5375 0.428196H53.963Z" fill="#FCBB44"/>
<path d="M61.7675 18.0454H56.9105V0.428196H66.4287C67.2525 0.428196 68.0395 0.538304 68.7899 0.758519C69.5484 0.978735 70.2172 1.31314 70.7963 1.76172C71.3754 2.20215 71.8362 2.76085 72.1788 3.43781C72.5295 4.10661 72.7048 4.89367 72.7048 5.799C72.7048 6.36993 72.6233 6.90824 72.4601 7.41392C72.297 7.91144 72.0686 8.36818 71.775 8.78414C71.4896 9.20011 71.1511 9.57529 70.7596 9.90969C70.3681 10.2441 69.9399 10.5255 69.475 10.7538C69.0101 10.9822 68.5167 11.1576 67.9947 11.2799C67.4808 11.4023 66.9588 11.4634 66.4287 11.4634H61.7675V18.0454ZM67.7867 5.799C67.7867 4.6653 67.4971 3.77628 66.9181 3.13195C66.3471 2.47946 65.4826 2.15322 64.3244 2.15322H61.7675V9.79958H64.3244C64.9443 9.79958 65.4703 9.70171 65.9026 9.50596C66.343 9.30206 66.7019 9.02067 66.9792 8.6618C67.2565 8.30293 67.4604 7.88289 67.5909 7.40168C67.7214 6.91231 67.7867 6.37809 67.7867 5.799Z" fill="#FCBB44"/>
<path d="M84.3875 18.0454H79.5305V2.67929H74.7347V0.428196H89.1833V2.67929H84.3875V18.0454Z" fill="#FCBB44"/>
<path d="M110.262 9.21234C110.262 10.6315 110.017 11.912 109.528 13.0539C109.038 14.1876 108.361 15.15 107.497 15.9411C106.632 16.7323 105.609 17.3399 104.426 17.764C103.243 18.1882 101.963 18.4002 100.585 18.4002C99.2062 18.4002 97.9257 18.1882 96.743 17.764C95.5604 17.3399 94.5368 16.7323 93.6723 15.9411C92.8077 15.15 92.1308 14.1876 91.6414 13.0539C91.152 11.912 90.9073 10.6315 90.9073 9.21234C90.9073 7.76871 91.1479 6.48004 91.6292 5.34634C92.1185 4.20448 92.7914 3.24206 93.6478 2.45907C94.5123 1.66793 95.5359 1.06437 96.7186 0.648412C97.9012 0.224293 99.1899 0.0122342 100.585 0.0122342C101.979 0.0122342 103.268 0.224293 104.451 0.648412C105.633 1.06437 106.653 1.66793 107.509 2.45907C108.374 3.24206 109.047 4.20448 109.528 5.34634C110.017 6.48004 110.262 7.76871 110.262 9.21234ZM105.319 9.21234C105.319 8.67404 105.295 8.1235 105.246 7.56073C105.197 6.99795 105.107 6.45149 104.977 5.92135C104.846 5.3912 104.667 4.89367 104.438 4.42877C104.218 3.96388 103.933 3.56015 103.582 3.21759C103.231 2.86688 102.807 2.59365 102.31 2.3979C101.82 2.194 101.245 2.09205 100.585 2.09205C99.9158 2.09205 99.3326 2.194 98.8351 2.3979C98.3376 2.59365 97.9134 2.8628 97.5627 3.20536C97.212 3.54791 96.9266 3.95164 96.7063 4.41654C96.4861 4.88144 96.3108 5.37896 96.1803 5.90911C96.0579 6.4311 95.9723 6.97756 95.9233 7.54849C95.8744 8.11126 95.8499 8.66588 95.8499 9.21234C95.8499 9.75065 95.8744 10.3012 95.9233 10.864C95.9723 11.4267 96.062 11.9732 96.1925 12.5033C96.323 13.0253 96.4984 13.5188 96.7186 13.9837C96.9469 14.4486 97.2365 14.8564 97.5872 15.2071C97.9379 15.5496 98.3579 15.8229 98.8473 16.0268C99.3448 16.2307 99.9239 16.3326 100.585 16.3326C101.229 16.3326 101.792 16.2307 102.273 16.0268C102.754 15.8147 103.17 15.5333 103.521 15.1826C103.871 14.8238 104.161 14.4119 104.389 13.947C104.626 13.4739 104.809 12.9764 104.94 12.4544C105.079 11.9243 105.176 11.3819 105.234 10.8273C105.291 10.2726 105.319 9.73433 105.319 9.21234Z" fill="#FCBB44"/>
<path d="M124.635 18.0454H122.384V0.428196H125.54L136.245 12.5278V0.428196H138.484V18.0454H135.328L124.635 5.95805V18.0454Z" fill="#FCBB44"/>
<path d="M156.125 18.0454H143.475V0.428196H156.125V2.67929H148.332V8.1235H154.351V10.3624H148.332V15.7943H156.125V18.0454Z" fill="#FCBB44"/>
<path d="M167.918 18.0454H163.477L158.852 0.428196H163.807L166.731 12.9315L169.325 0.428196H173.778L176.616 13.2496L179.809 0.428196H182.807L177.68 18.0454H173.227L170.744 6.78997L167.918 18.0454Z" fill="#FCBB44"/>
<path d="M200.582 12.6624C200.582 13.4209 200.484 14.0897 200.288 14.6688C200.101 15.2479 199.832 15.7495 199.481 16.1736C199.138 16.5977 198.73 16.9525 198.257 17.238C197.784 17.5234 197.266 17.7518 196.704 17.9231C196.149 18.0944 195.558 18.2167 194.93 18.2901C194.31 18.3635 193.678 18.4002 193.033 18.4002C192.185 18.4002 191.402 18.335 190.684 18.2045C189.967 18.0821 189.29 17.8864 188.654 17.6172C188.026 17.3399 187.418 16.9851 186.831 16.5529C186.252 16.1206 185.673 15.5945 185.093 14.9746L187.589 12.4422C187.818 13.0049 188.132 13.5269 188.531 14.0081C188.931 14.4812 189.367 14.889 189.84 15.2316C190.322 15.5741 190.819 15.8433 191.333 16.039C191.847 16.2348 192.332 16.3326 192.789 16.3326C193.327 16.3326 193.833 16.2959 194.306 16.2225C194.779 16.141 195.191 16.0105 195.541 15.831C195.892 15.6516 196.165 15.4151 196.361 15.1215C196.565 14.8197 196.667 14.4445 196.667 13.9959C196.667 13.6533 196.589 13.3597 196.435 13.115C196.28 12.8704 196.076 12.6624 195.823 12.4911C195.578 12.3117 195.297 12.1608 194.979 12.0384C194.661 11.9161 194.334 11.8141 194 11.7326C193.674 11.6429 193.352 11.5654 193.033 11.5001C192.715 11.4267 192.434 11.3533 192.189 11.2799C191.708 11.1413 191.206 10.9945 190.684 10.8395C190.162 10.6764 189.649 10.4929 189.143 10.2889C188.637 10.085 188.156 9.8526 187.699 9.5916C187.251 9.32245 186.855 9.00844 186.513 8.64957C186.17 8.28254 185.897 7.8625 185.693 7.38945C185.489 6.90824 185.387 6.3577 185.387 5.73783C185.387 4.99563 185.477 4.33906 185.656 3.76813C185.844 3.18904 186.105 2.68744 186.439 2.26332C186.774 1.83921 187.169 1.48441 187.626 1.19895C188.083 0.90533 188.584 0.67288 189.131 0.501602C189.677 0.322167 190.256 0.195747 190.868 0.122342C191.488 0.0407806 192.12 0 192.764 0C193.645 0 194.444 0.0815612 195.162 0.244684C195.888 0.407806 196.557 0.640256 197.169 0.942032C197.78 1.24381 198.339 1.60676 198.845 2.03087C199.358 2.44684 199.84 2.91174 200.288 3.42557L197.793 5.95805C197.597 5.37081 197.324 4.84066 196.973 4.3676C196.63 3.89455 196.247 3.49082 195.823 3.15642C195.399 2.81386 194.954 2.55287 194.489 2.37343C194.024 2.18584 193.576 2.09205 193.144 2.09205C192.581 2.09205 192.063 2.13283 191.59 2.21439C191.117 2.28779 190.709 2.41421 190.366 2.59365C190.032 2.76493 189.771 3.00145 189.583 3.30323C189.396 3.59685 189.302 3.96388 189.302 4.40431C189.302 4.75502 189.371 5.05272 189.51 5.2974C189.649 5.54209 189.832 5.75007 190.061 5.92135C190.297 6.09262 190.562 6.23536 190.856 6.34954C191.149 6.45557 191.451 6.54937 191.761 6.63093C192.079 6.71249 192.389 6.78589 192.691 6.85114C193.001 6.90824 193.282 6.97349 193.535 7.04689C194.024 7.18554 194.538 7.33235 195.077 7.48732C195.615 7.64229 196.145 7.8258 196.667 8.03786C197.189 8.24176 197.686 8.47829 198.16 8.74744C198.633 9.01659 199.049 9.33876 199.407 9.71394C199.766 10.081 200.052 10.5092 200.264 10.9985C200.476 11.4797 200.582 12.0344 200.582 12.6624Z" fill="#FCBB44"/>
<path d="M228.939 13.2619C228.939 13.7594 228.857 14.2243 228.694 14.6566C228.531 15.0888 228.307 15.4844 228.021 15.8433C227.736 16.194 227.401 16.508 227.018 16.7853C226.643 17.0626 226.235 17.2951 225.795 17.4827C225.362 17.6702 224.914 17.813 224.449 17.9108C223.984 18.0006 223.527 18.0454 223.079 18.0454H212.716V0.428196H222.186C222.601 0.428196 223.038 0.460821 223.495 0.52607C223.951 0.583163 224.396 0.676958 224.828 0.807456C225.269 0.937954 225.684 1.10923 226.076 1.32129C226.476 1.53335 226.822 1.79435 227.116 2.10428C227.418 2.40606 227.654 2.75677 227.825 3.15642C228.005 3.55607 228.095 4.01281 228.095 4.52665C228.095 5.01602 227.997 5.46052 227.801 5.86017C227.605 6.25982 227.34 6.61869 227.006 6.93678C226.68 7.24672 226.3 7.52402 225.868 7.76871C225.444 8.00523 224.995 8.21322 224.522 8.39265C225.118 8.55577 225.68 8.77191 226.211 9.04106C226.749 9.31021 227.218 9.64054 227.617 10.032C228.025 10.4235 228.347 10.8884 228.584 11.4267C228.821 11.9569 228.939 12.5686 228.939 13.2619ZM223.164 4.95484C223.164 3.9598 222.899 3.2339 222.369 2.77716C221.847 2.32042 221.101 2.09205 220.13 2.09205H217.573V7.80541H219.714C220.155 7.80541 220.583 7.7524 220.999 7.64637C221.415 7.53218 221.782 7.3609 222.1 7.13253C222.426 6.896 222.683 6.5983 222.871 6.23943C223.066 5.88056 223.164 5.45237 223.164 4.95484ZM224.021 12.956C224.021 12.4748 223.959 12.0262 223.837 11.6102C223.715 11.1861 223.527 10.8232 223.274 10.5214C223.022 10.2115 222.703 9.97086 222.32 9.79958C221.945 9.62015 221.5 9.53043 220.987 9.53043H217.573V16.3326H220.558C221.056 16.3326 221.517 16.2511 221.941 16.088C222.365 15.9248 222.732 15.6965 223.042 15.4028C223.352 15.1092 223.592 14.7544 223.764 14.3385C223.935 13.9225 224.021 13.4617 224.021 12.956Z" fill="#FCBB44"/>
<path d="M240.511 18.0454H235.654V2.67929H230.859V0.428196H245.307V2.67929H240.511V18.0454Z" fill="#FCBB44"/>
<path d="M264 4.7958L261.908 5.67666C261.745 5.14651 261.525 4.66122 261.247 4.22079C260.978 3.78036 260.652 3.40518 260.269 3.09525C259.893 2.77716 259.465 2.53248 258.984 2.3612C258.503 2.18176 257.977 2.09205 257.406 2.09205C256.794 2.09205 256.231 2.194 255.717 2.3979C255.212 2.59365 254.755 2.86688 254.347 3.21759C253.948 3.5683 253.597 3.97611 253.295 4.44101C252.993 4.90591 252.74 5.40343 252.537 5.93358C252.333 6.45557 252.182 6.99795 252.084 7.56073C251.986 8.1235 251.937 8.67404 251.937 9.21234C251.937 10.0687 252.035 10.921 252.231 11.7693C252.435 12.6175 252.753 13.3801 253.185 14.0571C253.625 14.734 254.192 15.2846 254.886 15.7087C255.579 16.1247 256.419 16.3326 257.406 16.3326C257.928 16.3326 258.421 16.247 258.886 16.0757C259.351 15.8963 259.771 15.6557 260.146 15.3539C260.53 15.044 260.864 14.681 261.149 14.2651C261.435 13.8491 261.663 13.4005 261.835 12.9193L263.951 13.7635C263.641 14.5383 263.217 15.2193 262.679 15.8066C262.14 16.3857 261.525 16.8669 260.831 17.2502C260.146 17.6335 259.408 17.919 258.617 18.1066C257.834 18.3023 257.043 18.4002 256.244 18.4002C255.379 18.4002 254.547 18.2942 253.748 18.0821C252.957 17.8701 252.218 17.5683 251.533 17.1768C250.848 16.7853 250.224 16.3122 249.662 15.7576C249.107 15.203 248.63 14.5872 248.23 13.9103C247.839 13.2333 247.533 12.4993 247.313 11.7081C247.101 10.9088 246.994 10.0769 246.994 9.21234C246.994 8.34779 247.101 7.51995 247.313 6.7288C247.533 5.9295 247.839 5.19137 248.23 4.51441C248.63 3.8293 249.107 3.20943 249.662 2.65482C250.224 2.1002 250.848 1.62715 251.533 1.23565C252.218 0.844159 252.957 0.542382 253.748 0.330323C254.547 0.118264 255.379 0.0122342 256.244 0.0122342C257.075 0.0122342 257.887 0.110108 258.678 0.305855C259.477 0.501602 260.22 0.7993 260.905 1.19895C261.59 1.59044 262.197 2.08797 262.728 2.69152C263.266 3.28692 263.69 3.98834 264 4.7958Z" fill="#FCBB44"/>
</svg>
