<svg width="122" height="20" viewBox="0 0 122 20" fill="none" xmlns="http://www.w3.org/2000/svg">
<g clip-path="url(#clip0_1766_14944)">
<path d="M12.5434 2.46924H0V19.7534H12.5443C17.0133 19.7534 20.9394 16.9878 20.9394 11.1113C20.9394 5.23481 17.0124 2.46924 12.5434 2.46924ZM17.473 11.6812L14.9826 15.6456C14.888 15.796 14.7567 15.9199 14.6012 16.0057C14.4456 16.0915 14.2708 16.1365 14.0931 16.1364H4.80148C4.52296 16.1364 4.25585 16.0257 4.05891 15.8288C3.86196 15.6318 3.75132 15.3647 3.75132 15.0862V7.15816C3.75132 6.87961 3.86195 6.61247 4.05889 6.41548C4.25582 6.21848 4.52294 6.10777 4.80148 6.10769H14.0931C14.2708 6.10763 14.4456 6.15261 14.6011 6.23843C14.7567 6.32425 14.8879 6.44811 14.9826 6.59842L17.473 10.5638C17.5781 10.7312 17.6338 10.9249 17.6338 11.1225C17.6338 11.3201 17.5781 11.5138 17.473 11.6812Z" fill="white"/>
<path d="M30.2088 8.74279V12.9385C30.2088 15.7535 30.752 16.4696 33.3201 16.4696C34.6533 16.4696 35.394 16.4696 37.0978 16.2243V19.6309C35.6903 19.8762 34.0853 20.0014 32.1346 20.0014C28.3818 20.0004 25.9628 18.593 25.9628 15.383V8.74279H22.1348V5.21015H25.9628V2.19799L30.2098 0.988037V5.21015H37.0987V8.74279H30.2088Z" fill="white"/>
<path d="M54.9975 5.45724V8.98805C53.6149 8.64208 52.5037 8.49394 51.2692 8.49394C48.8986 8.49394 46.1827 9.03743 43.6147 11.0375V19.7535H39.3926V5.21003H43.6147V7.67933C45.7877 5.72867 48.3555 4.96313 51.0716 4.96313C52.8002 4.96313 54.0099 5.21003 54.9975 5.45724Z" fill="white"/>
<path d="M75.0767 12.4201V19.7534H70.8297V17.9509C68.262 19.2103 65.4222 20.0003 61.9902 20.0003C57.9162 20.0003 55.373 18.6916 55.373 15.4077C55.373 11.63 59.5212 10.4446 64.1384 10.4446C66.6325 10.4446 68.9285 10.8396 70.8297 11.4819C70.8297 8.7163 67.2741 8.49394 65.2989 8.49394C63.3974 8.49394 61.0768 8.66692 58.0889 9.55576L56.583 6.46937C59.5458 5.50631 62.4595 4.96313 65.4964 4.96313C71.5707 4.96313 75.0273 6.91379 75.0767 12.4201ZM70.8297 14.099C69.3483 13.6301 67.3483 13.2096 64.657 13.2096C61.4979 13.2096 59.5964 13.7527 59.5964 15.2338C59.5964 16.7649 61.0035 16.8882 63.2011 16.8882C65.4974 16.8882 68.6579 16.1723 70.8306 15.2338L70.8297 14.099Z" fill="white"/>
<path d="M96.1698 5.20996L88.7871 19.7534H82.7625L75.4043 5.20996H80.0969L85.8016 16.7657L91.4806 5.20996H96.1698Z" fill="white"/>
<path d="M111.252 14.5434L115.055 15.6528C113.958 18.2267 110.88 20.0003 105.497 20.0003C99.9663 20.0003 95.6699 17.8273 95.6699 12.4943C95.6699 7.13615 99.8427 4.96313 105.744 4.96313C111.275 4.96313 115.695 6.86472 115.695 13.4819H99.9914C100.461 15.8028 102.683 16.568 105.498 16.568C108.412 16.568 110.19 16.0251 111.252 14.5434ZM100.14 10.7903H111.177C110.461 8.74115 108.386 8.17313 105.72 8.17313C102.832 8.17313 100.807 8.74268 100.14 10.7903Z" fill="white"/>
<path d="M121.915 0.00146484V19.7533H117.693V0.00146484H121.915Z" fill="white"/>
</g>
<defs>
<clipPath id="clip0_1766_14944">
<rect width="121.916" height="20" fill="white"/>
</clipPath>
</defs>
</svg>
