<svg width="97" height="96" viewBox="0 0 97 96" fill="none" xmlns="http://www.w3.org/2000/svg">
<path d="M50.0817 0.0444292C40.5703 -0.359085 31.6584 2.00435 24.0493 6.38536C22.1931 5.5668 20.1064 5.22093 17.8928 5.42846C11.4712 6.06255 6.59443 11.8155 6.90571 18.2602C6.9403 18.9865 7.04406 19.7013 7.20546 20.3931C7.33228 20.9234 7.48216 21.4422 7.67815 21.9495C8.81952 25.0162 11.1599 27.5064 14.1344 28.8323C15.6677 29.5355 17.3625 29.916 19.161 29.916C22.5736 29.916 25.6633 28.521 27.8769 26.2728C30.0905 24.0593 31.4393 21.0156 31.4393 17.6492C31.4393 16.0812 31.1396 14.5709 30.5977 13.199C35.7858 10.5934 41.654 9.11772 47.8566 9.09467C67.0754 9.02549 83.7578 23.2407 86.5017 42.2635C87.1127 46.5062 87.032 50.6912 86.3518 54.6456C86.1558 55.7985 86.8591 56.9168 87.9889 57.2396L92.3238 58.4732C93.6381 58.8422 94.987 58.0121 95.2291 56.6632C95.7364 53.9078 96.0015 51.0716 96.0131 48.1663C96.0938 22.5836 75.6414 1.11662 50.0817 0.0444292ZM25.5365 17.8221C25.5365 20.9695 23.2423 23.5981 20.2332 24.1054C19.8873 24.163 19.5299 24.1976 19.161 24.1976C18.5615 24.1976 17.9735 24.1169 17.4201 23.944C16.4978 23.6903 15.6562 23.2292 14.9529 22.6066C13.6271 21.4422 12.7855 19.7244 12.7855 17.8221C12.7855 16.4732 13.2121 15.2165 13.9268 14.1905C14.4111 13.4757 15.0452 12.8762 15.7715 12.4265C16.7514 11.804 17.9159 11.4466 19.161 11.4466C22.1816 11.4466 24.7064 13.5448 25.3636 16.3579C25.4789 16.8306 25.5365 17.3148 25.5365 17.8221Z" fill="white"/>
<path d="M89.8798 71.4777C88.2773 68.78 85.6717 66.7393 82.5705 65.8977C81.5328 65.6095 80.4491 65.4596 79.3193 65.4596C76.7599 65.4596 74.3734 66.2436 72.4134 67.5925C69.1738 69.8061 67.0525 73.5184 67.0525 77.738C67.0525 79.0753 67.2715 80.3666 67.675 81.5771C61.5301 85.1857 54.3014 87.1456 46.6001 86.8804C25.5367 86.1426 8.66978 68.2612 9.10788 47.1862C9.16553 44.1541 9.58057 41.2142 10.3069 38.4011C10.6182 37.1906 9.91491 35.957 8.7159 35.6227L4.39254 34.3891C3.13588 34.0317 1.84463 34.7811 1.51029 36.0377C0.530332 39.8653 0 43.8774 0 48.0048C0 74.5099 21.49 95.9999 48.0066 95.9999C57.4258 95.9999 66.2108 93.2905 73.6124 88.5983C75.8606 89.7973 78.5584 90.293 81.383 89.8319C86.2367 89.0479 90.2372 85.2779 91.2979 80.4819C91.9089 77.7149 91.563 75.0402 90.537 72.7459C90.341 72.3078 90.1219 71.8813 89.8798 71.4777V71.4777ZM79.4461 84.2749C76.0912 85.0243 72.9553 82.2458 72.9553 78.7986V77.8648C72.9783 74.4753 75.6415 71.7314 78.9849 71.5585C79.1002 71.5354 79.2155 71.5354 79.3308 71.5354C82.801 71.5354 85.6141 74.2908 85.6948 77.7495C85.7063 77.8072 85.7063 77.8533 85.7063 77.9109C85.7063 81.3811 82.9279 84.2173 79.4576 84.2749H79.4461Z" fill="white"/>
<path d="M46.1154 52.7426L43.7404 58.8299C43.6021 59.1873 43.2447 59.4294 42.8642 59.4294H20.9361C20.9361 59.4294 13.9265 60.271 15.4368 46.7129C16.1862 40.0031 23.7607 26.9523 30.5167 27.1137L74.5343 27.0791C74.9147 27.0791 75.2606 27.3097 75.4105 27.6555L77.993 33.7774C78.2581 34.4 77.797 35.0917 77.1168 35.0917L40.7314 34.9419C40.6045 34.9419 40.4893 34.9419 40.374 34.9995C37.4225 36.2907 29.1448 50.5405 36.5809 51.4167L45.2507 51.4629C45.9079 51.4629 46.369 52.1315 46.1269 52.7541L46.1154 52.7426Z" fill="white"/>
<path d="M45.5509 39.0584H80.7258C81.0486 39.0584 81.3368 39.2313 81.4982 39.508C82.2706 40.8569 84.2882 44.9382 82.0516 47.5322C81.8902 47.7167 81.6365 47.8204 81.3944 47.8204H69.5542C69.1737 47.8204 68.8279 48.0741 68.7126 48.4315L58.4749 81.0123C58.3596 81.3812 58.0252 81.6233 57.6332 81.6233H45.1243C44.5363 81.6233 44.1098 81.0469 44.2827 80.482L53.9555 48.835C54.1284 48.27 53.7019 47.6936 53.1139 47.6936L42.8416 47.7397C42.2882 47.7397 41.8731 47.244 41.9769 46.7021C42.3458 44.7652 43.3027 40.6725 45.009 39.2313C45.1589 39.1045 45.3549 39.0469 45.5624 39.0469L45.5509 39.0584Z" fill="white"/>
</svg>
