<svg width="203" height="32" viewBox="0 0 203 32" fill="none" xmlns="http://www.w3.org/2000/svg">
<path d="M30.791 16.4821C30.791 24.9177 24.0087 31.7673 15.6069 31.7673C7.20506 31.7673 0.422852 24.9177 0.422852 16.4821C0.422852 8.04649 7.20506 1.1968 15.6069 1.1968C24.0087 1.1968 30.791 8.04649 30.791 16.4821ZM47.4259 16.4821C47.4259 24.4115 44.0179 30.8563 39.8339 30.8563C35.6498 30.8563 32.2419 24.4115 32.2419 16.4821C32.2419 8.55262 35.6498 2.10784 39.8339 2.10784C44.0179 2.10784 47.4259 8.51888 47.4259 16.4821ZM54.2419 16.4821C54.2419 23.6017 53.0609 29.3716 51.5762 29.3716C50.0916 29.3716 48.9106 23.6017 48.9106 16.4821C48.9106 9.36244 50.0916 3.5925 51.5762 3.5925C53.0609 3.5925 54.2419 9.36244 54.2419 16.4821ZM96.1161 2.51275H96.1499V2.17532H87.5118L79.5149 21.0373L71.4842 2.20907H62.1713V2.54649H62.2051C63.791 2.91766 64.567 3.42379 64.567 5.3471V27.752C64.567 29.6753 63.7572 30.1815 62.2051 30.5526H62.1713V30.89H68.4811V30.5526H68.4474C66.8615 30.1815 66.0854 29.6753 66.0854 27.752V6.66305L76.3768 30.89H76.9505L87.5456 5.9882V28.3256C87.4106 29.844 86.6345 30.3164 85.1836 30.6201H85.1498V30.9575H96.1499V30.6201H96.1161C94.6989 30.2827 93.8891 29.844 93.7541 28.3256V5.38085C93.7541 3.42379 94.564 2.88391 96.1161 2.51275ZM101.144 17.3594C101.312 13.344 102.763 10.4422 105.193 10.3747C105.935 10.3747 106.576 10.6446 107.049 11.117C108.095 12.1293 108.567 14.2213 108.5 17.3594H101.144ZM101.042 18.4729H113.932V18.4054C113.898 15.3348 113.021 12.9391 111.3 11.2858C109.815 9.86858 107.622 9.0925 105.294 9.0925H105.227C104.012 9.0925 102.561 9.39618 101.515 9.90232C100.334 10.4422 99.2879 11.2857 98.4106 12.3655C96.9934 14.1201 96.1498 16.4483 95.9474 19.114C95.9474 19.1815 95.9474 19.2827 95.9137 19.3502C95.9137 19.4177 95.9137 19.4851 95.9137 19.5864C95.8799 19.9575 95.8799 20.3287 95.8799 20.6999C96.0149 26.706 99.2541 31.4974 105.024 31.4974C110.085 31.4974 113.021 27.8195 113.763 22.8594L113.392 22.7244C112.11 25.39 109.782 27.0097 107.15 26.8072C103.539 26.5373 100.773 22.8931 101.042 18.4729ZM128.475 26.6048C128.036 27.617 127.159 28.1569 125.978 28.1569C124.797 28.1569 123.717 27.3471 122.941 25.8624C122.131 24.2765 121.693 22.0496 121.693 19.3839C121.693 13.8839 123.414 10.3072 126.079 10.3072C127.193 10.3072 128.07 10.8471 128.475 11.8256V26.6048ZM137.046 30.5526C135.46 30.1815 134.684 29.6416 134.684 27.617V0.859375L125.101 3.69373V4.03115H125.168C126.484 3.92992 127.395 4.09864 127.901 4.57103C128.306 4.9422 128.509 5.51581 128.509 6.32563V10.0035C127.564 9.39618 126.45 9.0925 125.067 9.0925C122.3 9.0925 119.769 10.2397 117.947 12.3655C116.058 14.5588 115.046 17.5618 115.046 21.071C115.046 27.3134 118.116 31.4974 122.671 31.4974C125.337 31.4974 127.496 30.0465 128.475 27.5495V30.8563H137.079V30.5189L137.046 30.5526ZM145.245 4.50354C145.245 2.54649 143.794 1.09557 141.837 1.09557C139.914 1.09557 138.395 2.58023 138.395 4.50354C138.395 6.42686 139.914 7.91152 141.837 7.91152C143.76 7.91152 145.245 6.4606 145.245 4.50354ZM147.506 30.5526C145.92 30.1815 145.144 29.6416 145.144 27.617V9.19372L136.539 11.6569V11.9943H136.607C138.463 12.1631 138.969 12.8042 138.969 14.9637V30.89H147.539V30.5526H147.506ZM169.506 30.5526C167.92 30.1815 167.144 29.6416 167.144 27.617V9.19372L158.978 11.5894V11.9269H159.012C160.53 12.0956 160.969 12.7704 160.969 14.9299V26.571C160.463 27.5833 159.518 28.1569 158.371 28.2244C156.515 28.2244 155.469 26.9759 155.469 24.6815V9.19372L146.865 11.6569V11.9943H146.932C148.788 12.1631 149.294 12.8042 149.294 14.9637V24.8164C149.294 25.4913 149.362 26.1999 149.463 26.8747L149.631 27.5495C150.374 30.1477 152.263 31.5312 155.233 31.5312C157.763 31.5312 159.99 29.979 160.969 27.5158V30.9238H169.573V30.5864L169.506 30.5526ZM202.877 30.89V30.5526H202.843C201.122 30.1477 200.481 29.4054 200.481 27.887V15.3686C200.481 11.4545 198.288 9.12625 194.61 9.12625C191.944 9.12625 189.684 10.6784 188.806 13.0741C188.131 10.5097 186.141 9.12625 183.171 9.12625C180.573 9.12625 178.549 10.4759 177.705 12.8042V9.19372L169.101 11.5557V11.8931H169.168C170.99 12.0618 171.53 12.7029 171.53 14.8287V30.89H179.561V30.5526H179.527C178.177 30.2489 177.739 29.6416 177.739 28.1569V13.7827C178.11 12.9391 178.819 11.9269 180.269 11.9269C182.058 11.9269 182.969 13.1753 182.969 15.6048V30.89H191V30.5526H190.966C189.616 30.2489 189.177 29.6416 189.177 28.1569V15.3686C189.177 14.8962 189.144 14.4238 189.076 13.9514C189.447 13.0404 190.223 11.9606 191.708 11.9606C193.53 11.9606 194.408 13.1753 194.408 15.6385V30.9238H202.877V30.89Z" fill="black"/>
</svg>
