<svg width="175" height="27" viewBox="0 0 175 27" fill="none" xmlns="http://www.w3.org/2000/svg">
<path d="M21.0314 3.76588C21.5807 2.82435 22.4439 1.96129 23.5426 1.41207C25.2691 0.627474 27.5448 1.01977 29.0359 2.19667C30.37 3.37357 31.1547 5.0997 30.7623 6.98274C31.1547 6.98274 31.3901 6.74736 31.7825 6.59044C33.9013 5.96276 36.0986 6.59044 37.5112 8.39502C38.5314 9.72884 38.8453 11.6903 38.139 13.1811C37.9036 13.9657 37.3543 14.5934 36.7265 15.2995L36.8834 15.4564C38.8453 15.6133 40.8072 17.0256 41.435 18.9871C42.0628 20.9486 41.5919 22.9101 40.1009 24.3224C38.9238 25.4993 37.5112 25.8916 35.9417 25.7347H6.43497C3.92376 25.7347 2.11883 24.7147 1.2556 22.5963C0.470847 20.7917 0.863224 18.4379 2.27578 17.0256C3.21748 16.0841 4.39461 15.6918 5.65022 15.4564C4.23766 14.1226 3.53139 12.318 3.92376 10.3565C4.08071 8.94424 5.33632 7.21812 6.90583 6.6689C8.23991 6.11968 10.0448 6.2766 11.3004 6.90428C10.9081 4.78586 11.8498 2.90281 13.6547 1.72591C15.2242 0.705934 17.6569 0.705934 19.2265 1.88283C20.0112 2.35359 20.639 3.1382 21.0314 3.76588Z" fill="white"/>
<path d="M29.3497 4.55079C29.1143 4.00156 28.7219 3.5308 28.2511 3.1385C27.074 2.11852 25.1121 1.9616 23.6995 2.7462C22.3654 3.37388 21.5807 4.86463 21.5807 6.27691H23.3071C23.4641 6.43383 23.5426 6.43383 23.6995 6.51229C22.9932 7.06151 21.6592 7.53227 21.9731 8.63071L23.778 20.2428L28.8789 8.78763C29.6636 7.45381 30.056 5.88461 29.3497 4.55079Z" fill="#645FA9"/>
<path d="M18.4417 20.0857L20.5605 6.82593C20.7175 5.8844 20.4036 5.02134 20.0112 4.23674C19.6188 3.37368 18.8341 2.82446 18.0493 2.43216C16.6368 1.80448 14.7534 2.19678 13.7332 3.21676C12.713 4.23674 12.1637 5.80594 12.713 7.37515L17.8924 18.9872L18.4417 20.0857Z" fill="#C8234A"/>
<path d="M36.9618 9.72871C37.5896 10.9056 37.5112 12.7102 36.7264 13.7302C36.1771 14.5148 35.3923 14.9071 34.7645 15.4563L23.9349 22.91L24.0919 22.5177L29.8206 9.65025C30.7623 8.08105 32.3318 7.29645 33.9798 7.53183C35.1569 7.84567 36.334 8.63027 36.9618 9.72871Z" fill="#0088CF"/>
<path d="M6.35648 14.5937L18.3632 22.832H18.5202L12.556 9.65067C11.5359 7.92455 9.41702 7.13995 7.45513 7.84609C6.278 8.39531 5.3363 9.41529 5.10087 10.5922C4.47307 12.0829 5.0224 13.6521 6.35648 14.5937Z" fill="#F26F21"/>
<path d="M39.5516 23.2242C40.4933 22.2042 40.5717 20.3212 40.1009 19.2227C39.7085 18.2812 38.9238 17.4966 37.9821 17.1043C36.8049 16.5551 35.2354 16.712 34.2152 17.3397L23.5426 24.715H36.3341C37.5897 24.715 38.6099 24.2442 39.5516 23.2242Z" fill="#0DB04B"/>
<path d="M18.6771 24.7146L8.00447 17.1825C6.98429 16.5548 5.41478 16.3979 4.23765 16.9471C3.29595 17.3394 2.51119 18.124 2.11882 19.0655C1.49102 20.3993 1.72644 22.047 2.66815 23.067C3.4529 24.087 4.63003 24.6362 5.96411 24.6362L18.6771 24.7146Z" fill="#FCB813"/>
<path d="M66.5471 10.5138C65.9977 8.16002 64.1928 7.53234 61.9955 7.37542C55.0897 6.74774 53.9125 11.9261 53.9125 14.123C53.9125 17.8891 54.9327 20.8705 61.7601 20.8705C63.0942 20.8705 66.4686 19.5367 66.4686 17.4968H76.278C75.8856 23.7736 65.4484 25.1858 60.8968 25.1858C51.4798 25.1858 43.3969 23.4597 43.7892 14.123C44.0247 7.45388 50.3027 2.82473 62.7803 3.13857C69.6861 3.29549 76.3565 5.49238 76.3565 10.4354H66.5471V10.5138Z" fill="white"/>
<path d="M164.327 10.5137C163.778 8.15986 161.973 7.53218 159.776 7.37526C152.87 6.74758 151.693 11.9259 151.693 14.0444C151.693 17.8104 152.713 20.7919 159.54 20.7919C160.874 20.7919 164.249 19.4581 164.249 17.4181H174.058C173.666 23.695 163.229 25.1072 158.677 25.1072C149.26 25.1072 141.177 23.3811 141.57 14.0444C141.805 7.37526 148.083 2.74612 160.561 3.05996C167.466 3.21688 174.215 5.41376 174.215 10.3567H164.327V10.5137Z" fill="white"/>
<path d="M78.1614 3.60938H90.796L101.626 18.7522H101.783V3.60938H109.865V24.5582H97.7803L86.4798 9.41542H86.3229V24.5582H78.1614C78.1614 24.6367 78.1614 3.60938 78.1614 3.60938Z" fill="white"/>
<path d="M112.298 3.60938H127.679C135.135 3.60938 139.372 5.7278 139.372 8.78774C139.372 10.5923 137.567 12.9461 133.487 13.5738C138.274 13.8092 140.157 16.9476 140.157 18.7522C140.157 22.5182 135.998 24.4797 127.679 24.4797H112.298V3.60938ZM121.323 11.8477H123.913C127.836 11.8477 129.877 11.6123 129.877 9.88618C129.877 8.16006 128.15 7.53238 124.697 7.53238H121.401V11.8477H121.323ZM121.323 20.3214H123.913C128.621 20.3214 130.426 19.7721 130.426 18.2029C130.426 16.4768 128.229 15.8491 124.697 15.8491H121.401V20.2429H121.323V20.3214Z" fill="white"/>
</svg>
