<svg width="251" height="40" viewBox="0 0 251 40" fill="none" xmlns="http://www.w3.org/2000/svg">
<path d="M13.5005 8.31766C11.7032 8.31766 10.2821 9.07 9.3208 10.5329C8.31766 11.9958 7.81609 14.0439 7.81609 16.6353C7.81609 22.0272 9.86416 24.744 13.9603 24.744C15.2142 24.744 16.3845 24.535 17.5967 24.2424C18.7252 23.9081 19.9373 23.4901 21.1076 22.9885V29.4253C18.767 30.4284 16.092 30.93 13.1661 30.93C8.90282 30.93 5.68443 29.7179 3.46917 27.2518C1.25392 24.7858 0 21.233 0 16.5935C0 13.6677 0.585162 11.1181 1.67189 8.90282C2.75862 6.68756 4.34692 5.01568 6.35319 3.80356C8.35946 2.59143 10.8673 2.00626 13.5841 2.00626C16.6353 2.00626 19.4775 2.63323 22.278 3.97074L19.9373 9.94775C18.9342 9.44618 17.8474 9.07001 16.8443 8.73563C15.7576 8.44305 14.6291 8.31766 13.5005 8.31766ZM46.813 19.6447C46.813 23.1975 45.8516 25.9979 43.9707 27.9624C42.0481 29.9269 39.4148 30.93 35.9875 30.93C32.6855 30.93 30.094 29.9269 28.1296 27.8788C26.1651 25.8307 25.2038 23.1139 25.2038 19.6029C25.2038 16.0502 26.1651 13.3333 28.046 11.3271C29.9687 9.3626 32.6855 8.35946 36.1129 8.35946C38.2863 8.35946 40.1254 8.81922 41.7555 9.69696C43.4274 10.5747 44.6813 11.9122 45.559 13.6259C46.395 15.3814 46.813 17.3459 46.813 19.6447ZM32.7273 19.6447C32.7273 21.4838 32.9781 22.9467 33.4796 23.908C33.9812 24.8694 34.8171 25.3709 36.0293 25.3709C37.1578 25.3709 37.9937 24.8694 38.4953 23.908C38.9969 22.9049 39.2059 21.4838 39.2059 19.6447C39.2059 17.8056 38.9551 16.4263 38.4953 15.465C37.9937 14.5037 37.1578 14.0857 36.0293 14.0857C34.9007 14.0857 34.0648 14.5455 33.5632 15.465C32.9781 16.3427 32.7273 17.7221 32.7273 19.6447ZM58.6416 30.5538H51.1599V8.81923H58.6416V30.5538ZM50.9509 3.38558C50.9509 2.25706 51.2853 1.42111 51.9122 0.835946C52.5392 0.250784 53.5841 0 54.9634 0C56.3427 0 57.3877 0.250784 58.0146 0.835946C58.6416 1.42111 58.976 2.21525 58.976 3.30198C58.976 5.51724 57.6385 6.60397 54.9634 6.60397C52.2884 6.68756 50.9509 5.60084 50.9509 3.38558ZM77.6176 30.5538V18.6834C77.6176 17.2205 77.4086 16.1338 76.9906 15.465C76.6144 14.7126 75.9039 14.3365 75.0261 14.3365C73.7722 14.3365 72.8527 14.838 72.3093 15.8412C71.7242 16.8443 71.4734 18.558 71.4734 21.0658V30.5956H63.9917V8.86102H69.6343L70.5956 11.5361H71.0554C71.6824 10.5329 72.5601 9.73877 73.7304 9.2372C74.8589 8.73564 76.1547 8.48485 77.6594 8.48485C80.0836 8.48485 81.9227 9.1954 83.2602 10.5747C84.5977 11.954 85.3083 13.9603 85.3083 16.4681V30.6374H77.7012L77.6176 30.5538ZM107.043 23.908C107.043 26.2487 106.291 27.9624 104.702 29.1745C103.114 30.3866 100.815 30.9718 97.8475 30.9718C96.2592 30.9718 94.8799 30.8882 93.6677 30.721C92.4556 30.512 91.2435 30.2194 90.0314 29.7597V23.7409C91.1599 24.2424 92.4556 24.7022 93.8349 24.9948C95.2142 25.3292 96.4263 25.4963 97.5967 25.4963C99.2686 25.4963 100.021 25.1202 100.021 24.3678C100.021 23.9916 99.7701 23.6573 99.3104 23.3647C98.8506 23.0721 97.5131 22.4869 95.3814 21.5674C93.4169 20.7315 91.9958 19.8537 91.2017 18.767C90.4493 17.6803 89.9896 16.4263 89.9896 14.7544C89.9896 12.7064 90.7419 11.1181 92.3302 10.0731C93.9185 8.94462 96.092 8.35946 98.9342 8.35946C100.397 8.35946 101.735 8.56844 102.947 8.86102C104.201 9.1954 105.538 9.61337 106.876 10.1985L104.828 15.0052C103.824 14.5455 102.78 14.1693 101.651 13.8767C100.522 13.5423 99.6029 13.3751 98.9342 13.3751C97.7221 13.3751 97.0951 13.7095 97.0951 14.2529C97.0951 14.6291 97.3041 14.9634 97.7221 15.2142C98.14 15.465 99.394 15.9666 101.484 16.8025C102.989 17.4295 104.159 18.0564 104.869 18.6416C105.622 19.2268 106.207 19.9791 106.541 20.815C106.834 21.7346 107.043 22.6959 107.043 23.908ZM124.222 30.93C123.135 30.93 122.132 30.721 121.254 30.4284C120.376 30.0522 119.54 29.4253 118.662 28.464H118.328C118.579 29.9687 118.662 30.93 118.662 31.3062V40H111.181V8.81923H117.283L118.37 11.6196H118.704C120.084 9.52978 122.006 8.44305 124.472 8.44305C126.897 8.44305 128.777 9.44618 130.115 11.4107C131.494 13.3751 132.163 16.1756 132.163 19.6029C132.163 23.1139 131.452 25.8725 129.99 27.9206C128.568 29.9269 126.646 30.93 124.222 30.93ZM121.714 14.2947C120.627 14.2947 119.791 14.6709 119.373 15.5068C118.913 16.2591 118.662 17.4713 118.662 19.0178V19.6029C118.662 21.442 118.913 22.8213 119.415 23.6573C119.916 24.4932 120.669 24.9112 121.756 24.9112C122.717 24.9112 123.427 24.535 123.845 23.6991C124.305 22.8631 124.472 21.4838 124.472 19.5611C124.472 17.722 124.263 16.3845 123.845 15.5486C123.427 14.7126 122.717 14.2947 121.714 14.2947ZM146.959 30.93C143.323 30.93 140.564 29.9687 138.516 28.0878C136.552 26.1651 135.549 23.4065 135.549 19.8119C135.549 16.1338 136.51 13.3333 138.349 11.3689C140.188 9.40438 142.863 8.40126 146.291 8.40126C149.592 8.40126 152.059 9.23719 153.856 10.9509C155.653 12.6646 156.531 15.0888 156.531 18.3072V21.6928H143.114C143.198 22.9049 143.615 23.8662 144.451 24.535C145.287 25.2456 146.416 25.5381 147.879 25.5381C149.216 25.5381 150.428 25.4127 151.515 25.162C152.644 24.9112 153.814 24.4514 155.152 23.908V29.2999C153.939 29.8851 152.727 30.303 151.515 30.5538C150.219 30.8046 148.673 30.93 146.959 30.93ZM146.541 13.5423C145.664 13.5423 144.869 13.7931 144.326 14.3783C143.741 14.9634 143.365 15.7576 143.323 16.9697H149.801C149.801 15.883 149.467 15.047 148.924 14.4201C148.255 13.8767 147.461 13.5423 146.541 13.5423ZM174.922 30.5538L173.459 27.7116H173.333C172.33 28.9655 171.285 29.8015 170.24 30.2612C169.154 30.721 167.816 30.9718 166.186 30.9718C164.138 30.9718 162.508 30.3448 161.379 29.1327C160.167 27.9206 159.582 26.1651 159.582 23.908C159.582 21.6092 160.418 19.8537 162.006 18.767C163.595 17.6385 165.935 16.9697 168.986 16.8443L172.623 16.7189V16.3845C172.623 14.5872 171.745 13.7095 169.948 13.7095C168.359 13.7095 166.311 14.2111 163.929 15.2978L161.756 10.3239C164.305 8.98641 167.482 8.35946 171.327 8.35946C174.128 8.35946 176.301 9.07001 177.806 10.4493C179.31 11.8286 180.105 13.7513 180.105 16.2173V30.4284H174.963L174.922 30.5538ZM169.404 25.6217C170.282 25.6217 171.076 25.2874 171.745 24.744C172.372 24.1588 172.706 23.4065 172.706 22.5287V20.815L170.993 20.8986C168.527 20.9822 167.315 21.9018 167.315 23.6155C167.231 24.9948 167.941 25.6217 169.404 25.6217ZM192.518 18.3072C193.396 16.8443 194.19 15.7576 194.859 14.9216L199.749 8.77743H208.15L200.585 18.0564L208.568 30.5538H200L195.235 22.7377L192.811 24.5768V30.4702H185.246V0.626959H192.811V12.372C192.811 14.4201 192.686 16.3845 192.351 18.2654H192.518V18.3072ZM221.651 30.93C218.015 30.93 215.256 29.9687 213.208 28.0878C211.243 26.1651 210.24 23.4065 210.24 19.8119C210.24 16.1338 211.202 13.3333 213.041 11.3689C214.88 9.40438 217.555 8.40126 220.982 8.40126C224.284 8.40126 226.75 9.23719 228.548 10.9509C230.345 12.6646 231.223 15.0888 231.223 18.3072V21.6928H217.764C217.847 22.9049 218.265 23.8662 219.101 24.535C219.937 25.2456 221.066 25.5381 222.529 25.5381C223.866 25.5381 225.078 25.4127 226.165 25.162C227.294 24.9112 228.464 24.4514 229.801 23.908V29.2999C228.589 29.8851 227.377 30.303 226.165 30.5538C224.911 30.8046 223.365 30.93 221.651 30.93ZM221.191 13.5423C220.314 13.5423 219.519 13.7931 218.976 14.3783C218.391 14.9634 218.015 15.7576 217.973 16.9697H224.451C224.451 15.883 224.117 15.047 223.574 14.4201C222.905 13.8767 222.153 13.5423 221.191 13.5423ZM248.527 8.40126C249.154 8.40126 249.781 8.48485 250.366 8.52664L250.826 8.61024L250.115 15.674C249.488 15.5486 248.652 15.4232 247.565 15.4232C245.893 15.4232 244.723 15.7994 244.013 16.5517C243.26 17.3041 242.884 18.3908 242.884 19.7701V30.4284H235.402V8.69383H241.003L242.132 12.2048H242.508C243.135 11.0763 244.013 10.1149 245.099 9.40439C246.311 8.77743 247.44 8.40126 248.527 8.40126Z" fill="url(#paint0_linear_2440_6575)"/>
<defs>
<linearGradient id="paint0_linear_2440_6575" x1="-2.06591" y1="20.0209" x2="251.728" y2="20.0209" gradientUnits="userSpaceOnUse">
<stop stop-color="#F71056"/>
<stop offset="1" stop-color="#B7081C"/>
</linearGradient>
</defs>
</svg>
