<svg width="128" height="48" viewBox="0 0 128 48" fill="none" xmlns="http://www.w3.org/2000/svg">
<path d="M36.0162 26.956C35.1643 25.4006 33.972 24.0584 32.5286 23.0296C30.9926 21.9494 29.302 21.1083 27.5144 20.5348C25.6238 19.9106 23.6407 19.3489 21.565 18.8495C19.9037 18.475 18.4395 18.1317 17.1723 17.8196C16.095 17.5705 15.0419 17.2258 14.0257 16.7897C13.2996 16.4913 12.6499 16.0329 12.125 15.4486C11.6769 14.895 11.4444 14.1976 11.4703 13.4855C11.4703 12.2391 12.0516 11.2323 13.2141 10.4652C14.3767 9.69802 15.9344 9.31343 17.8874 9.31142C19.963 9.31142 21.6243 9.7685 22.8713 10.6826C24.1183 11.5968 24.8454 12.9277 25.0526 14.6755H35.8291C35.7596 12.5554 35.2163 10.4778 34.2392 8.59561C33.3373 6.90634 32.0619 5.44563 30.5102 4.32492C28.8519 3.15593 26.9941 2.30022 25.0285 1.79995C22.8213 1.22449 20.5483 0.941193 18.2675 0.95729C15.9171 0.940329 13.5735 1.21218 11.2893 1.76674C9.28023 2.23932 7.37773 3.08557 5.68081 4.26148C4.11397 5.36881 2.83187 6.83244 1.93981 8.53218C1.02669 10.2578 0.570129 12.3055 0.570129 14.6755C0.570129 17.0051 1.03773 18.9381 1.97298 20.4744C2.89179 21.9971 4.13653 23.2968 5.61748 24.28C7.18487 25.3138 8.89431 26.1135 10.692 26.6539C12.5806 27.2358 14.5013 27.7553 16.4543 28.2124C17.9809 28.5829 19.3476 28.9252 20.5544 29.2393C21.6069 29.4962 22.6301 29.8616 23.6075 30.3297C24.3499 30.678 25.0007 31.1951 25.5082 31.8398C25.9612 32.4754 26.1914 33.2432 26.1628 34.0235C26.1818 34.7877 25.9636 35.539 25.5383 36.1739C25.1181 36.7805 24.5637 37.2818 23.9182 37.6387C23.2083 38.0291 22.4402 38.3024 21.6435 38.4482C20.7707 38.6172 19.8835 38.7011 18.9946 38.6989C16.3417 38.6989 14.2891 38.2015 12.837 37.2068L9.51837 46.017C9.99203 46.1771 10.4778 46.3191 10.9816 46.461C13.6177 47.1305 16.3294 47.4554 19.0489 47.4275C21.4809 47.4468 23.9034 47.1214 26.2443 46.461C28.3285 45.8835 30.291 44.9329 32.0368 43.6552C33.6555 42.4543 34.9767 40.897 35.8985 39.1036C36.8605 37.1787 37.3419 35.0489 37.3014 32.8969C37.3175 30.5209 36.8891 28.5406 36.0162 26.956Z" fill="black"/>
<path d="M38.5323 1.76709H48.5636V25.2166L58.0338 14.4281H69.7305L58.5165 26.4036L71.0398 46.3617H59.2737L51.6288 33.3261L48.5757 36.5699V46.3617H38.5323V1.76709Z" fill="black"/>
<path d="M72.2617 14.4277H82.4167V46.3613H72.2617V14.4277Z" fill="black"/>
<path d="M77.3392 11.1962C80.2701 11.1962 82.646 8.81762 82.646 5.8835C82.646 2.94938 80.2701 0.570801 77.3392 0.570801C74.4083 0.570801 72.0324 2.94938 72.0324 5.8835C72.0324 8.81762 74.4083 11.1962 77.3392 11.1962Z" fill="black"/>
<path d="M87.7386 20.9155H83.6265V14.4279H87.7386V12.1204C87.7386 8.9189 88.6105 6.44528 90.3543 4.69955C91.724 3.36861 93.6347 2.50582 96.0865 2.11117C98.6636 1.7136 101.282 1.66078 103.873 1.95411V9.13637C103.022 9.09328 102.168 9.10339 101.318 9.16663C100.67 9.20289 100.036 9.36173 99.4474 9.63476C98.9488 9.88454 98.5444 10.2893 98.2949 10.7885C97.9969 11.4434 97.8583 12.1597 97.8906 12.8786V14.437H103.87V20.9156H97.8936V46.3615H87.7386V20.9155Z" fill="black"/>
<path d="M119.226 4.3252H109.319V14.4281H105.083V20.9157H109.319V46.3616H119.223L114.439 33.6371L119.223 20.9157H125.019V14.4281H119.226V4.3252Z" fill="black"/>
<path d="M123.013 37.4546C125.119 37.4546 126.826 35.7454 126.826 33.637C126.826 31.5286 125.119 29.8193 123.013 29.8193C120.907 29.8193 119.199 31.5286 119.199 33.637C119.199 35.7454 120.907 37.4546 123.013 37.4546Z" fill="black"/>
</svg>
