<svg width="190" height="36" viewBox="0 0 190 36" fill="none" xmlns="http://www.w3.org/2000/svg">
<g clip-path="url(#clip0_51_1356)">
<rect width="189.474" height="36" fill="#172036"/>
<path d="M16.2093 18.1092C16.2093 19.091 16.976 19.8547 17.9617 19.8547C18.9474 19.8547 19.714 19.091 19.714 18.1092C19.714 17.1274 18.9474 16.3638 17.9617 16.3638C16.976 16.3638 16.2093 17.1274 16.2093 18.1092ZM30.9948 16.3638C30.0091 16.3638 29.2425 17.1274 29.2425 18.1092C29.2425 19.091 30.0091 19.8547 30.9948 19.8547C31.9805 19.8547 32.7472 19.091 32.7472 18.1092C32.7472 17.1274 31.9805 16.3638 30.9948 16.3638ZM30.9948 29.5638C30.0091 29.5638 29.2425 30.3274 29.2425 31.3092C29.2425 32.291 30.0091 33.0547 30.9948 33.0547C31.9805 33.0547 32.7472 32.291 32.7472 31.3092C32.7472 30.3274 31.9805 29.5638 30.9948 29.5638Z" fill="#F3BB2D"/>
<path d="M34.7186 1.85433C32.9662 -0.327488 29.7901 -0.436579 27.9282 1.30888L27.7092 1.52706L27.2711 1.85433C25.5187 3.27251 22.8902 3.16342 21.2473 1.52706V1.41797C20.6997 0.872512 19.9331 0.436149 19.1664 0.217967C19.0569 0.217967 18.8378 0.108876 18.7283 0.108876H16.976C16.8664 0.108876 16.7569 0.108876 16.6474 0.217967H16.4284C16.3188 0.217967 16.2093 0.327058 16.0998 0.327058C16.0998 0.327058 15.9903 0.327058 15.9903 0.436149C15.8807 0.436149 15.7712 0.54524 15.6617 0.54524C15.6617 0.54524 15.5522 0.54524 15.5522 0.65433C15.4427 0.763421 15.3331 0.763421 15.2236 0.872512C15.2236 0.872512 15.1141 0.872512 15.1141 0.981603C15.0046 1.09069 14.895 1.09069 14.7855 1.19978L14.676 1.30888L14.457 1.52706L14.0189 1.85433C12.2665 3.27251 9.63797 3.16342 8.10466 1.52706C8.10466 1.52706 7.99513 1.52706 7.99513 1.41797L7.77609 1.19978C7.11895 0.65433 6.3523 0.217967 5.47612 0.108876H3.50472C3.50472 0.217967 3.39519 0.217967 3.28567 0.327058H3.17615C2.62854 0.54524 2.08092 0.763421 1.64284 1.19978L1.53331 1.30888L1.20475 1.63615C0.766657 2.07251 0.547612 2.61797 0.328567 3.05433C0.328567 3.16342 0.219045 3.27251 0.219045 3.3816C0.219045 3.49069 0.109522 3.59979 0.109522 3.81797C0 4.5816 0 5.34524 0.219045 6.10888C0.219045 6.21797 0.328567 6.32706 0.328567 6.43615V6.54524C0.328567 6.65433 0.438089 6.76342 0.438089 6.87251C0.547612 6.9816 0.547612 7.09069 0.657134 7.30888C0.876179 7.41797 1.09522 7.63615 1.20475 7.74524L1.42379 7.96342L1.64284 8.1816C3.28567 9.81797 3.28567 12.6543 1.53331 14.3998C1.31427 14.618 0.985701 14.9452 0.876179 15.1634C0.766657 15.2725 0.766657 15.3816 0.657134 15.5998V15.7089C0.547612 15.818 0.547612 15.9271 0.438089 16.0361V16.1452C0.438089 16.2543 0.328567 16.3634 0.328567 16.4725V16.5816C0.328567 16.6907 0.328567 16.7998 0.219045 16.9089V18.5452C0.219045 18.6543 0.219045 18.7634 0.328567 18.8725V18.9816C0.547612 19.7452 0.985701 20.5089 1.64284 21.1634C3.39519 22.9089 3.39519 25.7452 1.64284 27.4907L1.53331 27.5998L1.31427 27.818V27.9271C1.20475 28.0361 1.09522 28.1452 1.09522 28.2543C1.09522 28.2543 1.09522 28.3634 0.985701 28.3634C0.876179 28.4725 0.876179 28.5816 0.766657 28.6907L0.657134 28.7998C0.657134 28.9089 0.547612 28.9089 0.547612 29.018C0.547612 29.1271 0.438089 29.1271 0.438089 29.2361C0.438089 29.3452 0.438089 29.3452 0.328567 29.4543C0.109522 29.8907 0 30.4361 0 30.8725V31.7452C0.109522 32.0725 0.109522 32.3998 0.328567 32.618C0.328567 32.7271 0.438089 32.8362 0.438089 32.8362C0.438089 32.8362 0.438089 32.9452 0.547612 32.9452C0.547612 33.0543 0.657134 33.1634 0.657134 33.2725C0.657134 33.2725 0.657134 33.3816 0.766657 33.3816C0.876179 33.5998 0.985701 33.7089 1.09522 33.818C1.09522 33.818 1.09522 33.9271 1.20475 33.9271C1.20475 33.9271 1.20475 34.0362 1.31427 34.0362C1.31427 34.1452 1.42379 34.1452 1.42379 34.1452L1.53331 34.2543C1.64284 34.3634 1.75236 34.3634 1.75236 34.4725L1.86188 34.5816C1.86188 34.5816 1.9714 34.5816 1.9714 34.6907C2.08092 34.7998 2.19045 34.9089 2.29997 34.9089C2.29997 34.9089 2.40949 34.9089 2.40949 35.018C2.51901 35.1271 2.62854 35.1271 2.73806 35.2361H2.84758C2.9571 35.3452 3.06663 35.3452 3.28567 35.3452C3.39519 35.3452 3.61424 35.4543 3.72376 35.4543H3.83328C3.94281 35.4543 4.05233 35.4543 4.16185 35.5634H5.14755C5.47612 35.5634 5.69516 35.4543 6.02373 35.4543H6.13325C6.24277 35.4543 6.3523 35.3452 6.46182 35.3452H6.57134C6.68086 35.3452 6.79039 35.2361 6.89991 35.2361H7.00943C7.22848 35.1271 7.55704 34.9089 7.77609 34.7998L8.10466 34.4725L8.21418 34.3634C9.96654 32.5089 12.8141 32.5089 14.5665 34.3634C16.5379 36.4361 19.8235 36.3271 21.6854 34.0362C22.9997 32.3998 22.9997 29.9998 21.6854 28.2543C19.9331 26.0725 16.7569 25.9634 14.895 27.7089L14.676 27.9271L14.2379 28.2543C12.4855 29.6725 9.85701 29.5634 8.21418 27.9271L7.99513 27.7089L7.66657 27.2725C6.24277 25.5271 6.3523 22.9089 7.99513 21.2725C8.98083 20.3998 9.41892 19.1998 9.41892 17.9998V17.6725C9.41892 16.5816 8.98083 15.4907 8.10466 14.7271C8.10466 14.618 7.99513 14.618 7.99513 14.5089L7.66657 14.0725C6.24277 12.3271 6.3523 9.70888 7.99513 8.07251L8.10466 7.96342L8.21418 7.85433C9.96654 5.99978 12.8141 5.99978 14.5665 7.85433L14.676 7.96342L14.7855 8.07251L15.0046 8.29069C15.1141 8.29069 15.1141 8.39979 15.2236 8.39979C15.3331 8.39979 15.3331 8.50888 15.4427 8.50888C15.5522 8.50888 15.5522 8.61797 15.6617 8.61797C15.7712 8.61797 15.7712 8.72706 15.8807 8.72706C15.9903 8.72706 15.9903 8.83615 16.0998 8.83615C16.2093 8.83615 16.2093 8.94524 16.3188 8.94524C16.4284 8.94524 16.4284 8.94524 16.5379 9.05433C16.6474 9.05433 16.6474 9.05433 16.7569 9.16342H18.6188C18.7283 9.16342 18.8378 9.16342 18.9474 9.05433H19.1664C19.2759 9.05433 19.3855 8.94524 19.495 8.94524H19.6045C19.714 8.94524 19.8235 8.83615 20.0426 8.72706C20.4807 8.50888 20.9188 8.1816 21.2473 7.85433L21.3569 7.74524C23.1092 5.89069 25.9568 5.89069 27.7092 7.74524C29.571 9.92706 32.9662 9.81797 34.7186 7.52706C36.0329 5.89069 36.0329 3.49069 34.7186 1.85433Z" fill="#F3BB2D"/>
<path d="M59.6897 15.3818C59.0325 14.7273 58.4849 14.2909 57.7183 13.9636C57.0611 13.6364 56.2945 13.4182 55.3088 13.4182C54.4326 13.4182 53.5564 13.6364 52.8993 13.9636C52.2422 14.2909 51.6946 14.7273 51.2565 15.3818C50.8184 15.9273 50.4898 16.5818 50.2708 17.3455C50.0517 18.1091 49.9422 18.8727 49.9422 19.6364C49.9422 20.4 50.0517 21.1636 50.3803 21.9273C50.5993 22.6909 51.0374 23.2364 51.4755 23.7818C51.9136 24.3273 52.5707 24.7636 53.2279 25.0909C53.885 25.4182 54.6517 25.5273 55.5278 25.5273C56.5135 25.5273 57.2802 25.3091 57.9373 24.9818C58.5945 24.6545 59.2516 24.2182 59.7992 23.5636L62.0992 25.9636C61.223 26.9455 60.2373 27.6 59.1421 28.0364C58.0468 28.4727 56.8421 28.6909 55.5278 28.6909C54.2136 28.6909 52.8993 28.4727 51.8041 28.0364C50.7088 27.6 49.7232 26.9455 48.9565 26.1818C48.1898 25.4182 47.5327 24.4364 47.0946 23.3455C46.6565 22.2545 46.4375 20.9455 46.4375 19.6364C46.4375 18.3273 46.6565 17.0182 47.0946 15.9273C47.5327 14.8364 48.1898 13.8545 48.9565 12.9818C49.7232 12.2182 50.7088 11.5636 51.8041 11.1273C52.8993 10.6909 54.2136 10.4727 55.5278 10.4727C56.8421 10.4727 58.0468 10.6909 59.1421 11.1273C60.3468 11.5636 61.3325 12.3273 62.2087 13.2L59.6897 15.3818ZM67.1372 19.4182C67.1372 20.2909 67.2467 21.1636 67.5753 21.8182C67.7943 22.5818 68.2324 23.2364 68.6705 23.7818C69.1086 24.3273 69.7657 24.7636 70.4229 24.9818C71.08 25.3091 71.9562 25.4182 72.8324 25.4182C73.7085 25.4182 74.4752 25.3091 75.2419 24.9818C75.899 24.6545 76.5561 24.2182 76.9942 23.7818C77.4323 23.2364 77.8704 22.5818 78.0894 21.8182C78.3085 21.0545 78.5275 20.2909 78.5275 19.4182C78.5275 18.5455 78.418 17.6727 78.0894 17.0182C77.8704 16.2545 77.4323 15.6 76.9942 15.0545C76.5561 14.5091 75.899 14.0727 75.2419 13.8545C74.5847 13.5273 73.7085 13.4182 72.8324 13.4182C71.9562 13.4182 71.1895 13.5273 70.4229 13.8545C69.7657 14.1818 69.1086 14.6182 68.6705 15.0545C68.2324 15.6 67.7943 16.2545 67.5753 17.0182C67.3562 17.7818 67.1372 18.5455 67.1372 19.4182ZM63.6325 19.4182C63.6325 18.1091 63.8515 16.9091 64.2896 15.8182C64.7277 14.7273 65.3848 13.7455 66.261 12.8727C67.1372 12 68.0134 11.3455 69.2181 10.9091C70.3134 10.4727 71.5181 10.1455 72.8324 10.1455C74.1466 10.1455 75.3514 10.3636 76.4466 10.9091C77.5418 11.3455 78.5275 12 79.4037 12.8727C80.2799 13.7455 80.8275 14.7273 81.3751 15.8182C81.8132 16.9091 82.0322 18.1091 82.0322 19.4182C82.0322 20.7273 81.8132 21.9273 81.3751 23.0182C80.937 24.1091 80.2799 25.0909 79.4037 25.9636C78.5275 26.8364 77.6514 27.3818 76.4466 27.9273C75.3514 28.3636 74.1466 28.6909 72.8324 28.6909C71.5181 28.6909 70.3134 28.4727 69.2181 27.9273C68.1229 27.4909 67.1372 26.8364 66.261 25.9636C65.3848 25.0909 64.8372 24.2182 64.2896 23.0182C63.9611 21.9273 63.6325 20.7273 63.6325 19.4182ZM85.4274 28.2545H88.7131V10.8H85.4274V28.2545ZM84.6608 4.47273C84.6608 3.81818 84.8798 3.27273 85.3179 2.72727C85.756 2.29091 86.3036 1.96364 86.9607 1.96364C87.6179 1.96364 88.1655 2.18182 88.6036 2.72727C89.0417 3.16364 89.2607 3.81818 89.2607 4.47273C89.2607 5.12727 89.0417 5.67273 88.6036 6.21818C88.1655 6.65454 87.6179 6.98182 86.9607 6.98182C86.3036 6.98182 85.756 6.76364 85.3179 6.21818C84.8798 5.78182 84.6608 5.12727 84.6608 4.47273ZM93.313 10.8H96.5987V13.5273H96.7082C97.1463 12.5455 97.8035 11.7818 98.8987 11.2364C99.8844 10.6909 101.089 10.3636 102.513 10.3636C103.389 10.3636 104.156 10.4727 104.922 10.8C105.689 11.0182 106.346 11.4545 106.894 12C107.441 12.5455 107.88 13.2 108.318 14.0727C108.646 14.9455 108.865 15.9273 108.865 17.1273V28.3636H105.58V18C105.58 17.2364 105.47 16.4727 105.251 15.9273C105.032 15.3818 104.703 14.8364 104.375 14.5091C104.046 14.1818 103.608 13.8545 103.061 13.7455C102.622 13.6364 102.075 13.5273 101.527 13.5273C100.87 13.5273 100.213 13.6364 99.6653 13.8545C99.1177 14.0727 98.5701 14.4 98.132 14.9455C97.6939 15.3818 97.3654 16.0364 97.1463 16.8C96.9273 17.5636 96.8178 18.4364 96.8178 19.4182V28.4727H93.5321V10.8H93.313ZM121.022 25.5273C121.898 25.5273 122.665 25.4182 123.432 25.0909C124.198 24.7636 124.746 24.3273 125.294 23.7818C125.732 23.2364 126.17 22.5818 126.389 21.8182C126.608 21.0545 126.827 20.2909 126.827 19.3091C126.827 18.4364 126.717 17.5636 126.389 16.8C126.17 16.0364 125.732 15.3818 125.294 14.8364C124.746 14.2909 124.198 13.8545 123.432 13.5273C122.665 13.2 121.898 13.0909 121.022 13.0909C120.146 13.0909 119.379 13.2 118.613 13.5273C117.846 13.8545 117.298 14.2909 116.751 14.8364C116.313 15.3818 115.875 16.0364 115.656 16.8C115.437 17.5636 115.218 18.3273 115.218 19.3091C115.218 20.1818 115.327 21.0545 115.656 21.8182C115.875 22.5818 116.313 23.2364 116.751 23.7818C117.189 24.3273 117.846 24.7636 118.613 25.0909C119.27 25.3091 120.146 25.5273 121.022 25.5273ZM130.113 28.1455H126.827V25.6364H126.717C126.06 26.6182 125.184 27.2727 124.089 27.8182C122.994 28.3636 121.789 28.5818 120.584 28.5818C119.27 28.5818 117.956 28.3636 116.86 27.9273C115.765 27.4909 114.779 26.8364 114.013 25.9636C113.246 25.0909 112.589 24.1091 112.26 23.0182C111.822 21.9273 111.603 20.7273 111.603 19.4182C111.603 18.1091 111.822 16.9091 112.26 15.7091C112.698 14.6182 113.246 13.6364 114.013 12.7636C114.779 11.8909 115.765 11.2364 116.86 10.8C117.956 10.3636 119.16 10.1455 120.584 10.1455C121.789 10.1455 122.994 10.3636 124.089 10.9091C125.184 11.4545 126.06 12.2182 126.608 13.0909H126.717V0H130.003V28.1455H130.113ZM146.869 18C146.869 17.2364 146.76 16.5818 146.541 15.9273C146.322 15.2727 145.993 14.7273 145.555 14.2909C145.117 13.8545 144.569 13.5273 144.022 13.2C143.365 12.9818 142.708 12.7636 141.831 12.7636C141.065 12.7636 140.298 12.8727 139.641 13.2C138.984 13.5273 138.436 13.8545 137.889 14.4C137.451 14.8364 137.012 15.3818 136.793 16.0364C136.574 16.6909 136.355 17.2364 136.355 17.7818H146.869V18ZM136.355 20.7273C136.355 21.4909 136.574 22.1455 136.903 22.8C137.232 23.4545 137.67 24 138.217 24.4364C138.765 24.8727 139.422 25.2 140.079 25.4182C140.846 25.6364 141.503 25.7455 142.27 25.7455C143.255 25.7455 144.241 25.5273 145.008 24.9818C145.774 24.5455 146.431 23.8909 147.089 23.1273L149.608 25.0909C147.746 27.4909 145.117 28.6909 141.831 28.6909C140.408 28.6909 139.203 28.4727 138.108 28.0364C137.012 27.6 136.027 26.9455 135.26 26.0727C134.493 25.2 133.836 24.3273 133.508 23.1273C133.07 22.0364 132.851 20.8364 132.851 19.5273C132.851 18.2182 133.07 17.0182 133.508 15.9273C133.946 14.8364 134.603 13.8545 135.37 12.9818C136.136 12.1091 137.122 11.5636 138.217 11.0182C139.312 10.5818 140.517 10.3636 141.831 10.3636C143.365 10.3636 144.679 10.5818 145.774 11.1273C146.869 11.6727 147.746 12.3273 148.403 13.2C149.06 14.0727 149.608 15.0545 149.936 16.1455C150.265 17.2364 150.374 18.3273 150.374 19.5273V20.7273H136.355ZM163.298 15.1636C162.86 14.7273 162.422 14.2909 161.874 13.9636C161.326 13.6364 160.56 13.4182 159.793 13.4182C159.026 13.4182 158.369 13.6364 157.712 13.9636C157.165 14.2909 156.836 14.7273 156.836 15.3818C156.836 15.9273 157.055 16.3636 157.384 16.5818C157.712 16.9091 158.15 17.1273 158.588 17.3455C159.026 17.5636 159.574 17.6727 160.012 17.7818C160.56 17.8909 160.998 18 161.326 18C161.984 18.2182 162.75 18.3273 163.298 18.6545C163.955 18.8727 164.503 19.2 164.941 19.6364C165.379 20.0727 165.707 20.5091 166.036 21.0545C166.255 21.6 166.474 22.2545 166.474 23.1273C166.474 24.1091 166.255 24.9818 165.817 25.6364C165.379 26.2909 164.831 26.9455 164.174 27.3818C163.517 27.8182 162.75 28.1455 161.874 28.3636C160.998 28.5818 160.122 28.6909 159.355 28.6909C157.931 28.6909 156.617 28.4727 155.522 28.0364C154.427 27.6 153.441 26.8364 152.565 25.6364L155.084 23.5636C155.631 24.1091 156.179 24.5455 156.836 24.9818C157.493 25.4182 158.26 25.6364 159.245 25.6364C159.684 25.6364 160.122 25.6364 160.56 25.5273C160.998 25.4182 161.326 25.3091 161.655 25.0909C161.984 24.8727 162.203 24.6545 162.422 24.4364C162.641 24.1091 162.75 23.7818 162.75 23.4545C162.75 23.0182 162.641 22.5818 162.312 22.2545C161.984 21.9273 161.655 21.7091 161.217 21.4909C160.779 21.2727 160.341 21.1636 159.903 21.0545L158.588 20.7273C157.931 20.5091 157.165 20.4 156.617 20.1818C155.96 19.9636 155.412 19.6364 154.974 19.3091C154.536 18.9818 154.098 18.4364 153.769 17.8909C153.441 17.3455 153.331 16.5818 153.331 15.8182C153.331 14.9455 153.55 14.0727 153.879 13.4182C154.207 12.7636 154.755 12.2182 155.412 11.7818C156.069 11.3455 156.726 11.0182 157.493 10.8C158.26 10.5818 159.136 10.4727 159.903 10.4727C161.107 10.4727 162.203 10.6909 163.298 11.1273C164.393 11.5636 165.269 12.3273 165.926 13.3091L163.298 15.1636ZM169.65 0.436364H172.936V18.1091L180.383 10.6909H184.874L176.879 18.5455L185.64 27.9273H180.931L172.936 18.9818V27.9273H169.65V0.436364Z" fill="white"/>
</g>
<defs>
<clipPath id="clip0_51_1356">
<rect width="189.474" height="36" fill="white"/>
</clipPath>
</defs>
</svg>
