<svg width="122" height="20" viewBox="0 0 122 20" fill="none" xmlns="http://www.w3.org/2000/svg">
<g clip-path="url(#clip0_55_1960)">
<path d="M12.5434 2.46924H0V19.7534H12.5443C17.0133 19.7534 20.9394 16.9878 20.9394 11.1113C20.9394 5.23481 17.0124 2.46924 12.5434 2.46924ZM17.473 11.6812L14.9826 15.6456C14.8879 15.796 14.7567 15.9199 14.6012 16.0057C14.4456 16.0915 14.2708 16.1365 14.0931 16.1364H4.80148C4.52296 16.1364 4.25585 16.0257 4.05891 15.8288C3.86196 15.6318 3.75132 15.3647 3.75132 15.0862V7.15816C3.75132 6.87961 3.86195 6.61247 4.05889 6.41548C4.25582 6.21848 4.52294 6.10777 4.80148 6.10769H14.0931C14.2708 6.10763 14.4456 6.15261 14.6011 6.23843C14.7567 6.32425 14.8879 6.44811 14.9826 6.59842L17.473 10.5638C17.5781 10.7312 17.6338 10.9249 17.6338 11.1225C17.6338 11.3201 17.5781 11.5138 17.473 11.6812Z" fill="#32302D"/>
<path d="M30.2088 8.74255V12.9383C30.2088 15.7532 30.752 16.4694 33.32 16.4694C34.6533 16.4694 35.394 16.4694 37.0978 16.224V19.6306C35.6903 19.876 34.0853 20.0011 32.1346 20.0011C28.3817 20.0002 25.9627 18.5927 25.9627 15.3827V8.74255H22.1347V5.20991H25.9627V2.19775L30.2097 0.987793V5.20991H37.0987V8.74255H30.2088Z" fill="#32302D"/>
<path d="M54.9966 5.457V8.9878C53.614 8.64184 52.5028 8.4937 51.2683 8.4937C48.8977 8.4937 46.1819 9.03718 43.6138 11.0372V19.7532H39.3917V5.20979H43.6138V7.67909C45.7868 5.72843 48.3546 4.96289 51.0708 4.96289C52.7994 4.96289 54.009 5.20979 54.9966 5.457Z" fill="#32302D"/>
<path d="M75.0772 12.4198V19.7532H70.8302V17.9507C68.2625 19.21 65.4227 20.0001 61.9907 20.0001C57.9167 20.0001 55.3735 18.6914 55.3735 15.4075C55.3735 11.6298 59.5217 10.4444 64.1388 10.4444C66.633 10.4444 68.929 10.8394 70.8302 11.4816C70.8302 8.71606 67.2746 8.4937 65.2994 8.4937C63.3978 8.4937 61.0773 8.66668 58.0894 9.55552L56.5835 6.46913C59.5462 5.50607 62.4599 4.96289 65.4969 4.96289C71.5712 4.96289 75.0278 6.91355 75.0772 12.4198ZM70.8302 14.0988C69.3488 13.6298 67.3488 13.2093 64.6575 13.2093C61.4984 13.2093 59.5969 13.7525 59.5969 15.2336C59.5969 16.7647 61.004 16.888 63.2016 16.888C65.4978 16.888 68.6584 16.1721 70.8311 15.2336L70.8302 14.0988Z" fill="#32302D"/>
<path d="M96.1693 5.20996L88.7865 19.7534H82.7619L75.4037 5.20996H80.0963L85.8011 16.7657L91.48 5.20996H96.1693Z" fill="#32302D"/>
<path d="M111.251 14.5432L115.054 15.6525C113.958 18.2264 110.879 20.0001 105.496 20.0001C99.9656 20.0001 95.6693 17.8271 95.6693 12.4941C95.6693 7.13591 99.842 4.96289 105.743 4.96289C111.274 4.96289 115.694 6.86447 115.694 13.4817H99.9908C100.46 15.8025 102.682 16.5677 105.497 16.5677C108.411 16.5677 110.189 16.0249 111.251 14.5432ZM100.14 10.79H111.177C110.46 8.7409 108.386 8.17288 105.72 8.17288C102.831 8.17288 100.806 8.74244 100.14 10.79Z" fill="#32302D"/>
<path d="M121.916 0.00146484V19.7533H117.694V0.00146484H121.916Z" fill="#32302D"/>
</g>
<defs>
<clipPath id="clip0_55_1960">
<rect width="121.916" height="20" fill="white"/>
</clipPath>
</defs>
</svg>
