<svg width="512" height="512" viewBox="0 0 512 512" fill="none" xmlns="http://www.w3.org/2000/svg">
<rect width="512" height="512" fill="#CF772A"/>
<path d="M299.743 136.46V123.587C299.743 119.908 303.421 116.23 307.099 116.23H321.812C325.49 116.23 329.168 119.908 329.168 123.587V149.334" fill="white"/>
<path d="M261.122 130.942C257.444 129.103 251.926 129.103 248.248 130.942L180.202 180.597V241.287C180.202 252.322 187.558 259.678 198.593 259.678H226.179V278.069H240.892V294.62L231.696 307.494L248.248 320.368L233.536 331.402V351.632L240.892 362.667V382.896L233.536 393.931L253.765 416H266.639L283.191 395.77V257.839H310.777C321.811 257.839 329.168 250.482 329.168 239.448V178.758L261.122 130.942ZM228.018 217.379C228.018 208.184 235.375 200.827 244.57 200.827H264.8C273.995 200.827 281.352 208.184 281.352 217.379V246.804H228.018V217.379Z" fill="white"/>
<path d="M354.916 182.437C353.077 182.437 351.238 182.437 349.399 180.598L262.962 119.908C261.123 118.069 257.445 118.069 255.606 118.069C253.767 118.069 250.088 118.069 248.249 119.908L161.813 180.598C156.295 184.276 148.939 182.437 147.1 176.92C145.261 171.402 145.261 165.885 150.778 162.207L237.215 101.517C242.732 99.6779 248.249 96 255.606 96C262.962 96 270.318 97.8389 275.836 101.517L362.273 162.207C367.79 165.885 367.79 173.241 364.112 176.92C362.273 180.598 358.594 182.437 354.916 182.437Z" fill="white"/>
</svg>
