<svg width="80" height="80" viewBox="0 0 80 80" fill="none" xmlns="http://www.w3.org/2000/svg">
<path d="M71.6356 35.035H44.9756V8.375L46.7956 8.77C52.7816 10.0795 58.2663 13.0786 62.5992 17.4114C66.932 21.7442 69.9311 27.229 71.2406 33.215L71.6356 35.035ZM47.9756 32.035H67.8506C66.4909 27.3107 63.954 23.0089 60.4778 19.5327C57.0017 16.0565 52.6999 13.5197 47.9756 12.16V32.035Z" fill="white"/>
<path d="M39.9757 72.035C31.6294 72.0287 23.6159 68.7617 17.6441 62.9308C11.6724 57.0999 8.21517 49.1665 8.00971 40.8228C7.80425 32.479 10.8668 24.3851 16.5443 18.2674C22.2218 12.1496 30.0648 8.49213 38.4007 8.075L39.9757 8V40.035H72.0107L71.9357 41.61C71.5434 49.8183 68.0036 57.5599 62.0516 63.226C56.0997 68.8921 48.1934 72.0469 39.9757 72.035V72.035ZM36.9757 11.19C31.5252 11.757 26.3469 13.8567 22.0408 17.2459C17.7346 20.635 14.4769 25.1748 12.6449 30.3394C10.8129 35.504 10.4817 41.082 11.6897 46.4271C12.8977 51.7721 15.5954 56.6656 19.4702 60.5404C23.3451 64.4153 28.2385 67.113 33.5836 68.321C38.9287 69.529 44.5067 69.1978 49.6713 67.3658C54.8359 65.5338 59.3757 62.2761 62.7648 57.9699C66.154 53.6638 68.2537 48.4855 68.8207 43.035H36.9757V11.19Z" fill="white"/>
</svg>
