<svg width="80" height="80" viewBox="0 0 80 80" fill="none" xmlns="http://www.w3.org/2000/svg">
<path d="M66.5 13.5H13.5C12.0413 13.5 10.6424 14.0795 9.61092 15.1109C8.57947 16.1424 8 17.5413 8 19V51C8 52.4587 8.57947 53.8577 9.61092 54.8891C10.6424 55.9205 12.0413 56.5 13.5 56.5H37.215C38.1638 59.4083 40.0081 61.942 42.4841 63.7387C44.96 65.5354 47.9408 66.5029 51 66.5029C54.0592 66.5029 57.04 65.5354 59.5159 63.7387C61.9919 61.942 63.8362 59.4083 64.785 56.5H66.5C67.9587 56.5 69.3576 55.9205 70.3891 54.8891C71.4205 53.8577 72 52.4587 72 51V19C72 17.5413 71.4205 16.1424 70.3891 15.1109C69.3576 14.0795 67.9587 13.5 66.5 13.5ZM11 19C11 18.337 11.2634 17.7011 11.7322 17.2322C12.2011 16.7634 12.837 16.5 13.5 16.5H66.5C67.163 16.5 67.7989 16.7634 68.2678 17.2322C68.7366 17.7011 69 18.337 69 19V26.5H11V19ZM51 63.5C48.7443 63.4994 46.5387 62.8355 44.6575 61.5908C42.7763 60.3462 41.3027 58.5758 40.42 56.5C39.815 55.0768 39.5022 53.5465 39.5 52C39.5 48.95 40.7116 46.025 42.8683 43.8683C45.0249 41.7116 47.95 40.5 51 40.5C54.05 40.5 56.9751 41.7116 59.1317 43.8683C61.2884 46.025 62.5 48.95 62.5 52C62.4978 53.5465 62.185 55.0768 61.58 56.5C60.6973 58.5758 59.2237 60.3462 57.3425 61.5908C55.4613 62.8355 53.2557 63.4994 51 63.5ZM69 51C69 51.663 68.7366 52.2989 68.2678 52.7678C67.7989 53.2366 67.163 53.5 66.5 53.5H65.425C65.4752 53.0016 65.5002 52.5009 65.5 52C65.5 48.1544 63.9723 44.4662 61.2531 41.7469C58.5338 39.0277 54.8456 37.5 51 37.5C47.1544 37.5 43.4662 39.0277 40.7469 41.7469C38.0277 44.4662 36.5 48.1544 36.5 52C36.4998 52.5009 36.5248 53.0016 36.575 53.5H13.5C12.837 53.5 12.2011 53.2366 11.7322 52.7678C11.2634 52.2989 11 51.663 11 51V29.5H69V51Z" fill="white"/>
</svg>
