<svg width="48" height="48" viewBox="0 0 48 48" fill="none" xmlns="http://www.w3.org/2000/svg">
<circle cx="24" cy="24" r="24" fill="#A32A30"/>
<path d="M26.7777 15H13V33H26.7787C31.6875 33 36 30.1199 36 24C36 17.8801 31.6865 15 26.7777 15ZM32.1925 24.5935L29.457 28.7221C29.353 28.8787 29.2089 29.0077 29.038 29.0971C28.8671 29.1865 28.6751 29.2333 28.48 29.2332H18.274C17.9681 29.2332 17.6747 29.118 17.4583 28.9129C17.242 28.7078 17.1205 28.4296 17.1205 28.1395V19.8831C17.1205 19.593 17.242 19.3148 17.4583 19.1097C17.6746 18.9045 17.968 18.7892 18.274 18.7892H28.48C28.6751 18.7891 28.8671 18.8359 29.0379 18.9253C29.2088 19.0147 29.353 19.1437 29.457 19.3002L32.1925 23.4299C32.3079 23.6042 32.3691 23.8058 32.3691 24.0117C32.3691 24.2175 32.3079 24.4191 32.1925 24.5935Z" fill="white"/>
</svg>
