<svg width="32" height="21" viewBox="0 0 32 21" fill="none" xmlns="http://www.w3.org/2000/svg">
<path fill-rule="evenodd" clip-rule="evenodd" d="M0 1.5C0 0.671573 0.671573 0 1.5 0H30.5C31.3284 0 32 0.671573 32 1.5V19.5C32 20.3284 31.3284 21 30.5 21H1.5C0.671573 21 0 20.3284 0 19.5V1.5Z" fill="url(#paint0_radial_3493_9951)"/>
<path fill-rule="evenodd" clip-rule="evenodd" d="M0 1.5C0 0.671573 0.671573 0 1.5 0H30.5C31.3284 0 32 0.671573 32 1.5V19.5C32 20.3284 31.3284 21 30.5 21H1.5C0.671573 21 0 20.3284 0 19.5V1.5Z" fill="#E5E5E5" fill-opacity="0.01"/>
<mask id="path-3-outside-1_3493_9951" maskUnits="userSpaceOnUse" x="3.56836" y="7" width="25" height="7" fill="black">
<rect fill="white" x="3.56836" y="7" width="25" height="7"/>
<path fill-rule="evenodd" clip-rule="evenodd" d="M7.39679 11.0672L8.06364 9.23249H8.07798L8.72331 11.0672H7.39679ZM7.50435 8L5.56836 13H6.70127L7.10281 11.8866H9.01729L9.40449 13H10.5733L8.65877 8H7.50435ZM11.0178 8V13H12.0719V9.4916H12.0862L13.341 13H14.2086L15.4634 9.45658H15.4778V13H16.5318V8H14.9472L13.8142 11.4384H13.7999L12.6025 8H11.0178ZM17.5213 8V13H21.4076V12.0756H18.647V10.8501H21.128V9.9958H18.647V8.92437H21.3503V8H17.5213ZM23.4225 10.381L21.6371 13H22.8991L24.0391 11.2703L25.1577 13H26.4986L24.7132 10.388L26.3552 8H25.1219L24.0822 9.59664L23.0783 8H21.7733L23.4225 10.381Z"/>
</mask>
<path fill-rule="evenodd" clip-rule="evenodd" d="M7.39679 11.0672L8.06364 9.23249H8.07798L8.72331 11.0672H7.39679ZM7.50435 8L5.56836 13H6.70127L7.10281 11.8866H9.01729L9.40449 13H10.5733L8.65877 8H7.50435ZM11.0178 8V13H12.0719V9.4916H12.0862L13.341 13H14.2086L15.4634 9.45658H15.4778V13H16.5318V8H14.9472L13.8142 11.4384H13.7999L12.6025 8H11.0178ZM17.5213 8V13H21.4076V12.0756H18.647V10.8501H21.128V9.9958H18.647V8.92437H21.3503V8H17.5213ZM23.4225 10.381L21.6371 13H22.8991L24.0391 11.2703L25.1577 13H26.4986L24.7132 10.388L26.3552 8H25.1219L24.0822 9.59664L23.0783 8H21.7733L23.4225 10.381Z" fill="#1793C0" fill-opacity="0.01"/>
<path d="M7.39679 11.0672L6.45695 10.7256L5.96934 12.0672H7.39679V11.0672ZM8.06364 9.23249V8.23249H7.36309L7.12379 8.8909L8.06364 9.23249ZM8.07798 9.23249L9.02132 8.90069L8.7863 8.23249H8.07798V9.23249ZM8.72331 11.0672V12.0672H10.1351L9.66665 10.7354L8.72331 11.0672ZM7.50435 8V7H6.8192L6.57181 7.63892L7.50435 8ZM5.56836 13L4.63582 12.6389L4.10882 14H5.56836V13ZM6.70127 13V14H7.40368L7.64197 13.3392L6.70127 13ZM7.10281 11.8866V10.8866H6.4004L6.16211 11.5473L7.10281 11.8866ZM9.01729 11.8866L9.96181 11.5581L9.72828 10.8866H9.01729V11.8866ZM9.40449 13L8.45997 13.3285L8.6935 14H9.40449V13ZM10.5733 13V14H12.0269L11.5071 12.6424L10.5733 13ZM8.65877 8L9.59266 7.64242L9.34668 7H8.65877V8ZM11.0178 8V7H10.0178V8H11.0178ZM11.0178 13H10.0178V14H11.0178V13ZM12.0719 13V14H13.0719V13H12.0719ZM12.0719 9.4916V8.4916H11.0719V9.4916H12.0719ZM12.0862 9.4916L13.0278 9.15483L12.7906 8.4916H12.0862V9.4916ZM13.341 13L12.3994 13.3368L12.6366 14H13.341V13ZM14.2086 13V14H14.9153L15.1513 13.3338L14.2086 13ZM15.4634 9.45658V8.45658H14.7567L14.5208 9.12277L15.4634 9.45658ZM15.4778 9.45658H16.4778V8.45658H15.4778V9.45658ZM15.4778 13H14.4778V14H15.4778V13ZM16.5318 13V14H17.5318V13H16.5318ZM16.5318 8H17.5318V7H16.5318V8ZM14.9472 8V7H14.2238L13.9974 7.68706L14.9472 8ZM13.8142 11.4384V12.4384H14.5376L14.764 11.7513L13.8142 11.4384ZM13.7999 11.4384L12.8555 11.7673L13.0893 12.4384H13.7999V11.4384ZM12.6025 8L13.5468 7.67111L13.3131 7H12.6025V8ZM17.5213 8V7H16.5213V8H17.5213ZM17.5213 13H16.5213V14H17.5213V13ZM21.4076 13V14H22.4076V13H21.4076ZM21.4076 12.0756H22.4076V11.0756H21.4076V12.0756ZM18.647 12.0756H17.647V13.0756H18.647V12.0756ZM18.647 10.8501V9.85014H17.647V10.8501H18.647ZM21.128 10.8501V11.8501H22.128V10.8501H21.128ZM21.128 9.9958H22.128V8.9958H21.128V9.9958ZM18.647 9.9958H17.647V10.9958H18.647V9.9958ZM18.647 8.92437V7.92437H17.647V8.92437H18.647ZM21.3503 8.92437V9.92437H22.3503V8.92437H21.3503ZM21.3503 8H22.3503V7H21.3503V8ZM23.4225 10.381L24.2488 10.9442L24.6358 10.3764L24.2445 9.81155L23.4225 10.381ZM21.6371 13L20.8108 12.4367L19.7451 14H21.6371V13ZM22.8991 13V14H23.4376L23.734 13.5503L22.8991 13ZM24.0391 11.2703L24.8789 10.7273L24.0471 9.44113L23.2042 10.72L24.0391 11.2703ZM25.1577 13L24.318 13.543L24.6135 14H25.1577V13ZM26.4986 13V14H28.3934L27.3241 12.4357L26.4986 13ZM24.7132 10.388L23.8892 9.82136L23.5007 10.3863L23.8876 10.9523L24.7132 10.388ZM26.3552 8L27.1792 8.5666L28.2564 7H26.3552V8ZM25.1219 8V7H24.5797L24.2839 7.45432L25.1219 8ZM24.0822 9.59664L23.2356 10.1289L24.0674 11.4519L24.9202 10.1423L24.0822 9.59664ZM23.0783 8L23.9249 7.46774L23.6308 7H23.0783V8ZM21.7733 8V7H19.8642L20.9513 8.5694L21.7733 8ZM8.33664 11.4088L9.00348 9.57408L7.12379 8.8909L6.45695 10.7256L8.33664 11.4088ZM8.06364 10.2325H8.07798V8.23249H8.06364V10.2325ZM7.13463 9.5643L7.77996 11.399L9.66665 10.7354L9.02132 8.90069L7.13463 9.5643ZM8.72331 10.0672H7.39679V12.0672H8.72331V10.0672ZM6.57181 7.63892L4.63582 12.6389L6.5009 13.3611L8.43689 8.36108L6.57181 7.63892ZM5.56836 14H6.70127V12H5.56836V14ZM7.64197 13.3392L8.04351 12.2258L6.16211 11.5473L5.76057 12.6608L7.64197 13.3392ZM7.10281 12.8866H9.01729V10.8866H7.10281V12.8866ZM8.07277 12.215L8.45997 13.3285L10.349 12.6715L9.96181 11.5581L8.07277 12.215ZM9.40449 14H10.5733V12H9.40449V14ZM11.5071 12.6424L9.59266 7.64242L7.72489 8.35758L9.63937 13.3576L11.5071 12.6424ZM8.65877 7H7.50435V9H8.65877V7ZM10.0178 8V13H12.0178V8H10.0178ZM11.0178 14H12.0719V12H11.0178V14ZM13.0719 13V9.4916H11.0719V13H13.0719ZM12.0719 10.4916H12.0862V8.4916H12.0719V10.4916ZM11.1446 9.82836L12.3994 13.3368L14.2826 12.6632L13.0278 9.15483L11.1446 9.82836ZM13.341 14H14.2086V12H13.341V14ZM15.1513 13.3338L16.4061 9.79039L14.5208 9.12277L13.266 12.6662L15.1513 13.3338ZM15.4634 10.4566H15.4778V8.45658H15.4634V10.4566ZM14.4778 9.45658V13H16.4778V9.45658H14.4778ZM15.4778 14H16.5318V12H15.4778V14ZM17.5318 13V8H15.5318V13H17.5318ZM16.5318 7H14.9472V9H16.5318V7ZM13.9974 7.68706L12.8645 11.1254L14.764 11.7513L15.8969 8.31294L13.9974 7.68706ZM13.8142 10.4384H13.7999V12.4384H13.8142V10.4384ZM14.7443 11.1095L13.5468 7.67111L11.6581 8.32889L12.8555 11.7673L14.7443 11.1095ZM12.6025 7H11.0178V9H12.6025V7ZM16.5213 8V13H18.5213V8H16.5213ZM17.5213 14H21.4076V12H17.5213V14ZM22.4076 13V12.0756H20.4076V13H22.4076ZM21.4076 11.0756H18.647V13.0756H21.4076V11.0756ZM19.647 12.0756V10.8501H17.647V12.0756H19.647ZM18.647 11.8501H21.128V9.85014H18.647V11.8501ZM22.128 10.8501V9.9958H20.128V10.8501H22.128ZM21.128 8.9958H18.647V10.9958H21.128V8.9958ZM19.647 9.9958V8.92437H17.647V9.9958H19.647ZM18.647 9.92437H21.3503V7.92437H18.647V9.92437ZM22.3503 8.92437V8H20.3503V8.92437H22.3503ZM21.3503 7H17.5213V9H21.3503V7ZM22.5962 9.81768L20.8108 12.4367L22.4633 13.5633L24.2488 10.9442L22.5962 9.81768ZM21.6371 14H22.8991V12H21.6371V14ZM23.734 13.5503L24.8741 11.8206L23.2042 10.72L22.0641 12.4497L23.734 13.5503ZM23.1994 11.8133L24.318 13.543L25.9974 12.457L24.8789 10.7273L23.1994 11.8133ZM25.1577 14H26.4986V12H25.1577V14ZM27.3241 12.4357L25.5387 9.82365L23.8876 10.9523L25.673 13.5643L27.3241 12.4357ZM25.5371 10.9546L27.1792 8.5666L25.5312 7.4334L23.8892 9.82136L25.5371 10.9546ZM26.3552 7H25.1219V9H26.3552V7ZM24.2839 7.45432L23.2442 9.05096L24.9202 10.1423L25.9599 8.54568L24.2839 7.45432ZM24.9287 9.06437L23.9249 7.46774L22.2317 8.53226L23.2356 10.1289L24.9287 9.06437ZM23.0783 7H21.7733V9H23.0783V7ZM20.9513 8.5694L22.6004 10.9504L24.2445 9.81155L22.5954 7.4306L20.9513 8.5694Z" fill="white" mask="url(#path-3-outside-1_3493_9951)"/>
<defs>
<radialGradient id="paint0_radial_3493_9951" cx="0" cy="0" r="1" gradientUnits="userSpaceOnUse" gradientTransform="translate(10.7461 3.98047) rotate(90) scale(21 32)">
<stop stop-color="#71C8F2"/>
<stop offset="1" stop-color="#0071BD"/>
</radialGradient>
</defs>
</svg>
