<svg width="24" height="24" viewBox="0 0 24 24" fill="none" xmlns="http://www.w3.org/2000/svg">
<path d="M11.8054 16.4727C11.545 16.7331 11.1229 16.7331 10.8626 16.4727L6.86258 12.4727C6.73756 12.3477 6.66732 12.1781 6.66732 12.0013C6.66732 11.8245 6.73756 11.6549 6.86258 11.5299L10.8626 7.5299C11.1229 7.26955 11.545 7.26955 11.8054 7.5299C12.0657 7.79025 12.0657 8.21236 11.8054 8.47271L8.94346 11.3346L16.6673 11.3346C17.0355 11.3346 17.334 11.6331 17.334 12.0013C17.334 12.3695 17.0355 12.668 16.6673 12.668L8.94346 12.668L11.8054 15.5299C12.0657 15.7902 12.0657 16.2124 11.8054 16.4727Z" fill="#32302D"/>
</svg>
