<svg width="17" height="20" viewBox="0 0 17 20" fill="none" xmlns="http://www.w3.org/2000/svg">
<path d="M11.7789 4.82846C10.2668 4.82846 9.04701 5.74333 8.25921 5.74333C7.43329 5.74333 6.32783 4.87929 5.01906 4.87929C2.52859 4.87929 0 6.95044 0 10.8259C0 13.2529 0.94028 15.8069 2.09657 17.4714C3.07497 18.8564 3.95172 20 5.19695 20C6.42948 20 6.97586 19.1868 8.51334 19.1868C10.0635 19.1868 10.4193 19.9746 11.7789 19.9746C13.1385 19.9746 14.0407 18.7421 14.892 17.5222C15.8323 16.1118 16.2389 14.7395 16.2516 14.676C16.1754 14.6506 13.5832 13.5959 13.5832 10.6226C13.5832 8.05591 15.6163 6.91232 15.7306 6.82338C14.3964 4.87929 12.3507 4.82846 11.7789 4.82846ZM11.0801 3.18933C11.69 2.43964 12.122 1.42313 12.122 0.393901C12.122 0.25413 12.1093 0.114358 12.0839 0C11.0928 0.0381194 9.87294 0.660737 9.14867 1.51207C8.58958 2.1601 8.05591 3.18933 8.05591 4.21855C8.05591 4.37103 8.08132 4.53621 8.09403 4.58704C8.15756 4.59975 8.25921 4.61245 8.36086 4.61245C9.26302 4.61245 10.4066 4.00254 11.0801 3.18933Z" fill="black"/>
</svg>
