<svg width="16" height="16" viewBox="0 0 16 16" fill="none" xmlns="http://www.w3.org/2000/svg">
<path d="M12.6666 8.75C13.0808 8.75 13.4166 8.41421 13.4166 8C13.4166 7.58579 13.0808 7.25 12.6666 7.25L12.6666 8.75ZM3.33325 7.25C2.91904 7.25 2.58325 7.58579 2.58325 8C2.58325 8.41421 2.91904 8.75 3.33325 8.75L3.33325 7.25ZM12.6666 7.25L3.33325 7.25L3.33325 8.75L12.6666 8.75L12.6666 7.25Z" fill="#625F5C"/>
<path d="M6.80292 12.5303C7.09582 12.8232 7.57069 12.8232 7.86358 12.5303C8.15648 12.2374 8.15648 11.7626 7.86358 11.4697L6.80292 12.5303ZM3.33325 8L2.80292 7.46967C2.66227 7.61032 2.58325 7.80109 2.58325 8C2.58325 8.19891 2.66227 8.38968 2.80292 8.53033L3.33325 8ZM7.86358 4.53033C8.15648 4.23744 8.15648 3.76256 7.86358 3.46967C7.57069 3.17678 7.09582 3.17678 6.80292 3.46967L7.86358 4.53033ZM7.86358 11.4697L3.86358 7.46967L2.80292 8.53033L6.80292 12.5303L7.86358 11.4697ZM3.86358 8.53033L7.86358 4.53033L6.80292 3.46967L2.80292 7.46967L3.86358 8.53033Z" fill="#625F5C"/>
</svg>
