<svg width="24" height="24" viewBox="0 0 24 24" fill="none" xmlns="http://www.w3.org/2000/svg">
<path d="M12.1946 7.52729C12.455 7.26694 12.8771 7.26694 13.1374 7.52729L17.1374 11.5273C17.2624 11.6523 17.3327 11.8219 17.3327 11.9987C17.3327 12.1755 17.2624 12.3451 17.1374 12.4701L13.1374 16.4701C12.8771 16.7305 12.455 16.7305 12.1946 16.4701C11.9343 16.2098 11.9343 15.7876 12.1946 15.5273L15.0565 12.6654L7.33268 12.6654C6.96449 12.6654 6.66601 12.3669 6.66601 11.9987C6.66601 11.6305 6.96449 11.332 7.33268 11.332L15.0565 11.332L12.1946 8.4701C11.9343 8.20975 11.9343 7.78764 12.1946 7.52729Z" fill="#32302D"/>
</svg>
