<svg width="12" height="12" viewBox="0 0 12 12" fill="none" xmlns="http://www.w3.org/2000/svg">
<path d="M2.51251 10.3875C2.49538 10.4608 2.49507 10.5371 2.51161 10.6106C2.52815 10.6841 2.5611 10.7528 2.608 10.8118C2.6549 10.8707 2.71453 10.9182 2.78242 10.9508C2.85031 10.9834 2.9247 11.0002 3.00001 11C3.09878 11 3.19534 10.9708 3.27751 10.916L6.00001 9.10101L8.72251 10.916C8.80768 10.9726 8.90812 11.0017 9.01033 10.9994C9.11254 10.9972 9.2116 10.9637 9.29421 10.9035C9.37682 10.8432 9.439 10.7592 9.4724 10.6625C9.50579 10.5659 9.5088 10.4614 9.48101 10.363L8.56651 7.16301L10.8345 5.12201C10.9072 5.0566 10.959 4.97134 10.9837 4.87676C11.0084 4.78219 11.0049 4.68245 10.9735 4.58988C10.9421 4.49731 10.8842 4.41597 10.8071 4.35592C10.73 4.29587 10.637 4.25974 10.5395 4.25201L7.68901 4.02501L6.45551 1.29451C6.41623 1.20656 6.35233 1.13187 6.27154 1.07944C6.19074 1.027 6.09649 0.999076 6.00018 0.999024C5.90386 0.998971 5.80958 1.02679 5.72873 1.07914C5.64787 1.13148 5.58389 1.20611 5.54451 1.29401L4.31101 4.02501L1.46051 4.25151C1.36474 4.25909 1.27318 4.29411 1.19679 4.35237C1.1204 4.41063 1.06241 4.48967 1.02976 4.58002C0.99711 4.67038 0.991182 4.76822 1.01269 4.86186C1.03419 4.95549 1.08221 5.04095 1.15101 5.10801L3.25801 7.16151L2.51251 10.3875ZM6.00001 2.71451L7.02101 4.97501L7.31501 4.99851H7.31551L9.30151 5.15601L7.66601 6.62801L7.66551 6.62901L7.43401 6.83701L7.51951 7.13551V7.13701L8.14601 9.32951L6.00001 7.89901V2.71451Z" fill="#171716"/>
</svg>
