<svg width="16" height="16" viewBox="0 0 16 16" fill="none" xmlns="http://www.w3.org/2000/svg">
<path d="M8.00065 2.66634C5.05513 2.66634 2.66732 5.05416 2.66732 7.99967C2.66732 10.9452 5.05513 13.333 8.00065 13.333C10.9462 13.333 13.334 10.9452 13.334 7.99967C13.334 5.05416 10.9462 2.66634 8.00065 2.66634ZM1.33398 7.99967C1.33398 4.31778 4.31875 1.33301 8.00065 1.33301C11.6826 1.33301 14.6673 4.31778 14.6673 7.99967C14.6673 11.6816 11.6826 14.6663 8.00065 14.6663C4.31875 14.6663 1.33398 11.6816 1.33398 7.99967Z" fill="#6F6B69"/>
<path d="M8.00065 9.33301C7.63246 9.33301 7.33398 9.03453 7.33398 8.66634V7.99967C7.33398 7.63148 7.63246 7.33301 8.00065 7.33301C8.36884 7.33301 8.66732 7.63148 8.66732 7.99967V8.66634C8.66732 9.03453 8.36884 9.33301 8.00065 9.33301Z" fill="#6F6B69"/>
<path d="M7.00065 10.9997C7.00065 10.4474 7.44837 9.99967 8.00065 9.99967C8.55294 9.99967 9.00065 10.4474 9.00065 10.9997C9.00065 11.552 8.55294 11.9997 8.00065 11.9997C7.44837 11.9997 7.00065 11.552 7.00065 10.9997Z" fill="#6F6B69"/>
<path d="M8.26061 5.20725C7.62259 5.17687 7.08758 5.53328 6.99158 6.10928C6.93105 6.47246 6.58757 6.7178 6.22439 6.65727C5.8612 6.59674 5.61586 6.25326 5.67639 5.89008C5.91372 4.46608 7.21205 3.82248 8.32403 3.87543C8.89363 3.90255 9.47902 4.107 9.92977 4.5282C10.3917 4.95985 10.6673 5.57819 10.6673 6.33301C10.6673 7.19388 10.3286 7.83228 9.74545 8.22104C9.21002 8.578 8.55367 8.66634 8.00065 8.66634C7.63246 8.66634 7.33398 8.36786 7.33398 7.99967C7.33398 7.63148 7.63246 7.33301 8.00065 7.33301C8.44763 7.33301 8.79128 7.25469 9.00585 7.11164C9.17271 7.0004 9.33398 6.80547 9.33398 6.33301C9.33398 5.92117 9.19291 5.6645 9.01945 5.50241C8.83478 5.32985 8.566 5.2218 8.26061 5.20725Z" fill="#6F6B69"/>
</svg>
