<svg width="24" height="24" viewBox="0 0 24 24" fill="none" xmlns="http://www.w3.org/2000/svg">
<rect x="4" y="4" width="16" height="16" rx="4" fill="#171716"/>
<path d="M8.35355 11.6464C8.15829 11.4512 7.84171 11.4512 7.64645 11.6464C7.45118 11.8417 7.45118 12.1583 7.64645 12.3536L8.35355 11.6464ZM11 15L10.6464 15.3536C10.7458 15.4529 10.8823 15.5059 11.0227 15.4995C11.163 15.4931 11.2942 15.428 11.3841 15.3201L11 15ZM16.3841 9.32009C16.5609 9.10795 16.5322 8.79267 16.3201 8.61589C16.108 8.43911 15.7927 8.46777 15.6159 8.67991L16.3841 9.32009ZM7.64645 12.3536L10.6464 15.3536L11.3536 14.6464L8.35355 11.6464L7.64645 12.3536ZM11.3841 15.3201L16.3841 9.32009L15.6159 8.67991L10.6159 14.6799L11.3841 15.3201Z" fill="white"/>
</svg>
