<svg width="21" height="16" viewBox="0 0 21 16" fill="none" xmlns="http://www.w3.org/2000/svg">
<g clip-path="url(#clip0_620_5050)">
<path d="M17.789 1.33443C16.4118 0.702852 14.9548 0.254086 13.4566 0C13.2699 0.330693 13.0519 0.775477 12.9015 1.12933C11.2862 0.891256 9.68567 0.891256 8.10001 1.12933C7.94972 0.775558 7.72676 0.330693 7.53842 0C6.03872 0.254203 4.5805 0.704112 3.20266 1.33773C0.460846 5.39875 -0.282439 9.35879 0.0891623 13.2628C1.90771 14.5938 3.67007 15.4025 5.40274 15.9316C5.83335 15.3512 6.214 14.7367 6.54076 14.0945C5.91865 13.8623 5.31892 13.5763 4.7487 13.2396C4.89876 13.1306 5.04529 13.017 5.18806 12.899C8.64338 14.4831 12.3978 14.4831 15.8119 12.899C15.9553 13.0162 16.1018 13.1298 16.2512 13.2396C15.6801 13.5771 15.0792 13.8638 14.4559 14.0962C14.7845 14.741 15.1645 15.3561 15.5939 15.9332C17.3282 15.4041 19.0922 14.5955 20.9107 13.2628C21.3468 8.73713 20.1659 4.81335 17.789 1.33435V1.33443ZM7.01153 10.8619C5.97425 10.8619 5.12358 9.91276 5.12358 8.75698C5.12358 7.60121 5.95612 6.65045 7.01153 6.65045C8.06703 6.65045 8.91761 7.59952 8.89948 8.75698C8.90112 9.91276 8.06703 10.8619 7.01153 10.8619ZM13.9884 10.8619C12.9511 10.8619 12.1005 9.91276 12.1005 8.75698C12.1005 7.60121 12.933 6.65045 13.9884 6.65045C15.0439 6.65045 15.8945 7.59952 15.8763 8.75698C15.8763 9.91276 15.0439 10.8619 13.9884 10.8619Z" fill="#5865F2"/>
</g>
<defs>
<clipPath id="clip0_620_5050">
<rect width="21" height="16" fill="white"/>
</clipPath>
</defs>
</svg>
