<svg width="32" height="21" viewBox="0 0 32 21" fill="none" xmlns="http://www.w3.org/2000/svg">
<path fill-rule="evenodd" clip-rule="evenodd" d="M0 1.5C0 0.671573 0.671573 0 1.5 0H30.5C31.3284 0 32 0.671573 32 1.5V19.5C32 20.3284 31.3284 21 30.5 21H1.5C0.671573 21 0 20.3284 0 19.5V1.5Z" fill="#F4F6F7"/>
<path fill-rule="evenodd" clip-rule="evenodd" d="M0 1.5C0 0.671573 0.671573 0 1.5 0H30.5C31.3284 0 32 0.671573 32 1.5V19.5C32 20.3284 31.3284 21 30.5 21H1.5C0.671573 21 0 20.3284 0 19.5V1.5Z" fill="#E5E5E5" fill-opacity="0.01"/>
<path fill-rule="evenodd" clip-rule="evenodd" d="M17.3134 15.4802C20.0165 15.4932 22.4837 13.2556 22.4837 10.5335C22.4837 7.55663 20.0165 5.49901 17.3134 5.5H14.987C12.2516 5.49901 10 7.55725 10 10.5335C10 13.2562 12.2516 15.4933 14.987 15.4802H17.3134Z" fill="url(#paint0_linear_3493_9998)"/>
<path fill-rule="evenodd" clip-rule="evenodd" d="M14.9964 5.91602C12.4968 5.91681 10.4713 7.96136 10.4707 10.4847C10.4713 13.0077 12.4968 15.0521 14.9964 15.0528C17.4966 15.0521 19.5225 13.0077 19.5229 10.4847C19.5225 7.96136 17.4966 5.91681 14.9964 5.91602ZM12.1277 10.4847C12.13 9.25168 12.8932 8.20019 13.9693 7.78235V13.1865C12.8932 12.7689 12.13 11.718 12.1277 10.4847ZM16.0231 13.1877V7.78217C17.0996 8.19901 17.864 9.25108 17.8659 10.4847C17.864 11.7188 17.0996 12.7701 16.0231 13.1877Z" fill="#F4F6F7"/>
<defs>
<linearGradient id="paint0_linear_3493_9998" x1="25.0743" y1="13.5703" x2="21.8728" y2="3.10755" gradientUnits="userSpaceOnUse">
<stop stop-color="#009BE0"/>
<stop offset="1" stop-color="#006BA8"/>
</linearGradient>
</defs>
</svg>
