<svg width="32" height="21" viewBox="0 0 32 21" fill="none" xmlns="http://www.w3.org/2000/svg">
<path fill-rule="evenodd" clip-rule="evenodd" d="M0 1.5C0 0.671573 0.671573 0 1.5 0H30.5C31.3284 0 32 0.671573 32 1.5V19.5C32 20.3284 31.3284 21 30.5 21H1.5C0.671573 21 0 20.3284 0 19.5V1.5Z" fill="url(#paint0_linear_3493_9980)"/>
<path fill-rule="evenodd" clip-rule="evenodd" d="M0 1.5C0 0.671573 0.671573 0 1.5 0H30.5C31.3284 0 32 0.671573 32 1.5V19.5C32 20.3284 31.3284 21 30.5 21H1.5C0.671573 21 0 20.3284 0 19.5V1.5Z" fill="#E5E5E5" fill-opacity="0.01"/>
<path fill-rule="evenodd" clip-rule="evenodd" d="M7.01632 11.3329C6.80583 11.5243 6.5323 11.6077 6.09938 11.6077H5.91955V9.3219H6.09938C6.5323 9.3219 6.79508 9.39989 7.01632 9.60154C7.24804 9.80906 7.38739 10.1309 7.38739 10.4619C7.38739 10.7938 7.24804 11.1254 7.01632 11.3329ZM6.23356 8.73633H5.25V12.1928H6.22838C6.74863 12.1928 7.12435 12.0694 7.45402 11.7937C7.84593 11.4675 8.07765 10.9757 8.07765 10.467C8.07765 9.4469 7.32024 8.73633 6.23356 8.73633Z" fill="#212D34"/>
<path fill-rule="evenodd" clip-rule="evenodd" d="M8.38672 12.1929H9.0568V8.73633H8.38672V12.1929Z" fill="#212D34"/>
<path fill-rule="evenodd" clip-rule="evenodd" d="M10.6947 10.0622C10.2926 9.91249 10.1746 9.8138 10.1746 9.62698C10.1746 9.40931 10.3849 9.24385 10.6737 9.24385C10.8744 9.24385 11.0395 9.32692 11.214 9.52375L11.5646 9.06184C11.2765 8.80825 10.9318 8.67871 10.5552 8.67871C9.94736 8.67871 9.48378 9.10337 9.48378 9.66905C9.48378 10.1453 9.69958 10.3891 10.3289 10.6169C10.5913 10.7101 10.7248 10.7721 10.7921 10.8138C10.926 10.9018 10.993 11.0264 10.993 11.1715C10.993 11.4515 10.7718 11.6591 10.4728 11.6591C10.1532 11.6591 9.89573 11.4981 9.74151 11.198L9.30859 11.6174C9.61729 12.0734 9.9881 12.2755 10.498 12.2755C11.1942 12.2755 11.6828 11.8096 11.6828 11.1405C11.6828 10.5913 11.4569 10.3428 10.6947 10.0622Z" fill="#212D34"/>
<path fill-rule="evenodd" clip-rule="evenodd" d="M11.8945 10.467C11.8945 11.483 12.6874 12.2707 13.7077 12.2707C13.9961 12.2707 14.2432 12.2137 14.5478 12.0694V11.2757C14.28 11.5455 14.0427 11.6543 13.7389 11.6543C13.064 11.6543 12.5851 11.162 12.5851 10.4619C12.5851 9.79837 13.0792 9.27489 13.7077 9.27489C14.0273 9.27489 14.2692 9.3896 14.5478 9.66376V8.87053C14.2537 8.72043 14.0119 8.6582 13.7235 8.6582C12.7083 8.6582 11.8945 9.46198 11.8945 10.467Z" fill="#212D34"/>
<path fill-rule="evenodd" clip-rule="evenodd" d="M19.859 11.0581L18.943 8.73633H18.2109L19.6687 12.2816H20.0293L21.5133 8.73633H20.787L19.859 11.0581Z" fill="#212D34"/>
<path fill-rule="evenodd" clip-rule="evenodd" d="M21.8164 12.1929H23.7166V11.6077H22.486V10.6747H23.6714V10.0892H22.486V9.32204H23.7166V8.73633H21.8164V12.1929Z" fill="#212D34"/>
<path fill-rule="evenodd" clip-rule="evenodd" d="M25.0272 10.3277H24.8314V9.28091H25.0378C25.4552 9.28091 25.682 9.45678 25.682 9.79317C25.682 10.1406 25.4552 10.3277 25.0272 10.3277ZM26.3714 9.75684C26.3714 9.10971 25.9284 8.73633 25.1558 8.73633H24.1621V12.1929H24.8314V10.8043H24.9189L25.8463 12.1929H26.6703L25.5888 10.7368C26.0935 10.6334 26.3714 10.2861 26.3714 9.75684Z" fill="#212D34"/>
<g filter="url(#filter0_i_3493_9980)">
<path fill-rule="evenodd" clip-rule="evenodd" d="M18.4205 10.4764C18.4205 11.492 17.6023 12.3153 16.593 12.3153C15.5837 12.3153 14.7656 11.492 14.7656 10.4764C14.7656 9.46084 15.5837 8.6377 16.593 8.6377C17.6023 8.6377 18.4205 9.46084 18.4205 10.4764Z" fill="url(#paint1_linear_3493_9980)"/>
</g>
<defs>
<filter id="filter0_i_3493_9980" x="14.7656" y="8.6377" width="3.6543" height="3.67773" filterUnits="userSpaceOnUse" color-interpolation-filters="sRGB">
<feFlood flood-opacity="0" result="BackgroundImageFix"/>
<feBlend mode="normal" in="SourceGraphic" in2="BackgroundImageFix" result="shape"/>
<feColorMatrix in="SourceAlpha" type="matrix" values="0 0 0 0 0 0 0 0 0 0 0 0 0 0 0 0 0 0 127 0" result="hardAlpha"/>
<feOffset dx="1" dy="1"/>
<feComposite in2="hardAlpha" operator="arithmetic" k2="-1" k3="1"/>
<feColorMatrix type="matrix" values="0 0 0 0 0.314068 0 0 0 0 0.00146228 0 0 0 0 0.00146228 0 0 0 0.5 0"/>
<feBlend mode="normal" in2="shape" result="effect1_innerShadow_3493_9980"/>
</filter>
<linearGradient id="paint0_linear_3493_9980" x1="-16" y1="10.5" x2="3.26553" y2="39.857" gradientUnits="userSpaceOnUse">
<stop stop-color="#EDF1F3"/>
<stop offset="1" stop-color="#D3DADF"/>
</linearGradient>
<linearGradient id="paint1_linear_3493_9980" x1="18.8316" y1="10.8279" x2="16.6631" y2="8.26321" gradientUnits="userSpaceOnUse">
<stop stop-color="#FFA700"/>
<stop offset="1" stop-color="#E75A10"/>
</linearGradient>
</defs>
</svg>
