<svg width="23" height="18" viewBox="0 0 23 18" fill="none" xmlns="http://www.w3.org/2000/svg">
<path d="M13.7777 0H0V18H13.7787C18.6875 18 23 15.1199 23 9C23 2.88011 18.6865 0 13.7777 0ZM19.1925 9.59346L16.457 13.7221C16.353 13.8787 16.2089 14.0077 16.038 14.0971C15.8671 14.1865 15.6751 14.2333 15.48 14.2332H5.27398C4.96805 14.2332 4.67465 14.118 4.45833 13.9129C4.242 13.7078 4.12047 13.4296 4.12047 13.1395V4.88313C4.12047 4.59305 4.24199 4.31484 4.45831 4.10969C4.67462 3.90453 4.96802 3.78924 5.27398 3.78915H15.48C15.6751 3.78909 15.8671 3.83593 16.0379 3.92531C16.2088 4.01468 16.353 4.14367 16.457 4.30021L19.1925 8.42985C19.3079 8.60419 19.3691 8.80584 19.3691 9.01166C19.3691 9.21747 19.3079 9.41912 19.1925 9.59346Z" fill="white"/>
</svg>
