<svg width="20" height="20" viewBox="0 0 20 20" fill="none" xmlns="http://www.w3.org/2000/svg">
<path d="M19.9998 10.2279C19.9998 9.49694 19.933 8.79754 19.809 8.125H10.2129V11.9781L15.7395 11.9793C15.5153 13.2613 14.7939 14.3542 13.6886 15.0828V17.5826H16.9783C18.8992 15.8417 19.9998 13.2683 19.9998 10.2279Z" fill="#4285F4"/>
<path d="M13.6892 15.0832C12.7734 15.688 11.5942 16.0418 10.2146 16.0418C7.54971 16.0418 5.289 14.2833 4.47938 11.9131H1.08594V14.4912C2.76716 17.7582 6.22261 20 10.2146 20C12.9737 20 15.2917 19.1114 16.9789 17.5818L13.6892 15.0832Z" fill="#34A853"/>
<path d="M4.16013 10.0006C4.16013 9.33505 4.2734 8.6917 4.47968 8.08688V5.50879H1.08624C0.391091 6.85971 0 8.38461 0 10.0006C0 11.6166 0.392284 13.1415 1.08624 14.4924L4.47968 11.9143C4.2734 11.3095 4.16013 10.6661 4.16013 10.0006Z" fill="#FABB05"/>
<path d="M10.2146 3.9582C11.7206 3.9582 13.0691 4.46611 14.1339 5.45858L17.0492 2.60611C15.2786 0.991302 12.9702 0 10.2146 0C6.2238 0 2.76716 2.24181 1.08594 5.50879L4.47938 8.08687C5.289 5.71662 7.54971 3.9582 10.2146 3.9582Z" fill="#E94235"/>
</svg>
