<svg width="32" height="21" viewBox="0 0 32 21" fill="none" xmlns="http://www.w3.org/2000/svg">
<path fill-rule="evenodd" clip-rule="evenodd" d="M0 1.5C0 0.671573 0.671573 0 1.5 0H30.5C31.3284 0 32 0.671573 32 1.5V19.5C32 20.3284 31.3284 21 30.5 21H1.5C0.671573 21 0 20.3284 0 19.5V1.5Z" fill="#F4F6F7"/>
<path fill-rule="evenodd" clip-rule="evenodd" d="M0 1.5C0 0.671573 0.671573 0 1.5 0H30.5C31.3284 0 32 0.671573 32 1.5V19.5C32 20.3284 31.3284 21 30.5 21H1.5C0.671573 21 0 20.3284 0 19.5V1.5Z" fill="#E5E5E5" fill-opacity="0.01"/>
<path fill-rule="evenodd" clip-rule="evenodd" d="M20.7461 6C20.6446 6.00025 20.5432 6.00334 20.4435 6.01349C20.0534 6.05313 19.6864 6.22721 19.4228 6.49578C19.2272 6.69503 19.0915 6.94178 19.0339 7.20562C19.0055 7.33587 19.0018 7.46646 19.0018 7.59844V8.47452V8.8992V9.02399C19.0018 9.05741 18.9932 9.06003 19.0331 9.06003H19.6573H20.2793H20.905C21.1093 9.06003 21.3152 9.05293 21.5189 9.07002C21.7196 9.08689 21.9238 9.13973 22.0861 9.25378C22.3143 9.41419 22.4071 9.69089 22.3291 9.94542C22.2543 10.1898 22.0298 10.3536 21.7733 10.4216C21.7449 10.4292 21.7161 10.4356 21.6872 10.4411C21.6704 10.4443 21.6478 10.4437 21.6325 10.4503C21.625 10.4535 21.6058 10.4575 21.6198 10.4699C21.6234 10.473 21.6382 10.4729 21.6492 10.4728C21.6537 10.4728 21.6575 10.4728 21.6597 10.473C21.7402 10.4801 21.8203 10.493 21.8984 10.5127C22.1373 10.573 22.3692 10.7025 22.4799 10.9151C22.6109 11.1667 22.5441 11.4784 22.3325 11.6736C22.1658 11.8273 21.9331 11.9058 21.7028 11.9318C21.5873 11.9448 21.471 11.9421 21.3549 11.9421H20.7292H20.1034H19.4814H19.1686H19.0904C19.0725 11.9421 19.0221 11.934 19.0075 11.9421C18.9989 11.947 19.0018 11.9539 19.0018 11.9666V12.5013V13.4448V14.3981V14.9625C19.0018 14.9681 18.9977 14.9929 19.0018 14.9974C19.0068 15.0028 19.0488 14.9981 19.0591 14.9981H19.1373H19.4502H20.0721H20.6979H21.3216C21.6932 14.9981 22.047 14.9089 22.3481 14.7006C22.7566 14.4181 22.9978 13.9689 22.9999 13.4976C23 13.4793 23 13.4611 23 13.4428V13.4161C23 13.3758 22.9999 13.3354 22.9999 13.295V12.7981C22.9999 12.5575 22.9999 12.317 22.9999 12.0765C22.9999 11.7809 22.9999 11.4854 22.9999 11.19C22.9999 10.8639 22.9999 10.5378 22.9999 10.2117C22.9999 9.87431 22.9999 9.53687 22.9999 9.19946C22.9999 8.87407 22.9999 8.54872 22.9999 8.22333C22.9999 7.93318 22.9999 7.64307 22.9999 7.35292C22.9999 7.11755 22.9999 6.88218 22.9999 6.6468V6.17661C22.9999 6.11921 22.9999 6.0618 22.9999 6.00436H22.9935C22.7947 6.00465 22.5958 6.00436 22.3969 6.00436H21.7733H21.1475C21.0239 6.00436 20.8982 6.0003 20.773 6H20.7461ZM20.002 9.61054C19.9981 9.62351 20.002 9.65222 20.002 9.66618V10.1661V10.3997C20.002 10.4193 19.9957 10.4863 20.0053 10.4962C20.0134 10.5047 20.0488 10.4962 20.0593 10.4962H20.1176H20.2298H20.4528C20.526 10.4962 20.5994 10.4982 20.6726 10.4962C20.7632 10.4939 20.8511 10.4548 20.9155 10.359C20.9884 10.2507 21.0145 10.0914 20.9923 9.94513C20.9822 9.88046 20.9627 9.81983 20.934 9.76797C20.8788 9.66862 20.7965 9.61355 20.7095 9.60337C20.6681 9.59855 20.6264 9.60078 20.5849 9.60078H20.3619H20.1346H20.024C20.018 9.60078 20.014 9.6 20.0111 9.6C20.0067 9.6 20.0047 9.60176 20.002 9.61054ZM20.4489 10.5004H20.0018C20.0018 10.5086 20.0018 10.5169 20.0018 10.5251V10.9725V11.2367V11.3331C20.0018 11.3469 19.9978 11.376 20.0018 11.3886C20.0078 11.4078 20.0633 11.397 20.0812 11.397H20.1943H20.4179H20.6428C20.7158 11.397 20.7859 11.3905 20.8507 11.3351C20.9294 11.2679 20.983 11.1504 20.9964 11.0196C21.0119 10.87 20.9768 10.7152 20.8988 10.6137C20.8355 10.5315 20.7572 10.5013 20.6738 10.5004C20.6488 10.5001 20.6238 10.5 20.5988 10.5C20.5488 10.5 20.4989 10.5004 20.4489 10.5004Z" fill="url(#paint0_linear_3493_9960)"/>
<mask id="mask0_3493_9960" style="mask-type:alpha" maskUnits="userSpaceOnUse" x="19" y="6" width="4" height="9">
<path fill-rule="evenodd" clip-rule="evenodd" d="M20.7461 6C20.6446 6.00025 20.5432 6.00334 20.4435 6.01349C20.0534 6.05313 19.6864 6.22721 19.4228 6.49578C19.2272 6.69503 19.0915 6.94178 19.0339 7.20562C19.0055 7.33587 19.0018 7.46646 19.0018 7.59844V8.47452V8.8992V9.02399C19.0018 9.05741 18.9932 9.06003 19.0331 9.06003H19.6573H20.2793H20.905C21.1093 9.06003 21.3152 9.05293 21.5189 9.07002C21.7196 9.08689 21.9238 9.13973 22.0861 9.25378C22.3143 9.41419 22.4071 9.69089 22.3291 9.94542C22.2543 10.1898 22.0298 10.3536 21.7733 10.4216C21.7449 10.4292 21.7161 10.4356 21.6872 10.4411C21.6704 10.4443 21.6478 10.4437 21.6325 10.4503C21.625 10.4535 21.6058 10.4575 21.6198 10.4699C21.6234 10.473 21.6382 10.4729 21.6492 10.4728C21.6537 10.4728 21.6575 10.4728 21.6597 10.473C21.7402 10.4801 21.8203 10.493 21.8984 10.5127C22.1373 10.573 22.3692 10.7025 22.4799 10.9151C22.6109 11.1667 22.5441 11.4784 22.3325 11.6736C22.1658 11.8273 21.9331 11.9058 21.7028 11.9318C21.5873 11.9448 21.471 11.9421 21.3549 11.9421H20.7292H20.1034H19.4814H19.1686H19.0904C19.0725 11.9421 19.0221 11.934 19.0075 11.9421C18.9989 11.947 19.0018 11.9539 19.0018 11.9666V12.5013V13.4448V14.3981V14.9625C19.0018 14.9681 18.9977 14.9929 19.0018 14.9974C19.0068 15.0028 19.0488 14.9981 19.0591 14.9981H19.1373H19.4502H20.0721H20.6979H21.3216C21.6932 14.9981 22.047 14.9089 22.3481 14.7006C22.7566 14.4181 22.9978 13.9689 22.9999 13.4976C23 13.4793 23 13.4611 23 13.4428V13.4161C23 13.3758 22.9999 13.3354 22.9999 13.295V12.7981C22.9999 12.5575 22.9999 12.317 22.9999 12.0765C22.9999 11.7809 22.9999 11.4854 22.9999 11.19C22.9999 10.8639 22.9999 10.5378 22.9999 10.2117C22.9999 9.87431 22.9999 9.53687 22.9999 9.19946C22.9999 8.87407 22.9999 8.54872 22.9999 8.22333C22.9999 7.93318 22.9999 7.64307 22.9999 7.35292C22.9999 7.11755 22.9999 6.88218 22.9999 6.6468V6.17661C22.9999 6.11921 22.9999 6.0618 22.9999 6.00436H22.9935C22.7947 6.00465 22.5958 6.00436 22.3969 6.00436H21.7733H21.1475C21.0239 6.00436 20.8982 6.0003 20.773 6H20.7461ZM20.002 9.61054C19.9981 9.62351 20.002 9.65222 20.002 9.66618V10.1661V10.3997C20.002 10.4193 19.9957 10.4863 20.0053 10.4962C20.0134 10.5047 20.0488 10.4962 20.0593 10.4962H20.1176H20.2298H20.4528C20.526 10.4962 20.5994 10.4982 20.6726 10.4962C20.7632 10.4939 20.8511 10.4548 20.9155 10.359C20.9884 10.2507 21.0145 10.0914 20.9923 9.94513C20.9822 9.88046 20.9627 9.81983 20.934 9.76797C20.8788 9.66862 20.7965 9.61355 20.7095 9.60337C20.6681 9.59855 20.6264 9.60078 20.5849 9.60078H20.3619H20.1346H20.024C20.018 9.60078 20.014 9.6 20.0111 9.6C20.0067 9.6 20.0047 9.60176 20.002 9.61054ZM20.4489 10.5004H20.0018C20.0018 10.5086 20.0018 10.5169 20.0018 10.5251V10.9725V11.2367V11.3331C20.0018 11.3469 19.9978 11.376 20.0018 11.3886C20.0078 11.4078 20.0633 11.397 20.0812 11.397H20.1943H20.4179H20.6428C20.7158 11.397 20.7859 11.3905 20.8507 11.3351C20.9294 11.2679 20.983 11.1504 20.9964 11.0196C21.0119 10.87 20.9768 10.7152 20.8988 10.6137C20.8355 10.5315 20.7572 10.5013 20.6738 10.5004C20.6488 10.5001 20.6238 10.5 20.5988 10.5C20.5488 10.5 20.4989 10.5004 20.4489 10.5004Z" fill="white"/>
</mask>
<g mask="url(#mask0_3493_9960)">
</g>
<path fill-rule="evenodd" clip-rule="evenodd" d="M10.3587 6.02002C10.1285 6.05459 9.90759 6.13656 9.71452 6.25738C9.26969 6.53583 9.00351 7.00729 9.00155 7.50342C9.001 7.64929 9.00155 7.79515 9.00155 7.94107V8.87015V9.95035V10.8413V11.1102V11.1812C9.00155 11.2087 9.00127 11.203 9.03508 11.2178C9.07269 11.2343 9.11048 11.2504 9.14845 11.266C9.45159 11.3903 9.7713 11.4849 10.1012 11.5221C10.3384 11.5489 10.5917 11.5563 10.8157 11.4688C10.9951 11.3987 11.1381 11.2693 11.2116 11.1015C11.2589 10.9936 11.2724 10.8797 11.2724 10.7644V9.48562V9.19773V9.1059C11.2724 9.09672 11.2668 9.06807 11.2724 9.06037C11.2794 9.05076 11.3349 9.0569 11.3508 9.0569H11.4717H11.71H12.6666V9.08326V10.3456C12.6666 10.4938 12.6669 10.6421 12.6666 10.7903C12.6663 10.9629 12.6389 11.1362 12.5625 11.2949C12.4865 11.4531 12.3644 11.5866 12.2136 11.6883C11.8478 11.935 11.3631 11.9993 10.921 12.0178C10.6047 12.0311 10.2872 12.0196 9.97228 11.9905C9.64686 11.9605 9.31764 11.9158 9.00155 11.837V11.9393V12.6412V13.6653V14.5904V14.8847V14.9674C9.00155 14.9718 8.99807 14.9935 9.00155 14.997C9.00813 15.0037 9.06807 14.9971 9.07992 14.9971H9.16003H9.32404H9.64832H10.2983H10.9485C11.2241 14.9971 11.5068 15.0146 11.7763 14.9516C12.2474 14.8415 12.6477 14.5333 12.8515 14.1252C12.9634 13.9013 13 13.6632 13 13.4193V13.0174V12.3404V11.4629V10.4642V9.4108V8.3813V7.45403V6.69621V6.18662V6.00013H12.8384H12.163H11.4873H10.8137C10.7837 6.00013 10.7537 6 10.7237 6C10.6016 6 10.4798 6.00182 10.3587 6.02002Z" fill="url(#paint1_linear_3493_9960)"/>
<mask id="mask1_3493_9960" style="mask-type:alpha" maskUnits="userSpaceOnUse" x="9" y="6" width="4" height="9">
<path fill-rule="evenodd" clip-rule="evenodd" d="M10.3587 6.02002C10.1285 6.05459 9.90759 6.13656 9.71452 6.25738C9.26969 6.53583 9.00351 7.00729 9.00155 7.50342C9.001 7.64929 9.00155 7.79515 9.00155 7.94107V8.87015V9.95035V10.8413V11.1102V11.1812C9.00155 11.2087 9.00127 11.203 9.03508 11.2178C9.07269 11.2343 9.11048 11.2504 9.14845 11.266C9.45159 11.3903 9.7713 11.4849 10.1012 11.5221C10.3384 11.5489 10.5917 11.5563 10.8157 11.4688C10.9951 11.3987 11.1381 11.2693 11.2116 11.1015C11.2589 10.9936 11.2724 10.8797 11.2724 10.7644V9.48562V9.19773V9.1059C11.2724 9.09672 11.2668 9.06807 11.2724 9.06037C11.2794 9.05076 11.3349 9.0569 11.3508 9.0569H11.4717H11.71H12.6666V9.08326V10.3456C12.6666 10.4938 12.6669 10.6421 12.6666 10.7903C12.6663 10.9629 12.6389 11.1362 12.5625 11.2949C12.4865 11.4531 12.3644 11.5866 12.2136 11.6883C11.8478 11.935 11.3631 11.9993 10.921 12.0178C10.6047 12.0311 10.2872 12.0196 9.97228 11.9905C9.64686 11.9605 9.31764 11.9158 9.00155 11.837V11.9393V12.6412V13.6653V14.5904V14.8847V14.9674C9.00155 14.9718 8.99807 14.9935 9.00155 14.997C9.00813 15.0037 9.06807 14.9971 9.07992 14.9971H9.16003H9.32404H9.64832H10.2983H10.9485C11.2241 14.9971 11.5068 15.0146 11.7763 14.9516C12.2474 14.8415 12.6477 14.5333 12.8515 14.1252C12.9634 13.9013 13 13.6632 13 13.4193V13.0174V12.3404V11.4629V10.4642V9.4108V8.3813V7.45403V6.69621V6.18662V6.00013H12.8384H12.163H11.4873H10.8137C10.7837 6.00013 10.7537 6 10.7237 6C10.6016 6 10.4798 6.00182 10.3587 6.02002Z" fill="white"/>
</mask>
<g mask="url(#mask1_3493_9960)">
</g>
<path fill-rule="evenodd" clip-rule="evenodd" d="M15.5194 6.00372C15.344 6.014 15.1705 6.0506 15.008 6.11246C14.6497 6.24899 14.3518 6.50382 14.1763 6.82355C14.0614 7.0329 14.0033 7.2656 14.0022 7.50017C14.0021 7.53812 14.0022 7.57607 14.0022 7.61407V8.27959V9.46274C14.0132 9.45402 14.0244 9.44543 14.0358 9.43693C14.0759 9.40689 14.1177 9.3788 14.1607 9.35248C14.4286 9.1887 14.7413 9.09697 15.0549 9.04282C15.3102 8.99873 15.5702 8.97978 15.8297 8.97516C16.0849 8.97068 16.3409 8.97872 16.5949 9.00415C16.8539 9.03004 17.1114 9.07044 17.3661 9.12096C17.3974 9.12718 17.4287 9.13353 17.4599 9.14013C17.4765 9.14368 17.5405 9.14851 17.5494 9.16035C17.5558 9.16881 17.5494 9.20258 17.5494 9.21235V9.33437V9.7944C17.5132 9.77752 17.4769 9.76098 17.4402 9.74499C17.163 9.62377 16.8709 9.53373 16.5677 9.48948C16.1603 9.42995 15.6993 9.4316 15.3476 9.65707C15.008 9.87471 14.8892 10.2609 14.9259 10.6282C14.9616 10.9855 15.1753 11.2919 15.535 11.4348C15.8904 11.576 16.3028 11.557 16.6749 11.4889C16.9803 11.4331 17.2714 11.3307 17.5494 11.2025V11.2479V11.7841C17.5494 11.7941 17.5559 11.828 17.5494 11.8366C17.5407 11.8481 17.4758 11.853 17.4599 11.8564C17.3949 11.8701 17.3297 11.8829 17.2644 11.8951C17.0077 11.9428 16.7484 11.9807 16.4876 12.0023C16.2323 12.0235 15.9744 12.0276 15.7183 12.0187C15.4569 12.0096 15.1951 11.9847 14.9395 11.9323C14.6025 11.8633 14.267 11.7445 14.0022 11.5344V11.6331V12.3236V13.3539V14.3569V14.9516C14.0022 14.9586 13.9972 14.988 14.0022 14.9937C14.0132 15.0059 14.1041 14.9959 14.1254 14.9959H14.4574H15.1249H15.7889C16.0232 14.9959 16.2616 15.0074 16.4954 14.992C16.9193 14.964 17.3208 14.7786 17.6003 14.4823C17.8679 14.1985 18 13.8394 18 13.465V13.1293V12.4874V11.6206V10.6089V9.53725V8.47705V7.51642V6.72789V6.19585V6.00068H17.8774H16.8467H15.8201C15.7716 6.00068 15.7229 6 15.6742 6C15.6225 6 15.5708 6.00076 15.5194 6.00372Z" fill="url(#paint2_linear_3493_9960)"/>
<mask id="mask2_3493_9960" style="mask-type:alpha" maskUnits="userSpaceOnUse" x="14" y="6" width="4" height="9">
<path fill-rule="evenodd" clip-rule="evenodd" d="M15.5194 6.00372C15.344 6.014 15.1705 6.0506 15.008 6.11246C14.6497 6.24899 14.3518 6.50382 14.1763 6.82355C14.0614 7.0329 14.0033 7.2656 14.0022 7.50017C14.0021 7.53812 14.0022 7.57607 14.0022 7.61407V8.27959V9.46274C14.0132 9.45402 14.0244 9.44543 14.0358 9.43693C14.0759 9.40689 14.1177 9.3788 14.1607 9.35248C14.4286 9.1887 14.7413 9.09697 15.0549 9.04282C15.3102 8.99873 15.5702 8.97978 15.8297 8.97516C16.0849 8.97068 16.3409 8.97872 16.5949 9.00415C16.8539 9.03004 17.1114 9.07044 17.3661 9.12096C17.3974 9.12718 17.4287 9.13353 17.4599 9.14013C17.4765 9.14368 17.5405 9.14851 17.5494 9.16035C17.5558 9.16881 17.5494 9.20258 17.5494 9.21235V9.33437V9.7944C17.5132 9.77752 17.4769 9.76098 17.4402 9.74499C17.163 9.62377 16.8709 9.53373 16.5677 9.48948C16.1603 9.42995 15.6993 9.4316 15.3476 9.65707C15.008 9.87471 14.8892 10.2609 14.9259 10.6282C14.9616 10.9855 15.1753 11.2919 15.535 11.4348C15.8904 11.576 16.3028 11.557 16.6749 11.4889C16.9803 11.4331 17.2714 11.3307 17.5494 11.2025V11.2479V11.7841C17.5494 11.7941 17.5559 11.828 17.5494 11.8366C17.5407 11.8481 17.4758 11.853 17.4599 11.8564C17.3949 11.8701 17.3297 11.8829 17.2644 11.8951C17.0077 11.9428 16.7484 11.9807 16.4876 12.0023C16.2323 12.0235 15.9744 12.0276 15.7183 12.0187C15.4569 12.0096 15.1951 11.9847 14.9395 11.9323C14.6025 11.8633 14.267 11.7445 14.0022 11.5344V11.6331V12.3236V13.3539V14.3569V14.9516C14.0022 14.9586 13.9972 14.988 14.0022 14.9937C14.0132 15.0059 14.1041 14.9959 14.1254 14.9959H14.4574H15.1249H15.7889C16.0232 14.9959 16.2616 15.0074 16.4954 14.992C16.9193 14.964 17.3208 14.7786 17.6003 14.4823C17.8679 14.1985 18 13.8394 18 13.465V13.1293V12.4874V11.6206V10.6089V9.53725V8.47705V7.51642V6.72789V6.19585V6.00068H17.8774H16.8467H15.8201C15.7716 6.00068 15.7229 6 15.6742 6C15.6225 6 15.5708 6.00076 15.5194 6.00372Z" fill="white"/>
</mask>
<g mask="url(#mask2_3493_9960)">
</g>
<defs>
<linearGradient id="paint0_linear_3493_9960" x1="23" y1="5.61076" x2="19.1352" y2="5.61076" gradientUnits="userSpaceOnUse">
<stop stop-color="#43C311"/>
<stop offset="1" stop-color="#288C00"/>
</linearGradient>
<linearGradient id="paint1_linear_3493_9960" x1="9.01031" y1="15.0225" x2="13.0503" y2="15.0225" gradientUnits="userSpaceOnUse">
<stop stop-color="#21469E"/>
<stop offset="1" stop-color="#1E81EB"/>
</linearGradient>
<linearGradient id="paint2_linear_3493_9960" x1="18" y1="6" x2="14" y2="6" gradientUnits="userSpaceOnUse">
<stop stop-color="#F42D3E"/>
<stop offset="1" stop-color="#9C0017"/>
</linearGradient>
</defs>
</svg>
