<svg width="20" height="20" viewBox="0 0 20 20" fill="none" xmlns="http://www.w3.org/2000/svg">
<path d="M9.99992 9.16665C10.9204 9.16665 11.6666 8.42045 11.6666 7.49998C11.6666 6.57951 10.9204 5.83331 9.99992 5.83331C9.07944 5.83331 8.33325 6.57951 8.33325 7.49998C8.33325 8.42045 9.07944 9.16665 9.99992 9.16665Z" stroke="#0F0F0F" stroke-width="1.5" stroke-linecap="round" stroke-linejoin="round"/>
<path d="M10.0001 17.5C10.0001 17.5 15.8334 13.4615 15.8334 8.26923C15.8334 6.73914 15.2188 5.27171 14.1249 4.18977C13.0309 3.10783 11.5472 2.5 10.0001 2.5C8.45299 2.5 6.96925 3.10783 5.87529 4.18977C4.78133 5.27171 4.16675 6.73914 4.16675 8.26923C4.16675 13.4615 10.0001 17.5 10.0001 17.5Z" stroke="#0F0F0F" stroke-width="1.5" stroke-linecap="round" stroke-linejoin="round"/>
</svg>
