<svg xmlns="http://www.w3.org/2000/svg" width="16" height="16" viewBox="0 0 16 16" fill="none">
  <path d="M2.68941 8.34626L7.65406 13.3109C7.91441 13.5713 8.33652 13.5713 8.59687 13.3109L13.3109 8.59687C13.5713 8.33652 13.5713 7.91441 13.3109 7.65406L8.34626 2.68941C8.20636 2.5495 8.01154 2.47897 7.8145 2.49688L3.49329 2.88972C3.17279 2.91886 2.91885 3.17279 2.88972 3.49329L2.49688 7.8145C2.47897 8.01154 2.5495 8.20636 2.68941 8.34626Z" stroke="#3F753C" stroke-width="1.5" stroke-linecap="round" stroke-linejoin="round"/>
  <path d="M5.4797 5.47994C5.67496 5.28468 5.99154 5.28468 6.18681 5.47994C6.38207 5.6752 6.38207 5.99179 6.18681 6.18705C5.99154 6.38231 5.67496 6.38231 5.4797 6.18705C5.28444 5.99179 5.28444 5.6752 5.4797 5.47994Z" stroke="#3F753C" stroke-width="1.5" stroke-linecap="round" stroke-linejoin="round"/>
</svg>