<?xml version="1.0" encoding="UTF-8"?><svg id="a" xmlns="http://www.w3.org/2000/svg" viewBox="0 0 12 12"><defs><style>.b{fill:#171716;}</style></defs><path class="b" d="M10.97,4.58c-.03-.09-.09-.17-.17-.23-.07-.06-.16-.09-.26-.1l-2.85-.22-.02-.04-1.21-2.7c-.04-.08-.11-.16-.19-.21-.08-.05-.17-.08-.27-.08s-.19,.03-.27,.08c-.08,.05-.15,.13-.19,.21l-1.23,2.74-2.85,.22c-.1,.01-.18,.05-.26,.1,0,.01-.01,.01-.01,.01-.07,.06-.13,.14-.16,.23-.02,.05-.03,.11-.03,.17,0,.03,0,.07,.01,.1t.01,.02s.03,.09,.05,.13c.02,.03,.05,.07,.08,.1h.02l2.09,2.05-.74,3.2v.03s-.02,.07-.02,.11,0,.08,.01,.11c.01,.02,.01,.03,.02,.05,.02,.05,.04,.1,.08,.15,.02,.03,.06,.06,.1,.09,0,0,.03,.02,.05,.03,0,.01,.01,.01,.02,.02,.02,.01,.04,.02,.06,.02,.05,.02,.09,.03,.14,.03h.01c.1,0,.2-.03,.29-.08l2.72-1.82,1.67,1.12,1.05,.7c.08,.05,.18,.08,.28,.08h.02s.09-.01,.14-.03c.03,0,.06-.02,.08-.04,.01-.01,.02-.01,.02-.02,.01,0,.02,0,.03,0,.04-.03,.08-.06,.1-.09,.04-.05,.06-.1,.08-.15,.02-.05,.03-.1,.03-.16,0-.05-.01-.09-.02-.14l-.91-3.2,2.26-2.04s.07-.07,.1-.11c.03-.04,.04-.08,.05-.13,.01-.04,.02-.08,.02-.12,0-.06-.01-.12-.03-.18Zm-3.3,4.43v-1.35l.48,1.67-.48-.32Zm0-2.38v-1.6l1.63,.13-1.63,1.47Z"/></svg>