<svg width="24" height="24" viewBox="0 0 24 24" fill="none" xmlns="http://www.w3.org/2000/svg">
<rect width="24" height="24" rx="12" fill="#122736"/>
<path d="M20.9451 12C20.9563 12 20.9672 12.0043 20.9754 12.012C20.9836 12.0198 20.9885 12.0303 20.9891 12.0416C21.0234 12.3743 21.131 14.6176 17.709 14.6176C15.5076 14.6176 13.7098 13.4654 12.7558 12.6923C12.747 12.6858 12.7361 12.6825 12.7251 12.6832C12.7142 12.6839 12.7038 12.6885 12.6959 12.6961C12.6879 12.7038 12.683 12.714 12.6819 12.7249C12.6807 12.7359 12.6836 12.7469 12.6898 12.7559C13.4652 13.71 14.6172 15.5007 14.6172 17.7122C14.6172 21.137 12.3718 21.0269 12.0416 20.9902C12.0303 20.9896 12.0198 20.9847 12.012 20.9765C12.0043 20.9683 12 20.9575 12 20.9462V12H20.9451Z" fill="#D4EEE9"/>
<path d="M6.29064 9.38203C8.49205 9.38203 10.2899 10.5342 11.2463 11.3097C11.2547 11.3182 11.2661 11.3229 11.2781 11.3229C11.29 11.3229 11.3014 11.3182 11.3099 11.3097C11.3183 11.3013 11.323 11.2899 11.323 11.2779C11.323 11.266 11.3183 11.2546 11.3099 11.2461C10.5345 10.2896 9.3824 8.49891 9.3824 6.28989C9.3824 2.86504 11.6278 2.97512 11.9581 3.00937C11.9695 3.01058 11.9801 3.01601 11.9878 3.0246C11.9955 3.03318 11.9997 3.04434 11.9996 3.05586V11.9996H3.06434C3.05346 11.9996 3.04295 11.9957 3.03482 11.9885C3.02669 11.9812 3.02152 11.9713 3.02031 11.9605C2.97629 11.6278 2.86866 9.38203 6.29064 9.38203Z" fill="#D4EEE9"/>
</svg>
