<svg width="20" height="20" viewBox="0 0 20 20" fill="none" xmlns="http://www.w3.org/2000/svg">
<path d="M14.1667 13.5229C16.1087 13.9805 17.5001 15.2153 17.5001 16.6666" stroke="#0F0F0F" stroke-width="1.5" stroke-linecap="round" stroke-linejoin="round"/>
<path d="M2.5 16.6667C2.5 14.8258 4.73858 13.3334 7.5 13.3334C10.2614 13.3334 12.5 14.8258 12.5 16.6667" stroke="#0F0F0F" stroke-width="1.5" stroke-linecap="round" stroke-linejoin="round"/>
<path d="M12.5 10.8333C14.3409 10.8333 15.8333 9.34091 15.8333 7.49996C15.8333 5.65901 14.3409 4.16663 12.5 4.16663" stroke="#0F0F0F" stroke-width="1.5" stroke-linecap="round" stroke-linejoin="round"/>
<path d="M7.50008 10.8333C9.34103 10.8333 10.8334 9.34091 10.8334 7.49996C10.8334 5.65901 9.34103 4.16663 7.50008 4.16663C5.65913 4.16663 4.16675 5.65901 4.16675 7.49996C4.16675 9.34091 5.65913 10.8333 7.50008 10.8333Z" stroke="#0F0F0F" stroke-width="1.5" stroke-linecap="round" stroke-linejoin="round"/>
</svg>
