<svg width="122" height="20" viewBox="0 0 122 20" fill="none" xmlns="http://www.w3.org/2000/svg">
<g clip-path="url(#clip0_2032_2501)">
<path d="M12.5434 2.46924H0V19.7534H12.5443C17.0133 19.7534 20.9394 16.9878 20.9394 11.1113C20.9394 5.23481 17.0124 2.46924 12.5434 2.46924ZM17.473 11.6812L14.9826 15.6456C14.8879 15.796 14.7567 15.9199 14.6012 16.0057C14.4456 16.0915 14.2708 16.1365 14.0931 16.1364H4.80148C4.52296 16.1364 4.25585 16.0257 4.05891 15.8288C3.86196 15.6318 3.75132 15.3647 3.75132 15.0862V7.15816C3.75132 6.87961 3.86195 6.61247 4.05889 6.41548C4.25582 6.21848 4.52294 6.10777 4.80148 6.10769H14.0931C14.2708 6.10763 14.4456 6.15261 14.6011 6.23843C14.7567 6.32425 14.8879 6.44811 14.9826 6.59842L17.473 10.5638C17.5781 10.7312 17.6338 10.9249 17.6338 11.1225C17.6338 11.3201 17.5781 11.5138 17.473 11.6812Z" fill="#32302D"/>
<path d="M30.2088 8.74255V12.9383C30.2088 15.7532 30.752 16.4694 33.3201 16.4694C34.6533 16.4694 35.394 16.4694 37.0978 16.224V19.6306C35.6903 19.876 34.0853 20.0011 32.1346 20.0011C28.3818 20.0002 25.9628 18.5927 25.9628 15.3827V8.74255H22.1348V5.20991H25.9628V2.19775L30.2098 0.987793V5.20991H37.0987V8.74255H30.2088Z" fill="#32302D"/>
<path d="M54.9975 5.457V8.9878C53.6149 8.64184 52.5037 8.4937 51.2692 8.4937C48.8986 8.4937 46.1827 9.03718 43.6147 11.0372V19.7532H39.3926V5.20979H43.6147V7.67909C45.7877 5.72843 48.3555 4.96289 51.0716 4.96289C52.8002 4.96289 54.0099 5.20979 54.9975 5.457Z" fill="#32302D"/>
<path d="M75.0767 12.4198V19.7532H70.8297V17.9507C68.262 19.21 65.4222 20.0001 61.9902 20.0001C57.9162 20.0001 55.373 18.6914 55.373 15.4075C55.373 11.6298 59.5212 10.4444 64.1384 10.4444C66.6325 10.4444 68.9285 10.8394 70.8297 11.4816C70.8297 8.71606 67.2741 8.4937 65.2989 8.4937C63.3974 8.4937 61.0768 8.66668 58.0889 9.55552L56.583 6.46913C59.5458 5.50607 62.4595 4.96289 65.4964 4.96289C71.5707 4.96289 75.0273 6.91355 75.0767 12.4198ZM70.8297 14.0988C69.3483 13.6298 67.3483 13.2093 64.657 13.2093C61.4979 13.2093 59.5964 13.7525 59.5964 15.2336C59.5964 16.7647 61.0035 16.888 63.2011 16.888C65.4974 16.888 68.6579 16.1721 70.8306 15.2336L70.8297 14.0988Z" fill="#32302D"/>
<path d="M96.1698 5.20996L88.7871 19.7534H82.7625L75.4043 5.20996H80.0969L85.8016 16.7657L91.4806 5.20996H96.1698Z" fill="#32302D"/>
<path d="M111.252 14.5432L115.055 15.6525C113.958 18.2264 110.88 20.0001 105.497 20.0001C99.9663 20.0001 95.6699 17.8271 95.6699 12.4941C95.6699 7.13591 99.8427 4.96289 105.744 4.96289C111.275 4.96289 115.695 6.86447 115.695 13.4817H99.9914C100.461 15.8025 102.683 16.5677 105.498 16.5677C108.412 16.5677 110.19 16.0249 111.252 14.5432ZM100.14 10.79H111.177C110.461 8.7409 108.386 8.17288 105.72 8.17288C102.832 8.17288 100.807 8.74244 100.14 10.79Z" fill="#32302D"/>
<path d="M121.915 0.00146484V19.7533H117.693V0.00146484H121.915Z" fill="#32302D"/>
</g>
<defs>
<clipPath id="clip0_2032_2501">
<rect width="121.916" height="20" fill="white"/>
</clipPath>
</defs>
</svg>
